{"glyphs":{"0":{"ha":793,"x_min":28,"x_max":765,"o":"m 397 -10 q 208 33 283 -10 q 90 148 132 76 q 38 304 47 219 q 47 474 28 389 q 114 630 67 558 q 233 744 161 701 q 397 788 304 788 q 586 744 510 788 q 704 630 663 701 q 756 474 746 558 q 746 304 765 389 q 680 148 726 219 q 562 33 633 76 q 397 -10 490 -10 m 396 129 q 514 397 514 129 q 396 649 514 650 q 278 381 278 650 q 396 129 278 129 z "},"1":{"ha":682,"x_min":28,"x_max":590,"o":"m 444 -4 q 358 10 397 -4 q 321 51 319 25 q 347 285 328 165 q 382 511 367 404 q 287 413 339 449 q 186 376 235 376 q 87 430 131 376 q 28 603 43 483 q 67 599 47 601 q 104 597 86 597 q 259 616 182 597 q 392 665 336 635 q 416 773 386 742 q 486 804 446 804 q 560 779 529 804 q 590 715 590 754 q 581 677 590 697 q 553 636 572 657 q 557 367 557 518 q 575 50 557 215 q 528 10 567 24 q 444 -4 489 -4 z "},"2":{"ha":789,"x_min":21,"x_max":754,"o":"m 597 -10 q 504 4 557 -10 q 394 36 451 18 q 278 65 336 54 q 194 9 232 26 q 125 -8 156 -8 q 47 31 74 -8 q 21 119 21 71 q 35 187 21 154 q 76 240 49 219 q 144 261 103 261 q 198 252 168 261 q 263 224 228 243 q 365 326 322 268 q 431 444 408 385 q 454 550 454 503 q 435 620 454 593 q 381 647 417 647 q 315 609 338 647 q 292 517 292 571 q 298 459 292 489 q 318 400 304 429 q 194 426 244 400 q 117 492 143 451 q 90 579 90 533 q 123 676 90 629 q 223 753 156 724 q 393 783 290 783 q 556 753 493 783 q 649 674 619 724 q 679 563 679 624 q 649 430 679 499 q 562 298 618 361 q 426 186 506 235 q 467 181 446 183 q 508 178 488 178 q 608 198 560 178 q 701 274 657 218 q 740 226 726 258 q 754 157 754 194 q 738 79 754 118 q 686 15 721 40 q 597 -10 651 -10 z "},"3":{"ha":713,"x_min":21,"x_max":671,"o":"m 321 -190 q 176 -158 244 -190 q 64 -59 107 -126 q 21 115 21 8 l 44 125 q 164 8 103 42 q 278 -26 225 -26 q 360 -6 324 -26 q 417 46 396 14 q 439 114 439 78 q 424 183 439 150 q 382 231 410 215 q 326 198 351 208 q 279 188 301 188 q 210 221 235 188 q 186 292 186 254 q 208 356 186 328 q 274 383 229 383 q 350 365 308 383 q 413 465 394 419 q 432 547 432 511 q 405 624 432 596 q 346 651 378 651 q 287 622 314 651 q 260 526 260 592 q 263 488 260 508 q 271 443 265 467 q 124 489 174 443 q 75 593 75 535 q 106 683 75 639 q 201 755 138 726 q 361 783 264 783 q 522 755 457 783 q 619 679 586 726 q 651 575 651 632 q 603 437 651 507 q 454 314 554 367 q 578 275 531 307 q 649 198 626 243 q 671 101 671 153 q 641 -20 671 33 q 560 -112 611 -74 q 447 -170 510 -150 q 321 -190 385 -190 z "},"4":{"ha":736,"x_min":24,"x_max":713,"o":"m 560 -190 q 478 -181 515 -190 q 443 -154 442 -172 q 456 -28 450 -83 q 465 74 461 28 q 376 78 422 78 q 238 65 303 78 q 136 25 172 53 q 64 63 93 28 q 24 149 35 97 q 65 205 40 163 q 117 307 89 247 q 173 435 146 367 q 223 569 200 503 q 260 690 246 635 q 274 778 274 744 l 282 788 q 342 792 314 792 q 458 756 419 792 q 497 657 497 721 q 435 460 497 576 q 249 210 372 344 q 288 215 268 214 q 325 217 307 217 q 476 185 399 217 q 488 300 483 242 q 497 438 492 358 q 603 463 542 463 q 713 442 658 463 q 690 235 699 347 q 681 13 681 124 q 682 -72 681 -31 q 688 -154 683 -114 q 642 -181 681 -172 q 560 -190 604 -190 z "},"5":{"ha":736,"x_min":49,"x_max":694,"o":"m 390 -189 q 270 -169 331 -189 q 160 -109 210 -149 q 79 -10 110 -69 q 49 128 49 49 l 69 139 q 175 21 110 61 q 303 -19 240 -19 q 413 24 367 -19 q 460 153 460 67 q 433 247 460 206 q 353 289 406 289 q 283 266 318 289 q 222 199 247 243 q 150 215 189 196 q 89 268 111 233 q 132 518 132 401 q 86 781 132 642 l 89 783 q 266 763 176 771 q 433 754 356 754 q 563 764 507 754 q 650 797 619 774 q 613 599 650 663 q 506 535 576 535 q 308 603 428 535 q 271 393 306 486 q 408 419 338 419 q 551 385 486 419 q 655 285 615 351 q 694 122 694 219 q 661 -26 694 46 q 560 -143 628 -97 q 390 -189 493 -189 z "},"6":{"ha":840,"x_min":76,"x_max":763,"o":"m 422 -10 q 231 47 308 -10 q 115 197 154 103 q 76 400 76 290 q 106 590 76 494 q 196 763 135 685 q 352 890 257 842 q 579 938 447 938 q 640 935 615 938 q 679 928 665 932 l 682 896 q 620 874 657 890 q 544 835 583 858 q 471 785 504 813 q 375 669 411 735 q 322 526 339 604 q 403 600 354 576 q 503 624 451 624 q 626 591 567 624 q 724 494 685 558 q 763 336 763 431 q 722 167 763 246 q 606 39 682 88 q 422 -10 529 -10 m 415 122 q 500 178 472 122 q 528 311 528 235 q 496 445 528 399 q 422 492 464 492 q 360 464 392 492 q 306 378 328 436 l 306 363 q 415 122 306 122 z "},"7":{"ha":746,"x_min":28,"x_max":732,"o":"m 271 -190 q 197 -178 229 -190 q 164 -142 164 -165 q 210 121 167 -6 q 325 356 254 247 q 479 549 396 464 q 362 563 424 551 q 243 574 300 574 q 152 560 194 574 q 78 506 110 546 q 41 554 54 522 q 28 622 28 586 q 44 700 28 663 q 92 763 60 738 q 174 788 124 788 q 292 767 233 788 q 407 728 350 747 q 518 708 464 708 q 588 722 554 708 q 657 765 622 735 q 710 688 688 740 q 732 588 732 636 q 732 576 732 582 q 731 565 732 571 q 558 401 632 504 q 442 160 483 297 q 400 -139 400 24 q 352 -178 390 -165 q 271 -190 314 -190 z "},"8":{"ha":800,"x_min":56,"x_max":738,"o":"m 353 -10 q 208 15 276 -10 q 98 94 140 40 q 56 229 56 147 q 81 331 56 282 q 150 418 106 381 q 250 474 194 456 q 138 568 186 517 q 90 688 90 619 q 137 827 90 772 q 256 909 183 882 q 408 936 329 936 q 553 913 485 936 q 664 842 621 889 q 707 726 707 796 q 664 601 707 663 q 532 503 621 540 q 632 438 585 472 q 708 363 679 403 q 738 276 738 324 q 703 155 738 208 q 614 65 669 101 q 490 9 558 28 q 353 -10 422 -10 m 425 567 q 492 646 474 607 q 511 718 511 685 q 477 801 511 774 q 401 829 443 829 q 326 801 361 829 q 292 718 292 774 q 331 640 292 676 q 425 567 369 603 m 389 126 q 467 158 432 126 q 501 249 501 189 q 452 340 501 299 q 338 419 403 381 q 283 342 299 385 q 267 272 267 300 q 306 163 267 199 q 389 126 344 126 z "},"9":{"ha":825,"x_min":69,"x_max":754,"o":"m 211 -192 q 153 -189 178 -192 q 114 -182 128 -186 l 111 -150 q 214 -115 149 -143 q 343 -29 279 -86 q 440 86 396 18 q 507 249 485 154 q 428 178 476 201 q 329 156 381 156 q 207 188 267 156 q 108 285 147 221 q 69 443 69 350 q 110 613 69 535 q 226 740 150 692 q 410 789 303 789 q 603 733 526 789 q 717 588 679 678 q 754 392 754 497 q 719 187 754 290 q 616 -2 685 83 q 446 -140 547 -87 q 211 -192 344 -192 m 410 288 q 473 315 442 288 q 526 401 504 343 l 526 417 q 417 657 526 657 q 333 601 361 657 q 304 468 304 544 q 336 334 304 381 q 410 288 368 288 z "},"A":{"ha":931,"x_min":19,"x_max":903,"o":"m 129 -6 q 53 15 86 -6 q 19 85 19 36 q 52 240 19 161 q 133 397 85 319 q 228 547 181 474 q 309 688 276 621 q 342 811 342 754 q 319 857 342 857 q 285 833 304 857 q 257 761 265 808 l 242 764 q 279 898 242 843 q 375 981 317 953 q 494 1008 433 1008 q 627 968 565 1008 q 713 840 689 928 q 727 763 722 806 q 733 688 732 719 q 735 657 735 657 q 740 467 738 544 q 747 336 742 389 q 763 247 753 283 q 788 191 772 213 q 829 169 804 169 q 870 183 853 169 q 893 210 888 197 l 903 203 q 878 92 903 139 q 813 19 853 44 q 728 -6 772 -6 q 644 20 685 -6 q 572 100 603 46 q 532 240 542 154 q 448 245 489 243 q 374 247 407 247 q 331 247 351 247 q 292 244 311 246 q 272 158 279 201 q 264 72 264 114 q 222 17 264 40 q 129 -6 181 -6 m 338 374 q 411 387 372 383 q 494 390 450 390 l 525 390 q 517 601 522 493 q 482 803 513 710 q 426 593 471 703 q 338 374 382 483 z "},"B":{"ha":914,"x_min":71,"x_max":871,"o":"m 371 -10 q 164 38 244 -10 q 83 192 83 85 q 84 212 83 203 q 86 226 85 221 q 110 322 92 265 q 151 444 128 379 q 197 571 175 508 q 235 685 219 633 q 250 769 250 738 q 226 806 250 806 q 161 766 200 806 q 79 656 122 726 l 71 660 q 107 818 71 751 q 203 928 143 885 q 336 993 263 972 q 485 1014 410 1014 q 660 984 578 1014 q 794 899 742 954 q 846 763 846 843 q 669 538 846 618 q 822 458 774 514 q 871 335 871 403 q 835 215 871 275 q 735 103 800 154 q 577 22 669 53 q 371 -10 485 -10 m 425 579 q 537 599 489 578 q 612 655 585 621 q 639 725 639 689 q 589 809 639 772 q 432 846 539 846 q 440 793 438 819 q 442 742 442 767 q 437 661 442 701 q 425 579 432 621 m 410 160 q 515 184 469 160 q 588 247 561 208 q 614 325 614 285 q 561 428 614 381 q 396 486 508 475 q 373 394 390 443 q 340 301 356 346 q 325 224 325 257 q 343 177 325 194 q 410 160 361 160 z "},"C":{"ha":832,"x_min":51,"x_max":819,"o":"m 385 -8 q 234 27 297 -8 q 130 124 171 63 q 70 265 89 186 q 54 428 51 343 q 110 689 60 579 q 236 869 160 799 q 401 974 313 940 q 571 1008 489 1008 q 697 985 640 1008 q 786 919 753 963 q 819 813 819 875 q 791 719 819 764 q 705 645 763 674 q 557 617 647 617 q 579 694 572 661 q 586 751 586 728 q 564 817 586 800 q 508 835 542 835 q 432 806 468 835 q 367 727 396 776 q 322 618 339 678 q 303 497 306 558 q 347 264 297 343 q 476 185 397 185 q 612 235 538 185 q 758 386 686 285 l 776 378 q 697 167 758 253 q 553 36 636 81 q 385 -8 471 -8 z "},"D":{"ha":956,"x_min":61,"x_max":932,"o":"m 404 -10 q 294 3 350 -10 q 192 42 239 15 q 117 113 146 69 q 89 218 89 157 q 89 231 89 225 q 90 247 89 238 q 109 340 94 285 q 143 458 124 396 q 181 582 163 521 q 213 694 200 643 q 225 775 225 744 q 207 808 225 808 q 153 774 189 808 q 69 658 117 739 l 61 661 q 112 853 61 774 q 256 976 163 933 q 478 1018 350 1018 q 683 983 597 1018 q 824 886 769 947 q 906 747 879 825 q 932 582 932 668 q 895 373 932 478 q 790 181 858 268 q 623 42 721 94 q 404 -10 525 -10 m 428 174 q 528 206 483 174 q 607 293 574 239 q 658 413 640 347 q 676 546 676 479 q 649 694 676 625 q 563 807 622 764 q 407 850 503 850 q 417 796 414 824 q 421 739 421 768 q 409 608 421 675 q 383 479 397 542 q 356 363 368 417 q 344 267 344 308 q 363 199 344 224 q 428 174 381 174 z "},"E":{"ha":746,"x_min":18,"x_max":739,"o":"m 292 -10 q 138 24 199 -10 q 47 113 76 58 q 18 232 18 168 q 40 344 18 289 q 106 446 63 400 q 213 518 150 492 q 127 605 156 554 q 99 711 99 656 q 146 851 99 783 q 283 964 193 919 q 500 1008 374 1008 q 640 987 588 1008 q 715 931 692 965 q 739 858 739 897 q 711 770 739 814 q 631 699 683 726 q 504 671 579 671 q 526 779 526 736 q 508 842 526 822 q 464 861 490 861 q 405 840 436 861 q 353 782 374 819 q 332 694 332 744 q 340 635 332 668 q 367 571 349 603 q 423 599 397 590 q 469 608 449 608 q 532 578 513 608 q 551 511 551 549 q 524 426 551 467 q 444 386 497 386 q 331 432 396 386 q 254 304 254 378 q 290 218 254 247 q 381 189 325 189 q 539 238 451 189 q 694 386 626 288 l 706 379 q 666 209 703 282 q 570 88 629 136 q 439 15 511 39 q 292 -10 367 -10 z "},"F":{"ha":761,"x_min":31,"x_max":801,"o":"m 197 -6 q 107 36 147 -6 q 67 174 67 78 q 85 326 67 251 q 126 478 103 401 q 165 638 149 556 q 175 813 181 721 q 101 793 138 807 q 31 753 65 779 q 46 895 31 840 q 106 975 61 950 q 238 1000 150 1000 q 343 993 285 1000 q 463 979 401 986 q 581 972 525 972 q 678 983 635 972 q 744 1021 721 993 q 787 972 772 1003 q 801 904 801 940 q 784 831 801 867 q 731 773 767 796 q 636 750 694 750 q 503 769 575 750 q 354 803 431 789 q 365 742 361 772 q 368 679 368 711 q 365 610 368 644 q 357 540 363 576 q 428 568 386 556 q 513 589 469 581 q 592 597 557 597 q 631 593 614 597 q 644 522 644 564 q 611 386 644 456 l 601 382 q 483 425 550 410 q 342 446 415 440 q 315 285 328 367 q 303 117 303 203 q 303 79 303 99 q 306 40 304 60 q 197 -6 260 -6 z "},"G":{"ha":863,"x_min":54,"x_max":818,"o":"m 590 -211 q 572 -210 581 -211 q 553 -208 563 -210 q 540 -90 544 -149 q 535 22 536 -31 q 397 -8 468 -8 q 230 40 308 -8 q 103 189 151 89 q 54 440 54 289 q 100 694 54 588 q 219 871 146 801 q 379 974 293 940 q 546 1007 465 1007 q 678 983 618 1007 q 773 915 738 958 q 808 810 808 871 q 781 715 808 760 q 696 644 753 671 q 551 617 639 617 q 571 689 565 657 q 576 744 576 721 q 554 816 576 797 q 503 835 532 835 q 400 783 446 835 q 328 649 354 732 q 301 472 301 567 q 354 261 301 338 q 486 185 407 185 q 550 197 517 185 l 550 199 q 569 365 550 303 q 617 453 588 426 q 679 479 647 479 q 745 456 714 479 q 797 395 776 432 q 818 315 818 358 q 797 237 818 276 q 724 165 775 197 q 719 143 721 154 q 718 121 718 132 q 734 36 718 83 q 785 -96 750 -11 q 747 -154 776 -128 q 676 -196 717 -181 q 590 -211 635 -211 z "},"H":{"ha":908,"x_min":28,"x_max":888,"o":"m 163 -6 q 74 38 113 -6 q 35 175 35 82 q 52 306 35 240 q 88 425 69 371 q 136 589 115 514 q 157 732 157 664 q 147 797 157 779 q 119 815 136 815 q 80 796 101 815 q 38 736 58 776 l 28 739 q 63 878 31 819 q 143 968 94 936 q 243 1000 192 1000 q 343 953 301 1000 q 385 793 385 907 q 373 668 385 733 q 346 538 361 603 q 446 565 393 557 q 558 574 499 574 l 594 574 q 626 710 613 643 q 639 836 639 778 q 637 875 639 857 q 632 910 635 893 l 632 921 q 692 981 653 958 q 772 1003 732 1003 q 853 973 818 1003 q 888 878 888 943 q 869 753 888 829 q 826 596 850 676 q 776 405 799 497 q 753 249 753 313 q 767 181 753 206 q 811 156 781 156 q 874 196 853 156 l 882 192 q 850 89 881 133 q 774 19 819 44 q 682 -6 729 -6 q 603 16 640 -6 q 544 83 567 38 q 521 203 521 129 q 531 309 521 251 q 556 426 542 367 q 431 431 492 431 q 372 429 400 431 q 319 425 344 428 q 298 316 307 369 q 289 213 289 263 q 292 158 289 185 q 304 106 296 131 q 242 23 282 51 q 163 -6 203 -6 z "},"I":{"ha":438,"x_min":42,"x_max":403,"o":"m 140 -7 q 72 26 101 -7 q 42 147 42 58 q 42 174 42 163 q 43 192 43 186 q 59 330 49 247 q 83 503 69 413 q 112 679 97 594 q 139 827 126 764 q 160 914 151 890 q 215 980 175 956 q 296 1004 254 1004 q 362 983 332 1004 q 403 913 392 963 q 376 815 394 885 q 338 643 358 744 q 298 419 317 542 q 268 164 279 297 q 264 109 267 140 q 260 46 261 78 q 210 10 243 28 q 140 -7 176 -7 z "},"J":{"ha":739,"x_min":21,"x_max":771,"o":"m 263 -193 q 144 -165 200 -193 q 55 -89 89 -137 q 21 21 21 -40 l 38 29 q 168 -19 103 -19 q 239 1 206 -19 q 298 75 272 22 q 338 221 324 128 q 353 460 353 314 q 369 665 353 583 q 435 815 385 747 q 392 838 417 828 q 342 849 368 849 q 269 816 297 849 q 240 733 240 783 q 249 678 240 707 q 278 619 258 649 q 140 649 194 619 q 58 725 85 679 q 31 821 31 771 q 55 915 31 871 q 128 988 79 960 q 246 1017 176 1017 q 367 995 300 1017 q 513 924 433 974 q 600 994 561 981 q 661 1008 639 1008 q 744 970 718 1008 q 771 879 771 932 q 758 811 771 844 q 717 756 744 778 q 644 735 689 735 q 615 738 631 735 q 579 747 599 740 q 565 689 569 722 q 561 617 561 656 q 569 453 561 540 q 578 283 578 367 q 550 62 578 153 q 476 -85 522 -29 q 375 -167 431 -142 q 263 -193 319 -193 z "},"K":{"ha":875,"x_min":35,"x_max":861,"o":"m 668 -10 q 576 15 613 -10 q 518 83 540 40 q 483 177 496 125 q 458 282 469 229 q 424 419 444 356 q 360 508 404 483 q 307 305 332 407 q 282 103 282 203 q 283 72 282 88 q 285 40 283 56 q 172 -6 236 -6 q 77 35 119 -6 q 35 165 35 75 q 57 304 35 233 q 109 447 79 375 q 161 591 139 519 q 183 732 183 663 q 172 797 183 778 q 143 815 161 815 q 101 796 124 815 q 57 736 78 776 l 47 739 q 79 869 50 810 q 158 965 108 929 q 265 1000 207 1000 q 368 956 324 1000 q 413 806 413 913 q 403 705 413 758 q 382 596 394 651 q 491 716 444 650 q 563 845 538 782 q 589 956 589 908 q 576 1007 589 986 q 698 988 644 1007 q 783 934 751 968 q 815 856 815 900 q 748 725 815 796 q 521 585 681 654 q 587 531 561 567 q 630 455 613 496 q 660 375 647 414 q 706 260 683 307 q 772 214 729 214 q 822 232 800 214 q 853 272 843 250 l 861 268 q 839 130 861 193 q 774 28 817 67 q 668 -10 731 -10 z "},"L":{"ha":867,"x_min":-3,"x_max":828,"o":"m 664 -10 q 551 8 614 -10 q 419 48 488 26 q 282 79 350 69 q 194 16 235 35 q 121 -3 153 -3 q 53 21 81 -3 q 11 81 25 44 q -3 157 -3 118 q 12 233 -3 197 q 57 292 26 269 q 135 315 88 315 q 156 314 144 315 q 179 310 167 313 q 226 488 206 390 q 258 681 246 586 q 269 844 269 775 q 267 884 269 872 q 257 908 264 896 l 256 913 q 311 982 272 957 q 393 1007 350 1007 q 471 973 440 1007 q 501 860 501 939 q 490 735 501 810 q 457 576 478 661 q 411 407 436 490 q 361 258 386 324 q 484 226 422 244 q 606 208 546 208 q 694 225 651 208 q 774 286 736 242 q 815 235 801 268 q 828 164 828 201 q 810 83 828 122 q 757 17 793 43 q 664 -10 721 -10 z "},"M":{"ha":1383,"x_min":49,"x_max":1407,"o":"m 1094 0 q 1009 25 1050 0 q 943 104 968 50 q 918 243 918 158 q 935 399 918 313 q 978 574 951 486 q 1038 732 1006 661 q 869 556 942 668 q 744 294 797 443 q 763 211 756 250 q 769 140 769 172 q 740 44 769 79 q 639 10 711 10 q 545 38 575 10 q 515 118 515 67 q 527 194 515 151 q 561 288 539 238 q 500 453 536 361 q 399 656 464 546 q 359 492 379 574 q 326 342 339 411 q 313 226 313 274 q 354 150 313 150 l 357 147 q 334 69 357 101 q 276 19 311 36 q 201 1 240 1 q 128 19 164 1 q 71 76 93 38 q 49 174 49 114 q 69 298 49 231 q 119 435 89 365 q 182 573 150 506 q 240 699 214 640 q 274 803 265 758 q 214 822 246 822 q 160 805 188 822 q 110 747 133 788 l 100 751 q 131 881 101 822 q 208 976 160 940 q 313 1011 256 1011 q 447 954 378 1011 q 576 767 517 897 q 671 414 635 636 q 785 700 724 585 q 910 883 846 815 q 1038 981 975 951 q 1158 1011 1101 1011 q 1285 976 1229 1011 q 1374 889 1342 942 q 1407 783 1407 836 q 1338 797 1372 793 q 1272 801 1304 801 q 1211 797 1240 801 q 1185 655 1199 733 q 1160 497 1171 576 q 1150 351 1150 418 q 1164 240 1150 283 q 1213 197 1178 197 q 1258 217 1235 197 q 1292 276 1281 236 l 1301 272 q 1271 120 1301 181 q 1192 30 1240 60 q 1094 0 1144 0 z "},"N":{"ha":965,"x_min":42,"x_max":896,"o":"m 183 -6 q 90 36 132 -6 q 47 168 47 78 q 65 342 47 258 q 105 504 82 426 q 145 652 128 582 q 163 785 163 722 q 124 793 142 793 q 82 778 99 793 q 56 736 65 763 l 42 740 q 70 895 43 838 q 140 978 97 953 q 229 1003 183 1003 q 353 958 299 1003 q 452 835 408 913 q 528 659 496 757 q 585 455 561 561 q 622 246 608 349 q 640 382 631 301 q 656 551 649 463 q 663 721 663 640 q 658 827 663 779 q 644 910 654 875 l 644 921 q 717 982 681 961 q 786 1003 754 1003 q 865 962 833 1003 q 896 846 896 921 q 881 710 896 790 q 844 540 865 631 q 808 363 824 450 q 790 207 792 276 q 793 165 790 188 q 822 143 796 143 q 824 135 824 138 q 824 129 824 132 q 781 35 822 76 q 669 -6 739 -6 q 578 22 615 -6 q 515 97 540 50 q 473 202 490 143 q 440 324 456 261 q 383 530 413 432 q 303 710 353 628 q 299 588 306 654 q 284 455 292 522 q 276 325 276 388 q 286 223 276 269 q 321 140 296 176 q 278 33 321 72 q 183 -6 235 -6 z "},"O":{"ha":933,"x_min":54,"x_max":906,"o":"m 413 -10 q 252 24 319 -10 q 141 117 185 58 q 76 251 97 176 q 54 410 54 326 q 87 621 54 515 q 183 814 119 726 q 338 955 246 901 q 547 1008 429 1008 q 708 974 640 1008 q 819 881 775 940 q 884 747 863 822 q 906 589 906 672 q 873 378 906 485 q 777 185 840 272 q 622 44 714 97 q 413 -10 531 -10 m 464 167 q 549 200 513 167 q 609 288 585 233 q 646 410 633 343 q 658 544 658 476 q 642 685 658 619 q 592 792 626 751 q 504 833 558 833 q 419 801 457 833 q 356 713 382 768 q 316 592 329 658 q 303 460 303 526 q 321 317 303 383 q 375 208 339 250 q 464 167 411 167 z "},"P":{"ha":851,"x_min":28,"x_max":817,"o":"m 165 -6 q 81 30 118 -6 q 43 150 43 65 q 59 274 43 206 q 98 415 75 342 q 144 556 121 488 q 183 679 168 624 q 199 767 199 735 q 169 804 199 804 q 104 765 135 804 q 36 654 74 725 l 28 657 q 86 848 28 767 q 244 974 144 929 q 465 1018 343 1018 q 666 976 589 1018 q 780 866 743 933 q 817 722 817 799 q 792 592 817 657 q 723 475 768 528 q 617 390 678 422 q 482 358 556 358 q 324 397 406 358 q 292 259 306 329 q 278 115 278 189 q 282 43 278 79 q 227 7 258 19 q 165 -6 196 -6 m 388 497 q 485 528 443 497 q 549 608 526 560 q 572 704 572 656 q 535 806 572 761 q 415 850 499 850 q 390 849 404 850 q 360 844 375 847 q 374 776 371 810 q 378 710 378 742 q 369 603 378 654 q 350 501 361 551 q 388 497 369 497 z "},"Q":{"ha":924,"x_min":43,"x_max":914,"o":"m 751 -196 q 555 -140 622 -196 q 468 -4 488 -83 q 435 -8 451 -6 q 400 -10 418 -10 q 199 49 278 -10 q 81 203 119 107 q 43 410 43 299 q 76 621 43 515 q 173 814 110 726 q 328 955 236 901 q 538 1008 419 1008 q 697 974 629 1008 q 808 881 764 940 q 873 747 851 822 q 894 589 894 672 q 859 369 894 479 q 754 169 824 258 q 585 32 685 79 q 685 17 631 22 q 807 13 739 13 q 856 13 831 13 q 908 14 882 13 l 914 3 q 853 -115 892 -65 q 751 -196 814 -165 m 456 167 q 538 200 503 167 q 598 288 574 233 q 635 410 622 343 q 647 544 647 476 q 632 686 647 621 q 585 792 617 751 q 506 833 554 833 q 413 801 453 833 q 347 714 374 768 q 306 593 319 660 q 292 460 292 526 q 310 317 292 383 q 365 208 328 250 q 456 167 401 167 z "},"R":{"ha":922,"x_min":69,"x_max":872,"o":"m 699 -10 q 615 15 650 -10 q 553 78 579 39 q 509 163 528 117 q 474 253 490 210 q 428 374 449 322 q 382 463 407 426 q 340 260 356 357 q 319 43 324 163 q 263 7 294 19 q 200 -6 232 -6 q 114 28 151 -6 q 76 143 76 63 q 93 268 76 199 q 134 411 110 338 q 183 554 158 485 q 225 680 208 624 q 242 769 242 736 q 218 804 242 804 q 154 765 192 804 q 78 654 117 725 l 69 657 q 106 806 69 740 q 203 916 142 871 q 347 985 265 961 q 517 1008 428 1008 q 708 972 635 1008 q 817 877 782 935 q 853 754 853 819 q 819 624 853 688 q 723 517 785 560 q 576 468 661 475 q 626 412 606 446 q 669 335 647 378 q 715 260 689 296 q 788 225 742 225 q 826 237 811 225 q 853 276 842 249 l 861 272 q 870 232 868 251 q 872 196 872 213 q 824 49 872 108 q 699 -10 775 -10 m 451 590 q 538 613 501 590 q 595 670 575 636 q 615 739 615 704 q 583 815 615 782 q 476 847 550 847 q 453 847 465 847 q 431 844 442 846 q 432 826 432 835 q 432 817 432 817 q 427 693 432 753 q 414 593 422 633 q 433 591 424 592 q 451 590 442 590 z "},"S":{"ha":754,"x_min":10,"x_max":725,"o":"m 282 -8 q 128 24 189 -8 q 39 106 68 56 q 10 208 10 156 q 35 306 10 260 q 106 383 60 353 q 217 414 153 414 q 215 391 215 401 q 215 381 215 381 q 233 234 215 288 q 279 158 251 181 q 336 135 307 135 q 415 170 381 135 q 450 253 450 206 q 405 346 450 306 q 290 435 360 386 q 208 501 251 464 q 133 588 164 538 q 103 708 103 639 q 137 836 103 781 q 227 930 171 892 q 351 988 283 968 q 485 1008 418 1008 q 619 982 567 1008 q 699 914 672 956 q 725 828 725 872 q 702 748 725 786 q 635 686 679 710 q 525 663 590 663 q 531 698 529 682 q 532 726 532 714 q 502 826 532 796 q 436 856 472 856 q 369 830 401 856 q 338 747 338 804 q 363 664 338 699 q 430 603 389 629 q 517 551 471 576 q 608 497 564 526 q 681 426 651 467 q 710 325 710 386 q 675 201 710 261 q 581 94 640 140 q 444 19 521 47 q 282 -8 367 -8 z "},"T":{"ha":821,"x_min":53,"x_max":847,"o":"m 351 -6 q 276 17 308 -6 q 244 83 243 39 q 256 256 247 161 q 278 448 265 350 q 303 636 290 546 q 328 797 317 726 q 279 801 303 800 q 236 803 256 803 q 131 792 178 803 q 53 753 85 781 q 67 895 53 840 q 122 975 82 950 q 238 1000 161 1000 q 362 991 293 1000 q 501 972 431 982 q 633 963 572 963 q 723 972 683 963 q 783 1007 763 982 q 831 965 814 997 q 847 893 847 932 q 832 826 847 858 q 783 772 817 793 q 693 750 750 750 q 628 755 667 750 q 547 765 590 760 q 516 566 532 682 q 490 317 500 450 q 476 46 479 183 q 417 7 451 19 q 351 -6 383 -6 z "},"U":{"ha":939,"x_min":25,"x_max":911,"o":"m 204 -6 q 88 53 132 -6 q 43 214 43 113 q 58 357 43 279 q 94 513 74 435 q 131 657 115 592 q 146 760 146 722 q 117 808 146 808 q 74 788 97 808 q 39 733 50 767 l 25 739 q 65 879 29 821 q 154 969 101 938 q 258 1000 207 1000 q 351 962 313 1000 q 390 838 390 924 q 374 707 390 779 q 337 560 358 635 q 299 419 315 486 q 283 307 283 353 q 294 254 283 274 q 332 235 306 235 q 410 273 369 235 q 488 369 450 311 q 556 482 525 426 q 619 788 578 674 q 710 951 661 901 q 803 1001 760 1001 q 880 956 849 1001 q 911 839 911 911 q 880 695 911 775 q 771 533 849 615 q 755 432 761 485 q 749 332 749 379 q 762 233 749 272 q 808 193 775 193 q 851 213 831 193 q 885 274 871 233 l 896 268 q 841 64 896 133 q 711 -6 786 -6 q 597 62 643 -6 q 543 290 551 129 q 374 66 467 138 q 204 -6 281 -6 z "},"V":{"ha":942,"x_min":29,"x_max":958,"o":"m 424 -6 q 343 1 383 -7 q 275 36 303 10 q 274 139 276 71 q 267 291 272 207 q 249 461 261 375 q 219 620 238 547 q 174 738 200 693 q 111 782 147 782 q 39 747 79 782 l 29 756 q 131 938 68 875 q 263 1000 194 1000 q 363 958 322 1000 q 427 847 403 917 q 462 690 451 776 q 472 513 472 603 q 467 371 472 440 q 451 243 461 301 q 575 447 525 336 q 651 666 625 557 q 678 863 678 775 q 676 897 678 879 q 672 928 675 914 q 747 985 701 965 q 839 1006 793 1006 q 917 987 883 1006 q 958 928 950 968 q 887 664 940 796 q 757 409 833 532 q 594 181 681 286 q 424 -6 507 75 z "},"W":{"ha":1299,"x_min":57,"x_max":1294,"o":"m 278 -7 q 150 57 201 -7 q 99 232 99 121 q 111 360 99 289 q 140 506 124 432 q 169 644 157 579 q 182 751 182 708 q 174 799 182 782 q 143 817 165 817 q 104 801 126 817 q 71 742 82 786 l 57 747 q 112 936 57 867 q 260 1006 167 1006 q 381 949 347 1006 q 415 806 415 892 q 402 669 415 742 q 372 526 389 597 q 342 393 356 454 q 329 292 329 332 q 360 232 329 232 q 408 258 378 232 q 473 328 439 283 q 539 431 507 374 q 593 553 571 489 q 589 612 590 583 q 588 663 588 640 q 609 842 588 774 q 664 942 631 910 q 732 974 697 974 q 819 920 781 974 q 858 775 858 867 q 838 648 858 718 q 768 499 817 578 q 794 306 764 379 q 871 232 825 232 q 934 262 900 232 q 997 345 968 292 q 1045 469 1026 399 q 1064 621 1064 540 q 1058 719 1064 668 q 1042 818 1051 771 q 1024 896 1033 865 q 1044 944 1024 919 q 1096 985 1064 968 q 1161 1003 1128 1003 q 1225 979 1194 1003 q 1275 897 1256 956 q 1294 729 1294 838 q 1256 445 1294 578 q 1151 211 1217 313 q 1006 52 1085 110 q 844 -6 926 -6 q 725 39 772 -6 q 651 158 678 83 q 614 325 625 233 q 506 133 564 206 q 389 26 447 60 q 278 -7 331 -7 z "},"X":{"ha":915,"x_min":-3,"x_max":925,"o":"m 115 -8 q 26 40 56 -8 q -3 150 -3 89 q 6 222 -3 186 q 33 286 15 257 q 62 282 49 283 q 88 281 75 281 q 244 333 178 281 q 349 471 310 386 q 297 606 325 540 q 238 715 269 672 q 169 758 207 758 q 126 740 147 758 q 101 685 106 721 l 83 688 q 130 931 85 854 q 243 1008 175 1008 q 340 967 297 1008 q 417 863 383 926 q 478 733 451 800 q 525 615 504 667 q 603 835 554 749 q 711 965 653 922 q 821 1008 769 1008 q 900 969 875 1008 q 925 871 925 929 q 912 778 925 828 q 874 685 899 729 q 796 703 836 703 q 672 653 731 703 q 571 510 614 604 q 649 351 617 410 q 701 266 681 293 q 738 231 722 239 q 765 222 753 222 q 825 290 817 222 l 842 288 q 796 69 842 147 q 665 -8 750 -8 q 566 28 611 -8 q 479 146 521 65 q 389 357 438 226 q 324 158 369 240 q 224 34 279 76 q 115 -8 168 -8 z "},"Y":{"ha":949,"x_min":35,"x_max":975,"o":"m 408 -6 q 338 8 369 -6 q 290 43 306 22 q 324 203 313 117 q 336 374 336 289 q 317 572 336 479 q 258 721 297 664 q 156 778 218 778 q 49 739 108 778 l 35 744 q 94 932 42 864 q 228 1000 147 1000 q 334 967 286 1000 q 419 878 382 933 q 483 753 456 822 q 526 611 510 683 q 606 841 557 754 q 710 967 654 928 q 817 1007 765 1007 q 928 954 882 1007 q 975 818 975 901 q 958 719 975 772 q 872 742 918 742 q 753 706 813 742 q 644 606 693 671 q 567 454 594 542 q 571 329 571 382 q 563 194 571 257 q 532 46 554 131 q 473 7 506 19 q 408 -6 440 -6 z "},"Z":{"ha":939,"x_min":7,"x_max":911,"o":"m 633 -35 q 485 3 557 -35 q 346 136 413 42 q 175 -8 275 61 q 85 29 128 -8 q 7 163 43 67 q 22 166 14 163 q 51 186 29 169 q 198 317 135 247 q 305 449 261 388 q 374 549 349 511 q 435 641 413 607 q 471 696 457 675 q 496 733 485 717 q 431 776 464 763 q 368 789 397 789 q 294 763 325 789 q 264 692 264 736 q 296 601 264 650 q 176 626 222 601 q 110 692 131 651 q 89 778 89 732 q 115 883 89 832 q 188 968 142 935 q 297 1001 235 1001 q 425 963 356 1001 q 569 833 494 925 q 659 931 611 886 q 765 1008 707 976 q 878 934 844 990 q 911 814 911 878 q 910 792 911 803 q 908 771 910 782 q 905 772 907 772 q 903 772 903 772 q 867 761 890 772 q 734 674 788 724 q 647 576 681 624 q 593 493 614 528 q 522 373 551 422 q 467 286 492 324 q 417 214 443 249 q 488 164 453 179 q 554 149 524 149 q 641 184 607 149 q 675 267 675 219 q 661 324 675 294 q 617 376 647 353 q 679 399 642 392 q 739 407 717 407 q 820 381 788 407 q 870 311 853 354 q 888 218 888 268 q 860 100 888 158 q 778 3 833 42 q 633 -35 722 -35 z "},"a":{"ha":783,"x_min":42,"x_max":753,"o":"m 547 -7 q 463 25 499 -7 q 426 129 426 57 q 426 143 426 136 q 428 157 426 150 q 334 34 386 74 q 229 -6 282 -6 q 138 28 181 -6 q 68 129 94 63 q 42 290 42 196 q 69 464 42 388 q 140 593 96 540 q 238 673 185 646 q 340 700 290 700 q 440 666 396 700 q 501 558 485 632 q 508 601 506 582 q 510 628 510 621 q 548 683 511 665 q 629 701 585 701 q 703 686 668 701 q 750 635 738 671 l 753 626 q 719 536 736 589 q 689 426 703 483 q 667 313 675 368 q 658 217 658 258 q 668 153 658 171 q 692 136 678 136 q 735 169 715 136 l 746 164 q 715 78 746 117 q 639 16 685 39 q 547 -7 593 -7 m 321 169 q 401 234 357 169 q 476 419 444 299 q 482 444 479 432 q 486 467 485 456 q 440 540 464 518 q 392 561 415 561 q 327 524 357 561 q 278 432 297 488 q 260 321 260 376 q 277 207 260 244 q 321 169 294 169 z "},"b":{"ha":735,"x_min":35,"x_max":700,"o":"m 407 -6 q 306 19 351 -6 q 231 90 260 43 q 211 42 229 64 q 143 19 193 19 q 61 50 88 19 q 35 131 35 81 q 43 219 35 161 q 63 349 51 276 q 87 499 75 421 q 107 650 99 576 q 115 782 115 724 q 111 850 115 821 q 96 896 107 879 l 96 904 q 163 956 128 939 q 229 974 197 974 q 310 936 276 974 q 343 817 343 899 q 335 703 343 776 q 314 558 326 631 q 420 667 364 629 q 529 704 476 704 q 650 637 600 704 q 700 433 700 569 q 681 274 700 353 q 625 133 663 196 q 533 32 588 69 q 407 -6 478 -6 m 338 135 q 413 174 382 135 q 460 273 444 213 q 476 397 476 333 q 469 477 476 439 q 449 540 463 515 q 413 564 435 564 q 324 473 374 564 q 247 215 275 382 q 338 135 272 135 z "},"c":{"ha":679,"x_min":28,"x_max":663,"o":"m 310 -10 q 155 32 218 -10 q 60 141 92 74 q 28 286 28 208 q 56 433 28 360 q 140 569 85 507 q 276 667 196 631 q 460 704 356 704 q 613 663 563 704 q 663 574 663 622 q 611 479 663 522 q 461 436 560 436 q 470 478 467 457 q 474 519 474 500 q 461 569 474 549 q 417 589 449 589 q 355 563 388 589 q 299 485 322 536 q 276 358 276 433 q 301 239 276 285 q 364 173 325 193 q 446 153 403 153 q 556 183 503 153 q 632 265 608 213 l 646 260 q 613 137 646 188 q 529 53 581 86 q 419 6 478 21 q 310 -10 361 -10 z "},"d":{"ha":808,"x_min":49,"x_max":788,"o":"m 240 -6 q 147 29 190 -6 q 76 131 103 64 q 49 292 49 197 q 76 465 49 389 q 149 595 104 542 q 248 676 194 649 q 353 704 301 704 q 454 669 410 704 q 515 558 499 633 q 537 691 528 628 q 546 803 546 754 q 529 896 546 867 l 529 904 q 599 958 561 940 q 672 975 638 975 q 750 947 718 975 q 782 865 782 918 q 772 779 782 836 q 749 649 763 722 q 720 499 735 576 q 696 352 706 422 q 686 231 686 282 q 695 162 686 188 q 725 136 704 136 q 756 147 740 136 q 778 171 772 157 l 788 164 q 758 80 788 118 q 685 18 729 42 q 593 -6 640 -6 q 512 23 542 -6 q 469 96 482 51 q 456 188 457 140 q 355 41 413 88 q 240 -6 297 -6 m 333 171 q 414 236 369 171 q 492 426 458 301 l 500 469 q 452 542 478 521 q 403 564 426 564 q 338 526 368 564 q 288 428 307 488 q 269 304 269 369 q 288 206 269 242 q 333 171 306 171 z "},"e":{"ha":724,"x_min":39,"x_max":696,"o":"m 340 -10 q 172 31 239 -10 q 72 140 106 72 q 39 285 39 207 q 67 433 39 358 q 151 568 96 507 q 284 667 206 629 q 461 704 363 704 q 640 649 583 704 q 696 517 696 594 q 660 394 696 450 q 567 303 625 338 q 439 269 508 269 q 365 281 403 269 q 292 315 328 292 q 342 190 299 229 q 444 151 385 151 q 528 167 486 151 q 605 209 569 183 q 660 264 640 235 l 669 257 q 640 134 669 185 q 561 51 610 83 q 455 5 513 19 q 340 -10 397 -10 m 372 365 q 444 391 417 365 q 486 451 472 417 q 500 513 500 486 q 482 566 500 544 q 432 588 464 588 q 377 569 407 588 q 324 508 347 551 q 293 386 300 464 q 372 365 338 365 z "},"f":{"ha":553,"x_min":7,"x_max":661,"o":"m 188 -282 q 111 -267 147 -282 q 61 -224 75 -253 q 116 28 94 -82 q 150 224 138 138 q 168 381 163 310 q 175 519 174 453 q 85 510 128 517 q 10 493 42 504 l 7 503 q 90 570 47 543 q 176 614 133 597 l 176 719 q 219 894 176 826 q 330 994 263 961 q 469 1026 397 1026 q 613 981 565 1026 q 661 878 661 935 q 635 797 661 836 q 558 733 610 758 q 429 707 507 707 q 463 788 451 747 q 475 858 475 828 q 468 897 475 882 q 449 911 461 911 q 398 845 422 911 q 374 672 374 779 l 374 646 q 451 644 414 647 q 519 639 488 642 q 524 618 522 629 q 525 596 525 607 q 519 554 525 575 q 504 511 514 533 q 447 517 479 514 q 379 521 415 519 l 379 490 q 373 314 379 414 q 350 76 367 214 q 299 -251 333 -61 q 188 -282 256 -282 z "},"g":{"ha":774,"x_min":49,"x_max":749,"o":"m 379 -278 q 267 -237 311 -278 q 222 -124 222 -197 q 278 63 222 -44 q 258 58 268 60 q 239 57 249 57 q 103 127 158 57 q 49 322 49 197 q 92 521 49 435 q 204 656 136 607 q 346 704 272 704 q 439 678 397 704 q 507 596 481 653 q 508 621 508 610 q 508 642 508 632 q 544 681 508 665 q 625 696 581 696 q 700 681 665 696 q 746 629 735 665 l 749 621 q 727 549 736 610 q 706 379 718 488 q 685 224 697 311 q 651 49 672 138 q 594 -113 629 -39 q 507 -233 560 -187 q 379 -278 454 -278 m 333 217 q 423 283 374 217 q 501 472 472 349 q 451 549 476 526 q 399 572 425 572 q 333 538 364 572 q 284 449 303 503 q 265 339 265 396 q 285 249 265 281 q 333 217 304 217 m 317 -118 q 413 -26 364 -118 q 482 235 463 67 q 335 15 376 92 q 294 -94 294 -62 q 317 -118 294 -118 z "},"h":{"ha":800,"x_min":49,"x_max":768,"o":"m 181 -6 q 85 35 121 -6 q 49 144 49 75 q 58 242 49 182 q 83 376 68 303 q 111 524 97 449 q 135 671 125 600 q 144 796 144 742 q 126 894 144 864 l 126 903 q 193 954 157 938 q 264 971 229 971 q 354 933 317 971 q 392 821 392 896 q 381 722 392 781 q 354 600 369 664 q 324 481 339 536 q 394 583 350 532 q 494 667 438 633 q 611 700 550 700 q 705 657 681 700 q 729 550 729 614 q 717 426 729 492 q 692 299 704 360 q 679 199 679 239 q 714 140 679 140 q 741 149 729 140 q 758 169 753 158 l 768 163 q 742 71 768 108 q 674 14 715 33 q 590 -6 633 -6 q 488 33 533 -6 q 442 157 442 71 q 455 263 442 206 q 481 373 468 319 q 493 463 493 426 q 460 510 493 510 q 393 479 429 510 q 330 403 357 449 q 294 313 303 357 q 292 286 292 301 q 302 219 292 251 q 313 144 313 188 q 279 38 313 81 q 181 -6 246 -6 z "},"i":{"ha":451,"x_min":60,"x_max":446,"o":"m 303 743 q 212 777 247 743 q 176 863 176 811 q 218 958 176 918 q 319 999 260 999 q 410 964 375 999 q 446 878 446 929 q 404 783 446 822 q 303 743 363 743 m 206 -6 q 108 33 151 -6 q 65 156 65 71 q 78 247 65 204 q 109 329 92 289 q 140 408 126 369 q 153 483 153 446 q 142 531 153 517 q 115 546 131 546 q 69 515 92 546 l 60 521 q 95 616 65 576 q 169 678 125 656 q 256 700 213 700 q 347 666 308 700 q 386 556 386 632 q 373 459 386 510 q 342 358 360 408 q 312 265 325 308 q 299 192 299 222 q 309 154 299 165 q 332 143 319 143 q 356 151 344 143 q 374 168 368 158 l 383 165 q 356 76 383 114 q 289 16 329 38 q 206 -6 249 -6 z "},"j":{"ha":388,"x_min":-179,"x_max":425,"o":"m 282 743 q 191 777 226 743 q 156 863 156 811 q 197 958 156 918 q 299 999 239 999 q 390 964 354 999 q 425 878 425 929 q 383 783 425 822 q 282 743 342 743 m 11 -278 q -93 -255 -50 -278 q -158 -197 -136 -232 q -179 -125 -179 -162 q -131 -24 -179 -69 q 17 21 -83 21 q -11 -42 -3 -14 q -19 -93 -19 -69 q -6 -146 -19 -128 q 26 -164 8 -164 q 64 -112 57 -164 q 71 26 71 -60 l 71 100 q 81 390 71 247 q 133 664 90 532 q 244 694 179 694 q 321 680 285 694 q 371 635 357 665 q 310 394 332 517 q 268 125 289 272 q 242 -24 257 49 q 202 -153 228 -96 q 131 -244 176 -211 q 11 -278 86 -278 z "},"k":{"ha":772,"x_min":49,"x_max":772,"o":"m 556 -7 q 469 15 510 -7 q 404 78 429 36 q 379 178 379 119 q 408 313 379 238 q 461 347 431 324 q 515 401 492 371 q 539 460 539 431 q 519 501 539 486 q 469 517 499 517 q 401 494 433 517 q 345 437 369 472 q 308 360 321 401 q 294 282 294 319 q 303 215 294 246 q 313 143 313 183 q 279 38 313 81 q 181 -6 246 -6 q 85 35 121 -6 q 49 144 49 75 q 58 240 49 181 q 81 372 67 300 q 108 522 94 444 q 130 670 121 599 q 139 799 139 742 q 135 855 139 829 q 121 896 132 881 l 121 904 q 188 956 151 939 q 258 972 224 972 q 349 935 311 972 q 386 824 386 897 q 376 729 386 785 q 351 613 365 674 q 321 496 336 551 q 390 588 351 540 q 478 667 429 635 q 588 700 526 700 q 699 655 658 700 q 739 547 739 610 q 694 414 739 485 q 543 294 649 343 q 593 222 561 254 q 663 173 625 190 q 735 156 701 156 q 764 161 751 156 l 772 153 q 677 33 738 72 q 556 -7 617 -7 z "},"l":{"ha":425,"x_min":47,"x_max":394,"o":"m 200 -6 q 127 13 163 -6 q 69 74 92 32 q 47 181 47 115 q 63 317 47 239 q 99 481 79 396 q 135 646 119 565 q 149 789 150 726 q 135 874 149 849 l 133 878 q 188 947 149 922 q 269 972 226 972 q 356 935 318 972 q 394 813 394 899 q 383 703 394 767 q 357 569 372 640 q 326 428 342 497 q 299 300 310 358 q 288 204 288 242 q 299 151 288 165 q 324 136 310 136 q 353 148 339 136 q 371 169 367 160 l 382 167 q 353 78 381 117 q 285 17 326 39 q 200 -6 244 -6 z "},"m":{"ha":1160,"x_min":24,"x_max":1135,"o":"m 192 -6 q 102 35 142 -6 q 63 149 63 76 q 72 231 63 185 q 94 326 82 278 q 115 418 106 375 q 125 490 125 461 q 114 528 125 514 q 85 543 103 543 q 33 515 61 543 l 25 521 q 35 574 24 543 q 71 633 46 604 q 136 681 96 661 q 232 700 176 700 q 326 656 294 700 q 357 551 357 613 q 357 537 357 544 q 356 522 357 529 q 417 606 382 565 q 498 673 453 646 q 596 700 543 700 q 690 656 664 700 q 717 557 717 613 q 716 535 717 546 q 714 515 715 525 q 778 601 743 558 q 860 672 814 643 q 965 700 906 700 q 1066 657 1039 700 q 1093 556 1093 614 q 1081 438 1093 504 q 1056 308 1068 372 q 1043 200 1043 244 q 1051 157 1043 174 q 1076 140 1058 140 q 1105 149 1092 140 q 1124 171 1118 158 l 1135 167 q 1106 76 1135 115 q 1032 16 1076 38 q 943 -6 988 -6 q 848 31 889 -6 q 807 150 807 67 q 820 261 807 201 q 847 377 833 321 q 860 469 860 433 q 824 521 860 521 q 772 499 797 521 q 726 442 746 478 q 693 368 706 407 q 681 293 681 329 q 688 220 681 260 q 696 144 696 181 q 656 33 696 72 q 561 -6 615 -6 q 472 28 511 -6 q 432 128 432 61 q 440 202 432 158 q 459 294 449 246 q 478 386 469 342 q 486 464 486 431 q 478 506 486 490 q 449 521 471 521 q 388 489 417 521 q 338 412 358 457 q 310 325 317 367 q 308 310 308 315 q 307 304 307 304 q 317 226 307 261 q 326 153 326 190 q 285 40 326 85 q 192 -6 244 -6 z "},"n":{"ha":818,"x_min":31,"x_max":786,"o":"m 204 -4 q 111 37 153 -4 q 69 151 69 78 q 79 233 69 188 q 101 326 89 279 q 122 415 113 374 q 132 483 132 457 q 121 527 132 511 q 92 543 110 543 q 40 515 68 543 l 32 521 q 42 574 31 543 q 76 633 53 604 q 135 681 99 661 q 221 700 171 700 q 330 658 294 700 q 365 554 365 615 q 361 511 365 532 q 433 598 390 554 q 528 671 476 642 q 636 700 581 700 q 725 658 701 700 q 749 554 749 617 q 736 429 749 496 q 711 301 724 363 q 699 197 699 239 q 731 142 699 142 q 760 152 747 142 q 776 172 772 163 l 786 168 q 758 78 786 117 q 686 17 729 39 q 599 -4 643 -4 q 503 33 544 -4 q 461 156 461 71 q 474 264 461 206 q 500 376 488 322 q 513 465 513 431 q 505 498 513 486 q 478 510 497 510 q 408 481 446 510 q 342 403 369 451 q 315 296 315 354 q 324 224 315 258 q 333 149 333 189 q 294 35 333 74 q 204 -4 256 -4 z "},"o":{"ha":788,"x_min":39,"x_max":749,"o":"m 344 -10 q 172 32 240 -10 q 72 142 104 74 q 39 289 39 211 q 66 436 39 363 q 145 570 93 510 q 272 667 197 631 q 444 704 347 704 q 616 662 549 704 q 716 550 683 619 q 749 401 749 481 q 722 256 749 329 q 644 123 696 183 q 517 26 592 63 q 344 -10 442 -10 m 382 108 q 444 147 419 108 q 482 247 469 186 q 494 369 494 307 q 484 474 494 425 q 453 555 474 524 q 399 586 432 586 q 337 547 363 586 q 299 449 311 508 q 286 325 286 389 q 297 220 286 269 q 328 140 307 171 q 382 108 349 108 z "},"p":{"ha":821,"x_min":32,"x_max":786,"o":"m 169 -278 q 103 -260 135 -278 q 52 -201 72 -242 q 32 -93 32 -161 q 49 49 32 -28 q 89 202 67 125 q 128 349 111 279 q 146 472 146 418 q 135 527 146 513 q 108 542 124 542 q 81 533 94 542 q 57 514 67 525 l 47 519 q 76 609 47 568 q 149 675 104 650 q 240 700 193 700 q 314 677 286 700 q 356 618 342 654 q 374 540 371 582 q 489 664 426 624 q 607 704 551 704 q 734 633 682 704 q 786 414 786 563 q 742 181 786 275 q 630 41 697 88 q 493 -6 563 -6 q 383 30 433 -6 q 304 133 332 65 q 283 21 292 76 q 274 -87 274 -35 q 277 -144 274 -117 q 289 -200 281 -172 l 289 -208 q 238 -260 271 -243 q 169 -278 206 -278 m 425 129 q 483 156 458 129 q 526 224 508 182 q 553 315 544 267 q 563 410 563 364 q 547 509 563 468 q 500 550 532 550 q 410 469 460 550 q 332 222 360 388 q 369 154 344 179 q 425 129 394 129 z "},"q":{"ha":772,"x_min":49,"x_max":758,"o":"m 549 -278 q 467 -249 497 -278 q 426 -174 438 -219 q 414 -79 414 -128 q 424 28 414 -39 q 431 72 426 44 q 442 128 436 100 q 337 28 393 63 q 226 -6 281 -6 q 127 33 167 -6 q 68 135 88 71 q 49 272 49 199 q 68 423 49 347 q 126 563 88 499 q 219 665 164 626 q 347 704 275 704 q 442 683 399 704 q 515 617 486 661 q 516 633 515 625 q 517 646 517 642 q 553 690 517 674 q 635 706 590 706 q 708 690 674 706 q 756 639 743 675 l 758 631 q 735 554 747 606 q 712 436 724 503 q 689 298 700 369 q 670 158 678 226 q 658 38 663 90 q 653 -44 653 -15 q 664 -104 653 -89 q 689 -119 675 -119 q 717 -111 703 -119 q 740 -92 731 -103 l 751 -97 q 721 -186 751 -144 q 644 -253 690 -228 q 549 -278 597 -278 m 336 144 q 420 218 375 144 q 492 422 465 292 q 499 463 497 449 q 503 489 501 478 q 467 544 490 525 q 415 564 443 564 q 356 538 382 564 q 311 472 329 513 q 283 382 293 431 q 274 288 274 333 q 290 187 274 229 q 336 144 306 144 z "},"r":{"ha":654,"x_min":31,"x_max":654,"o":"m 204 -6 q 115 35 154 -6 q 76 151 76 76 q 85 233 76 188 q 104 327 93 279 q 124 417 115 375 q 132 488 132 460 q 122 534 132 517 q 94 551 111 551 q 40 515 68 551 l 32 521 q 42 574 31 543 q 76 633 53 604 q 137 681 100 661 q 224 700 174 700 q 331 658 297 700 q 364 556 364 615 q 363 535 364 546 q 361 515 363 525 q 466 653 411 606 q 568 701 521 701 q 633 667 613 701 q 654 583 654 632 q 637 493 654 539 q 585 417 619 447 q 503 389 551 388 l 497 392 q 474 449 496 428 q 424 469 451 469 q 353 432 386 469 q 321 324 321 394 q 331 231 321 281 q 340 146 340 181 q 321 69 340 104 q 271 15 301 35 q 204 -6 240 -6 z "},"s":{"ha":688,"x_min":22,"x_max":649,"o":"m 278 -12 q 135 11 192 -12 q 50 72 78 35 q 22 146 22 108 q 69 240 22 199 q 197 281 117 281 q 215 167 197 210 q 262 107 233 125 q 317 89 290 89 q 370 108 349 89 q 392 154 392 126 q 351 222 392 193 q 247 288 311 251 q 178 333 215 307 q 114 395 140 358 q 88 483 88 432 q 119 579 88 538 q 201 649 150 621 q 313 692 253 678 q 429 707 372 707 q 590 664 536 707 q 644 572 644 621 q 603 497 644 531 q 475 464 561 464 q 446 567 476 535 q 381 600 415 600 q 339 585 356 600 q 322 540 322 569 q 344 483 322 507 q 398 440 365 458 q 465 404 431 421 q 554 357 513 382 q 622 300 596 332 q 649 222 649 268 q 598 106 649 160 q 463 20 547 53 q 278 -12 378 -12 z "},"t":{"ha":490,"x_min":10,"x_max":479,"o":"m 239 -6 q 155 15 194 -6 q 91 78 115 35 q 67 188 67 121 q 74 282 67 224 q 92 410 81 340 q 117 549 104 479 q 63 543 89 547 q 13 533 38 539 l 10 543 q 68 600 38 576 q 132 639 99 624 q 163 798 150 731 q 175 878 175 865 q 212 917 175 901 q 294 932 249 932 q 370 917 335 932 q 418 865 406 901 q 394 803 410 857 q 363 674 379 750 q 417 671 389 672 q 474 667 444 669 q 478 649 476 658 q 479 628 479 639 q 473 583 479 607 q 458 539 467 558 q 396 545 425 542 q 339 550 367 549 q 319 431 328 490 q 305 322 310 371 q 300 246 300 274 q 322 168 300 188 q 374 149 343 149 q 424 160 401 149 q 456 186 446 171 l 469 182 q 425 83 461 125 q 339 17 389 40 q 239 -6 289 -6 z "},"u":{"ha":818,"x_min":39,"x_max":788,"o":"m 226 -6 q 122 46 164 -6 q 79 183 79 97 q 90 285 79 231 q 113 388 101 339 q 128 455 122 424 q 135 506 135 486 q 124 542 135 531 q 100 553 114 553 q 72 544 86 553 q 50 517 58 535 l 39 521 q 67 618 39 578 q 138 679 94 658 q 225 700 181 700 q 294 685 261 700 q 349 640 328 671 q 371 564 371 610 q 363 497 371 536 q 346 417 356 458 q 327 330 336 374 q 318 253 318 286 q 328 203 318 222 q 357 183 338 183 q 438 250 393 183 q 511 429 483 317 q 521 476 517 451 q 525 528 525 501 q 522 570 525 549 q 514 614 519 592 l 514 624 q 572 681 536 661 q 643 700 607 700 q 731 667 692 700 q 769 569 769 633 q 756 483 769 532 q 725 381 742 433 q 694 279 708 329 q 681 190 681 229 q 721 133 681 133 q 748 140 732 133 q 778 165 764 146 l 788 163 q 760 74 788 113 q 692 15 733 36 q 606 -6 650 -6 q 503 36 549 -6 q 458 172 458 78 l 458 175 q 340 36 401 78 q 226 -6 279 -6 z "},"v":{"ha":771,"x_min":46,"x_max":753,"o":"m 249 -6 q 121 37 168 -6 q 74 168 74 79 q 87 278 74 219 q 113 382 100 336 q 133 460 125 426 q 140 511 140 493 q 131 543 140 533 q 107 553 121 553 q 51 521 74 553 l 46 526 q 76 613 47 574 q 151 676 106 653 q 244 700 197 700 q 335 669 297 700 q 369 571 372 638 q 359 497 368 542 q 335 392 350 453 q 315 303 325 353 q 304 214 304 254 q 314 165 304 183 q 346 147 324 147 q 410 180 375 147 q 472 287 446 213 q 503 485 499 361 q 490 622 507 579 l 490 629 q 528 667 503 649 q 586 697 554 685 q 646 708 618 708 q 722 665 690 708 q 749 515 753 622 q 712 329 746 413 q 624 183 678 246 q 505 79 569 121 q 374 16 440 38 q 249 -6 307 -6 z "},"w":{"ha":1138,"x_min":46,"x_max":1119,"o":"m 238 -6 q 120 37 165 -6 q 75 168 75 79 q 85 262 75 213 q 109 359 96 311 q 132 446 122 407 q 142 508 142 485 q 132 542 142 532 q 108 553 122 553 q 81 544 94 553 q 57 517 67 535 l 46 521 q 78 618 49 578 q 151 679 107 658 q 239 700 194 700 q 308 685 275 700 q 362 641 342 671 q 381 565 382 611 q 369 490 379 535 q 347 395 360 446 q 324 297 333 344 q 314 214 314 250 q 323 165 314 183 q 354 147 332 147 q 417 172 378 147 q 494 244 456 197 q 486 382 486 322 q 531 603 486 535 q 644 671 576 671 q 713 638 694 671 q 731 549 731 604 q 703 394 731 467 q 638 279 675 322 q 663 182 640 217 q 718 147 686 147 q 784 183 750 147 q 843 294 818 219 q 872 485 868 369 q 860 621 874 578 l 860 628 q 922 683 879 660 q 1007 706 964 706 q 1063 688 1038 706 q 1104 624 1089 671 q 1115 490 1119 578 q 1075 276 1111 368 q 983 121 1039 183 q 861 26 926 58 q 732 -6 796 -6 q 600 34 660 -6 q 510 146 540 74 q 381 38 447 81 q 238 -6 315 -6 z "},"x":{"ha":732,"x_min":-17,"x_max":721,"o":"m 89 -10 q 13 22 42 -10 q -17 99 -17 53 q -10 142 -17 119 q 11 186 -3 164 q 61 182 39 182 q 176 215 129 182 q 251 307 224 247 q 164 469 199 424 q 107 515 129 515 q 85 505 94 515 q 65 479 75 494 l 58 482 q 104 642 65 578 q 203 707 143 707 q 276 679 243 707 q 338 608 310 651 q 388 519 365 565 q 428 436 410 472 q 520 639 458 574 q 640 704 582 704 q 702 675 683 704 q 721 604 721 646 q 681 465 721 532 q 660 467 671 467 q 639 468 650 468 q 537 442 583 468 q 461 372 490 417 q 549 230 515 271 q 607 189 582 189 q 644 219 632 189 l 656 215 q 633 104 651 156 q 584 22 615 53 q 507 -10 553 -10 q 420 25 460 -10 q 347 115 381 60 q 285 232 314 169 q 242 94 274 147 q 169 15 210 40 q 89 -10 128 -10 z "},"y":{"ha":728,"x_min":32,"x_max":700,"o":"m 329 -278 q 217 -235 260 -278 q 175 -121 175 -193 q 188 -38 175 -83 q 232 57 201 7 q 120 103 164 61 q 76 229 76 144 q 90 337 76 279 q 115 445 103 394 q 128 524 128 496 q 119 553 128 544 q 100 563 111 563 q 76 553 89 563 q 56 526 63 544 l 32 551 q 68 628 40 594 q 136 681 96 661 q 219 700 176 700 q 304 669 268 700 q 340 556 340 638 q 328 445 340 504 q 303 334 315 386 q 290 251 290 282 q 302 210 290 224 q 329 197 314 197 q 374 219 349 197 q 421 290 399 240 q 450 425 443 340 q 454 492 453 451 q 457 569 456 533 q 458 613 458 604 q 495 683 458 663 q 576 703 532 703 q 650 688 615 703 q 697 636 685 672 l 700 628 q 678 553 688 617 q 657 382 669 489 q 636 225 649 313 q 602 49 624 138 q 545 -113 581 -39 q 457 -233 510 -187 q 329 -278 404 -278 m 296 -118 q 373 -40 339 -118 q 426 183 407 39 q 304 4 338 69 q 271 -90 271 -61 q 296 -118 271 -118 z "},"z":{"ha":843,"x_min":42,"x_max":804,"o":"m 190 -10 q 97 28 136 -7 q 42 153 57 64 q 174 231 108 174 q 305 365 240 289 q 432 513 369 440 q 389 532 410 526 q 350 538 368 538 q 290 517 313 538 q 267 464 267 497 q 289 394 267 433 q 257 390 272 392 q 229 389 242 389 q 100 435 142 389 q 58 536 58 481 q 78 615 58 576 q 139 677 99 653 q 236 701 179 701 q 355 676 289 701 q 500 589 421 650 q 578 665 540 632 q 656 717 617 699 q 765 663 732 704 q 797 576 797 622 q 797 561 797 568 q 794 547 796 554 q 649 455 710 513 q 538 328 589 397 q 425 189 486 260 q 474 159 450 168 q 517 150 497 150 q 578 176 554 150 q 601 236 601 201 q 599 258 601 247 q 590 281 597 269 q 623 285 607 283 q 654 288 639 288 q 768 248 732 288 q 804 157 804 208 q 783 79 804 118 q 722 15 763 40 q 625 -10 682 -10 q 505 19 572 -10 q 358 117 438 49 q 282 50 324 82 q 190 -10 240 18 z "}," ":{"ha":250,"x_min":0,"x_max":0,"o":""},"Á":{"ha":931,"x_min":19,"x_max":903,"o":"m 129 -6 q 53 15 86 -6 q 19 85 19 36 q 52 240 19 161 q 133 397 85 319 q 228 547 181 474 q 309 688 276 621 q 342 811 342 754 q 319 857 342 857 q 285 833 304 857 q 257 761 265 808 l 242 764 q 279 898 242 843 q 375 981 317 953 q 494 1008 433 1008 q 627 968 565 1008 q 713 840 689 928 q 727 763 722 806 q 733 688 732 719 q 735 657 735 657 q 740 467 738 544 q 747 336 742 389 q 763 247 753 283 q 788 191 772 213 q 829 169 804 169 q 870 183 853 169 q 893 210 888 197 l 903 203 q 878 92 903 139 q 813 19 853 44 q 728 -6 772 -6 q 644 20 685 -6 q 572 100 603 46 q 532 240 542 154 q 448 245 489 243 q 374 247 407 247 q 331 247 351 247 q 292 244 311 246 q 272 158 279 201 q 264 72 264 114 q 222 17 264 40 q 129 -6 181 -6 m 338 374 q 411 387 372 383 q 494 390 450 390 l 525 390 q 517 601 522 493 q 482 803 513 710 q 426 593 471 703 q 338 374 382 483 m 467 1057 q 440 1066 449 1057 q 432 1088 432 1075 q 433 1100 432 1096 q 497 1158 464 1119 q 550 1242 529 1197 q 567 1321 571 1286 q 683 1296 647 1322 q 719 1232 719 1269 q 691 1160 719 1197 q 611 1095 663 1124 q 488 1058 560 1067 q 477 1057 482 1057 q 467 1057 472 1057 z "},"Ă":{"ha":931,"x_min":19,"x_max":903,"o":"m 129 -6 q 53 15 86 -6 q 19 85 19 36 q 52 240 19 161 q 133 397 85 319 q 228 547 181 474 q 309 688 276 621 q 342 811 342 754 q 319 857 342 857 q 285 833 304 857 q 257 761 265 808 l 242 764 q 279 898 242 843 q 375 981 317 953 q 494 1008 433 1008 q 627 968 565 1008 q 713 840 689 928 q 727 763 722 806 q 733 688 732 719 q 735 657 735 657 q 740 467 738 544 q 747 336 742 389 q 763 247 753 283 q 788 191 772 213 q 829 169 804 169 q 870 183 853 169 q 893 210 888 197 l 903 203 q 878 92 903 139 q 813 19 853 44 q 728 -6 772 -6 q 644 20 685 -6 q 572 100 603 46 q 532 240 542 154 q 448 245 489 243 q 374 247 407 247 q 331 247 351 247 q 292 244 311 246 q 272 158 279 201 q 264 72 264 114 q 222 17 264 40 q 129 -6 181 -6 m 338 374 q 411 387 372 383 q 494 390 450 390 l 525 390 q 517 601 522 493 q 482 803 513 710 q 426 593 471 703 q 338 374 382 483 m 507 1056 q 376 1085 422 1056 q 319 1157 329 1115 q 328 1235 308 1199 q 396 1286 349 1272 q 403 1279 408 1289 q 424 1239 397 1253 q 492 1222 450 1225 q 578 1226 535 1219 q 652 1247 622 1232 q 682 1285 682 1263 q 690 1290 682 1293 q 749 1238 739 1275 q 733 1158 758 1200 q 651 1085 708 1115 q 507 1056 593 1056 z "},"Ắ":{"ha":931,"x_min":19,"x_max":903,"o":"m 129 -6 q 53 15 86 -6 q 19 85 19 36 q 52 240 19 161 q 133 397 85 319 q 228 547 181 474 q 309 688 276 621 q 342 811 342 754 q 319 857 342 857 q 285 833 304 857 q 257 761 265 808 l 242 764 q 279 898 242 843 q 375 981 317 953 q 494 1008 433 1008 q 627 968 565 1008 q 713 840 689 928 q 727 763 722 806 q 733 688 732 719 q 735 657 735 657 q 740 467 738 544 q 747 336 742 389 q 763 247 753 283 q 788 191 772 213 q 829 169 804 169 q 870 183 853 169 q 893 210 888 197 l 903 203 q 878 92 903 139 q 813 19 853 44 q 728 -6 772 -6 q 644 20 685 -6 q 572 100 603 46 q 532 240 542 154 q 448 245 489 243 q 374 247 407 247 q 331 247 351 247 q 292 244 311 246 q 272 158 279 201 q 264 72 264 114 q 222 17 264 40 q 129 -6 181 -6 m 338 374 q 411 387 372 383 q 494 390 450 390 l 525 390 q 517 601 522 493 q 482 803 513 710 q 426 593 471 703 q 338 374 382 483 m 507 1056 q 376 1085 422 1056 q 319 1157 329 1115 q 328 1235 308 1199 q 396 1286 349 1272 q 403 1279 408 1289 q 424 1239 397 1253 q 492 1222 450 1225 q 578 1226 535 1219 q 652 1247 622 1232 q 682 1285 682 1263 q 690 1290 682 1293 q 749 1238 739 1275 q 733 1158 758 1200 q 651 1085 708 1115 q 507 1056 593 1056 m 518 1303 q 492 1312 500 1303 q 483 1333 483 1321 q 485 1346 483 1342 q 548 1404 515 1365 q 601 1488 581 1443 q 618 1567 622 1532 q 735 1542 699 1568 q 771 1478 771 1515 q 742 1406 771 1443 q 663 1341 714 1369 q 539 1304 611 1313 q 528 1303 533 1303 q 518 1303 524 1303 z "},"Ặ":{"ha":931,"x_min":19,"x_max":903,"o":"m 129 -6 q 53 15 86 -6 q 19 85 19 36 q 52 240 19 161 q 133 397 85 319 q 228 547 181 474 q 309 688 276 621 q 342 811 342 754 q 319 857 342 857 q 285 833 304 857 q 257 761 265 808 l 242 764 q 279 898 242 843 q 375 981 317 953 q 494 1008 433 1008 q 627 968 565 1008 q 713 840 689 928 q 727 763 722 806 q 733 688 732 719 q 735 657 735 657 q 740 467 738 544 q 747 336 742 389 q 763 247 753 283 q 788 191 772 213 q 829 169 804 169 q 870 183 853 169 q 893 210 888 197 l 903 203 q 878 92 903 139 q 813 19 853 44 q 728 -6 772 -6 q 644 20 685 -6 q 572 100 603 46 q 532 240 542 154 q 448 245 489 243 q 374 247 407 247 q 331 247 351 247 q 292 244 311 246 q 272 158 279 201 q 264 72 264 114 q 222 17 264 40 q 129 -6 181 -6 m 338 374 q 411 387 372 383 q 494 390 450 390 l 525 390 q 517 601 522 493 q 482 803 513 710 q 426 593 471 703 q 338 374 382 483 m 390 -319 q 312 -285 343 -319 q 283 -199 281 -250 q 327 -101 288 -142 q 418 -60 367 -60 q 498 -94 467 -60 q 526 -181 529 -129 q 483 -279 522 -239 q 390 -319 443 -319 m 507 1056 q 376 1085 422 1056 q 319 1157 329 1115 q 328 1235 308 1199 q 396 1286 349 1272 q 403 1279 408 1289 q 424 1239 397 1253 q 492 1222 450 1225 q 578 1226 535 1219 q 652 1247 622 1232 q 682 1285 682 1263 q 690 1290 682 1293 q 749 1238 739 1275 q 733 1158 758 1200 q 651 1085 708 1115 q 507 1056 593 1056 z "},"Ằ":{"ha":931,"x_min":19,"x_max":903,"o":"m 129 -6 q 53 15 86 -6 q 19 85 19 36 q 52 240 19 161 q 133 397 85 319 q 228 547 181 474 q 309 688 276 621 q 342 811 342 754 q 319 857 342 857 q 285 833 304 857 q 257 761 265 808 l 242 764 q 279 898 242 843 q 375 981 317 953 q 494 1008 433 1008 q 627 968 565 1008 q 713 840 689 928 q 727 763 722 806 q 733 688 732 719 q 735 657 735 657 q 740 467 738 544 q 747 336 742 389 q 763 247 753 283 q 788 191 772 213 q 829 169 804 169 q 870 183 853 169 q 893 210 888 197 l 903 203 q 878 92 903 139 q 813 19 853 44 q 728 -6 772 -6 q 644 20 685 -6 q 572 100 603 46 q 532 240 542 154 q 448 245 489 243 q 374 247 407 247 q 331 247 351 247 q 292 244 311 246 q 272 158 279 201 q 264 72 264 114 q 222 17 264 40 q 129 -6 181 -6 m 338 374 q 411 387 372 383 q 494 390 450 390 l 525 390 q 517 601 522 493 q 482 803 513 710 q 426 593 471 703 q 338 374 382 483 m 507 1056 q 376 1085 422 1056 q 319 1157 329 1115 q 328 1235 308 1199 q 396 1286 349 1272 q 403 1279 408 1289 q 424 1239 397 1253 q 492 1222 450 1225 q 578 1226 535 1219 q 652 1247 622 1232 q 682 1285 682 1263 q 690 1290 682 1293 q 749 1238 739 1275 q 733 1158 758 1200 q 651 1085 708 1115 q 507 1056 593 1056 m 621 1299 q 610 1299 615 1299 q 593 1300 604 1299 q 474 1337 525 1308 q 396 1402 424 1365 q 368 1474 368 1439 q 404 1538 368 1511 q 521 1563 440 1564 q 538 1483 517 1528 q 591 1400 558 1439 q 654 1342 624 1361 q 656 1329 656 1338 q 648 1308 656 1317 q 621 1299 640 1299 z "},"Ẳ":{"ha":931,"x_min":19,"x_max":903,"o":"m 129 -6 q 53 15 86 -6 q 19 85 19 36 q 52 240 19 161 q 133 397 85 319 q 228 547 181 474 q 309 688 276 621 q 342 811 342 754 q 319 857 342 857 q 285 833 304 857 q 257 761 265 808 l 242 764 q 279 898 242 843 q 375 981 317 953 q 494 1008 433 1008 q 627 968 565 1008 q 713 840 689 928 q 727 763 722 806 q 733 688 732 719 q 735 657 735 657 q 740 467 738 544 q 747 336 742 389 q 763 247 753 283 q 788 191 772 213 q 829 169 804 169 q 870 183 853 169 q 893 210 888 197 l 903 203 q 878 92 903 139 q 813 19 853 44 q 728 -6 772 -6 q 644 20 685 -6 q 572 100 603 46 q 532 240 542 154 q 448 245 489 243 q 374 247 407 247 q 331 247 351 247 q 292 244 311 246 q 272 158 279 201 q 264 72 264 114 q 222 17 264 40 q 129 -6 181 -6 m 338 374 q 411 387 372 383 q 494 390 450 390 l 525 390 q 517 601 522 493 q 482 803 513 710 q 426 593 471 703 q 338 374 382 483 m 507 1056 q 376 1085 422 1056 q 319 1157 329 1115 q 328 1235 308 1199 q 396 1286 349 1272 q 403 1279 408 1289 q 424 1239 397 1253 q 492 1222 450 1225 q 578 1226 535 1219 q 652 1247 622 1232 q 682 1285 682 1263 q 690 1290 682 1293 q 749 1238 739 1275 q 733 1158 758 1200 q 651 1085 708 1115 q 507 1056 593 1056 m 558 1315 q 510 1324 531 1315 q 489 1351 489 1333 q 517 1391 489 1375 q 582 1419 544 1407 q 647 1443 619 1432 q 675 1467 675 1454 q 632 1483 675 1483 q 559 1469 601 1483 q 478 1419 517 1456 q 422 1499 422 1457 q 451 1557 422 1531 q 529 1599 481 1583 q 633 1615 578 1615 q 758 1585 707 1615 q 810 1503 810 1556 q 783 1436 810 1463 q 720 1392 756 1410 q 657 1360 685 1374 q 629 1329 629 1346 q 595 1319 614 1322 q 558 1315 576 1315 z "},"Ẵ":{"ha":931,"x_min":19,"x_max":903,"o":"m 129 -6 q 53 15 86 -6 q 19 85 19 36 q 52 240 19 161 q 133 397 85 319 q 228 547 181 474 q 309 688 276 621 q 342 811 342 754 q 319 857 342 857 q 285 833 304 857 q 257 761 265 808 l 242 764 q 279 898 242 843 q 375 981 317 953 q 494 1008 433 1008 q 627 968 565 1008 q 713 840 689 928 q 727 763 722 806 q 733 688 732 719 q 735 657 735 657 q 740 467 738 544 q 747 336 742 389 q 763 247 753 283 q 788 191 772 213 q 829 169 804 169 q 870 183 853 169 q 893 210 888 197 l 903 203 q 878 92 903 139 q 813 19 853 44 q 728 -6 772 -6 q 644 20 685 -6 q 572 100 603 46 q 532 240 542 154 q 448 245 489 243 q 374 247 407 247 q 331 247 351 247 q 292 244 311 246 q 272 158 279 201 q 264 72 264 114 q 222 17 264 40 q 129 -6 181 -6 m 338 374 q 411 387 372 383 q 494 390 450 390 l 525 390 q 517 601 522 493 q 482 803 513 710 q 426 593 471 703 q 338 374 382 483 m 507 1056 q 376 1085 422 1056 q 319 1157 329 1115 q 328 1235 308 1199 q 396 1286 349 1272 q 403 1279 408 1289 q 424 1239 397 1253 q 492 1222 450 1225 q 578 1226 535 1219 q 652 1247 622 1232 q 682 1285 682 1263 q 690 1290 682 1293 q 749 1238 739 1275 q 733 1158 758 1200 q 651 1085 708 1115 q 507 1056 593 1056 m 310 1301 q 297 1356 297 1329 q 347 1455 297 1413 q 474 1497 397 1497 q 547 1488 513 1497 q 616 1469 582 1479 q 685 1460 650 1460 q 746 1470 714 1460 q 817 1510 778 1481 q 838 1436 838 1472 q 794 1349 838 1385 q 657 1313 751 1313 q 563 1322 606 1313 q 485 1341 521 1332 q 415 1350 449 1350 q 363 1340 389 1350 q 310 1301 338 1329 z "},"Ǎ":{"ha":931,"x_min":19,"x_max":903,"o":"m 129 -6 q 53 15 86 -6 q 19 85 19 36 q 52 240 19 161 q 133 397 85 319 q 228 547 181 474 q 309 688 276 621 q 342 811 342 754 q 319 857 342 857 q 285 833 304 857 q 257 761 265 808 l 242 764 q 279 898 242 843 q 375 981 317 953 q 494 1008 433 1008 q 627 968 565 1008 q 713 840 689 928 q 727 763 722 806 q 733 688 732 719 q 735 657 735 657 q 740 467 738 544 q 747 336 742 389 q 763 247 753 283 q 788 191 772 213 q 829 169 804 169 q 870 183 853 169 q 893 210 888 197 l 903 203 q 878 92 903 139 q 813 19 853 44 q 728 -6 772 -6 q 644 20 685 -6 q 572 100 603 46 q 532 240 542 154 q 448 245 489 243 q 374 247 407 247 q 331 247 351 247 q 292 244 311 246 q 272 158 279 201 q 264 72 264 114 q 222 17 264 40 q 129 -6 181 -6 m 338 374 q 411 387 372 383 q 494 390 450 390 l 525 390 q 517 601 522 493 q 482 803 513 710 q 426 593 471 703 q 338 374 382 483 m 501 1063 q 428 1088 465 1063 q 363 1155 392 1114 q 321 1240 333 1196 q 334 1291 313 1274 q 383 1303 356 1308 q 468 1242 432 1265 q 529 1218 504 1218 q 610 1242 556 1218 q 728 1299 664 1267 q 757 1299 742 1304 q 778 1281 772 1294 q 772 1244 785 1267 q 719 1178 753 1211 q 647 1120 686 1146 q 569 1078 607 1094 q 501 1063 531 1063 z "},"Â":{"ha":931,"x_min":19,"x_max":903,"o":"m 129 -6 q 53 15 86 -6 q 19 85 19 36 q 52 240 19 161 q 133 397 85 319 q 228 547 181 474 q 309 688 276 621 q 342 811 342 754 q 319 857 342 857 q 285 833 304 857 q 257 761 265 808 l 242 764 q 279 898 242 843 q 375 981 317 953 q 494 1008 433 1008 q 627 968 565 1008 q 713 840 689 928 q 727 763 722 806 q 733 688 732 719 q 735 657 735 657 q 740 467 738 544 q 747 336 742 389 q 763 247 753 283 q 788 191 772 213 q 829 169 804 169 q 870 183 853 169 q 893 210 888 197 l 903 203 q 878 92 903 139 q 813 19 853 44 q 728 -6 772 -6 q 644 20 685 -6 q 572 100 603 46 q 532 240 542 154 q 448 245 489 243 q 374 247 407 247 q 331 247 351 247 q 292 244 311 246 q 272 158 279 201 q 264 72 264 114 q 222 17 264 40 q 129 -6 181 -6 m 338 374 q 411 387 372 383 q 494 390 450 390 l 525 390 q 517 601 522 493 q 482 803 513 710 q 426 593 471 703 q 338 374 382 483 m 325 1046 q 277 1057 293 1040 q 272 1099 261 1074 q 353 1205 301 1161 q 460 1272 404 1249 q 556 1296 515 1296 q 632 1268 590 1296 q 708 1197 674 1240 q 750 1106 742 1153 q 737 1057 757 1071 q 685 1049 717 1043 q 631 1085 661 1068 q 572 1113 600 1101 q 528 1124 544 1124 q 478 1113 511 1124 q 404 1085 444 1103 q 325 1046 364 1068 z "},"Ấ":{"ha":931,"x_min":19,"x_max":993,"o":"m 129 -6 q 53 15 86 -6 q 19 85 19 36 q 52 240 19 161 q 133 397 85 319 q 228 547 181 474 q 309 688 276 621 q 342 811 342 754 q 319 857 342 857 q 285 833 304 857 q 257 761 265 808 l 242 764 q 279 898 242 843 q 375 981 317 953 q 494 1008 433 1008 q 627 968 565 1008 q 713 840 689 928 q 727 763 722 806 q 733 688 732 719 q 735 657 735 657 q 740 467 738 544 q 747 336 742 389 q 763 247 753 283 q 788 191 772 213 q 829 169 804 169 q 870 183 853 169 q 893 210 888 197 l 903 203 q 878 92 903 139 q 813 19 853 44 q 728 -6 772 -6 q 644 20 685 -6 q 572 100 603 46 q 532 240 542 154 q 448 245 489 243 q 374 247 407 247 q 331 247 351 247 q 292 244 311 246 q 272 158 279 201 q 264 72 264 114 q 222 17 264 40 q 129 -6 181 -6 m 338 374 q 411 387 372 383 q 494 390 450 390 l 525 390 q 517 601 522 493 q 482 803 513 710 q 426 593 471 703 q 338 374 382 483 m 325 1046 q 277 1057 293 1040 q 272 1099 261 1074 q 353 1205 301 1161 q 460 1272 404 1249 q 556 1296 515 1296 q 632 1268 590 1296 q 708 1197 674 1240 q 750 1106 742 1153 q 737 1057 757 1071 q 685 1049 717 1043 q 631 1085 661 1068 q 572 1113 600 1101 q 528 1124 544 1124 q 478 1113 511 1124 q 404 1085 444 1103 q 325 1046 364 1068 m 740 1228 q 714 1237 722 1228 q 706 1258 706 1246 q 707 1271 706 1267 q 770 1329 738 1290 q 824 1413 803 1368 q 840 1492 844 1457 q 957 1467 921 1493 q 993 1403 993 1440 q 965 1331 993 1368 q 885 1266 936 1294 q 761 1229 833 1238 q 751 1228 756 1228 q 740 1228 746 1228 z "},"Ậ":{"ha":931,"x_min":19,"x_max":903,"o":"m 129 -6 q 53 15 86 -6 q 19 85 19 36 q 52 240 19 161 q 133 397 85 319 q 228 547 181 474 q 309 688 276 621 q 342 811 342 754 q 319 857 342 857 q 285 833 304 857 q 257 761 265 808 l 242 764 q 279 898 242 843 q 375 981 317 953 q 494 1008 433 1008 q 627 968 565 1008 q 713 840 689 928 q 727 763 722 806 q 733 688 732 719 q 735 657 735 657 q 740 467 738 544 q 747 336 742 389 q 763 247 753 283 q 788 191 772 213 q 829 169 804 169 q 870 183 853 169 q 893 210 888 197 l 903 203 q 878 92 903 139 q 813 19 853 44 q 728 -6 772 -6 q 644 20 685 -6 q 572 100 603 46 q 532 240 542 154 q 448 245 489 243 q 374 247 407 247 q 331 247 351 247 q 292 244 311 246 q 272 158 279 201 q 264 72 264 114 q 222 17 264 40 q 129 -6 181 -6 m 338 374 q 411 387 372 383 q 494 390 450 390 l 525 390 q 517 601 522 493 q 482 803 513 710 q 426 593 471 703 q 338 374 382 483 m 390 -319 q 312 -285 343 -319 q 283 -199 281 -250 q 327 -101 288 -142 q 418 -60 367 -60 q 498 -94 467 -60 q 526 -181 529 -129 q 483 -279 522 -239 q 390 -319 443 -319 m 325 1046 q 277 1057 293 1040 q 272 1099 261 1074 q 353 1205 301 1161 q 460 1272 404 1249 q 556 1296 515 1296 q 632 1268 590 1296 q 708 1197 674 1240 q 750 1106 742 1153 q 737 1057 757 1071 q 685 1049 717 1043 q 631 1085 661 1068 q 572 1113 600 1101 q 528 1124 544 1124 q 478 1113 511 1124 q 404 1085 444 1103 q 325 1046 364 1068 z "},"Ầ":{"ha":931,"x_min":19,"x_max":903,"o":"m 129 -6 q 53 15 86 -6 q 19 85 19 36 q 52 240 19 161 q 133 397 85 319 q 228 547 181 474 q 309 688 276 621 q 342 811 342 754 q 319 857 342 857 q 285 833 304 857 q 257 761 265 808 l 242 764 q 279 898 242 843 q 375 981 317 953 q 494 1008 433 1008 q 627 968 565 1008 q 713 840 689 928 q 727 763 722 806 q 733 688 732 719 q 735 657 735 657 q 740 467 738 544 q 747 336 742 389 q 763 247 753 283 q 788 191 772 213 q 829 169 804 169 q 870 183 853 169 q 893 210 888 197 l 903 203 q 878 92 903 139 q 813 19 853 44 q 728 -6 772 -6 q 644 20 685 -6 q 572 100 603 46 q 532 240 542 154 q 448 245 489 243 q 374 247 407 247 q 331 247 351 247 q 292 244 311 246 q 272 158 279 201 q 264 72 264 114 q 222 17 264 40 q 129 -6 181 -6 m 338 374 q 411 387 372 383 q 494 390 450 390 l 525 390 q 517 601 522 493 q 482 803 513 710 q 426 593 471 703 q 338 374 382 483 m 325 1046 q 277 1057 293 1040 q 272 1099 261 1074 q 353 1205 301 1161 q 460 1272 404 1249 q 556 1296 515 1296 q 632 1268 590 1296 q 708 1197 674 1240 q 750 1106 742 1153 q 737 1057 757 1071 q 685 1049 717 1043 q 631 1085 661 1068 q 572 1113 600 1101 q 528 1124 544 1124 q 478 1113 511 1124 q 404 1085 444 1103 q 325 1046 364 1068 m 853 1224 q 842 1224 847 1224 q 825 1225 836 1224 q 706 1262 757 1233 q 628 1327 656 1290 q 600 1399 600 1364 q 636 1463 600 1436 q 753 1488 672 1489 q 769 1408 749 1453 q 823 1325 790 1364 q 886 1267 856 1286 q 888 1254 888 1263 q 880 1233 888 1242 q 853 1224 872 1224 z "},"Ẩ":{"ha":931,"x_min":19,"x_max":1081,"o":"m 129 -6 q 53 15 86 -6 q 19 85 19 36 q 52 240 19 161 q 133 397 85 319 q 228 547 181 474 q 309 688 276 621 q 342 811 342 754 q 319 857 342 857 q 285 833 304 857 q 257 761 265 808 l 242 764 q 279 898 242 843 q 375 981 317 953 q 494 1008 433 1008 q 627 968 565 1008 q 713 840 689 928 q 727 763 722 806 q 733 688 732 719 q 735 657 735 657 q 740 467 738 544 q 747 336 742 389 q 763 247 753 283 q 788 191 772 213 q 829 169 804 169 q 870 183 853 169 q 893 210 888 197 l 903 203 q 878 92 903 139 q 813 19 853 44 q 728 -6 772 -6 q 644 20 685 -6 q 572 100 603 46 q 532 240 542 154 q 448 245 489 243 q 374 247 407 247 q 331 247 351 247 q 292 244 311 246 q 272 158 279 201 q 264 72 264 114 q 222 17 264 40 q 129 -6 181 -6 m 338 374 q 411 387 372 383 q 494 390 450 390 l 525 390 q 517 601 522 493 q 482 803 513 710 q 426 593 471 703 q 338 374 382 483 m 325 1046 q 277 1057 293 1040 q 272 1099 261 1074 q 353 1205 301 1161 q 460 1272 404 1249 q 556 1296 515 1296 q 632 1268 590 1296 q 708 1197 674 1240 q 750 1106 742 1153 q 737 1057 757 1071 q 685 1049 717 1043 q 631 1085 661 1068 q 572 1113 600 1101 q 528 1124 544 1124 q 478 1113 511 1124 q 404 1085 444 1103 q 325 1046 364 1068 m 829 1143 q 781 1152 801 1143 q 760 1179 760 1161 q 788 1219 760 1203 q 853 1247 815 1235 q 918 1271 890 1260 q 946 1294 946 1282 q 903 1311 946 1311 q 830 1297 872 1311 q 749 1247 788 1283 q 693 1326 693 1285 q 722 1385 693 1358 q 800 1427 751 1411 q 904 1443 849 1443 q 1029 1413 978 1443 q 1081 1331 1081 1383 q 1053 1264 1081 1290 q 991 1219 1026 1238 q 928 1188 956 1201 q 900 1157 900 1174 q 866 1147 885 1150 q 829 1143 847 1143 z "},"Ẫ":{"ha":931,"x_min":19,"x_max":903,"o":"m 129 -6 q 53 15 86 -6 q 19 85 19 36 q 52 240 19 161 q 133 397 85 319 q 228 547 181 474 q 309 688 276 621 q 342 811 342 754 q 319 857 342 857 q 285 833 304 857 q 257 761 265 808 l 242 764 q 279 898 242 843 q 375 981 317 953 q 494 1008 433 1008 q 627 968 565 1008 q 713 840 689 928 q 727 763 722 806 q 733 688 732 719 q 735 657 735 657 q 740 467 738 544 q 747 336 742 389 q 763 247 753 283 q 788 191 772 213 q 829 169 804 169 q 870 183 853 169 q 893 210 888 197 l 903 203 q 878 92 903 139 q 813 19 853 44 q 728 -6 772 -6 q 644 20 685 -6 q 572 100 603 46 q 532 240 542 154 q 448 245 489 243 q 374 247 407 247 q 331 247 351 247 q 292 244 311 246 q 272 158 279 201 q 264 72 264 114 q 222 17 264 40 q 129 -6 181 -6 m 338 374 q 411 387 372 383 q 494 390 450 390 l 525 390 q 517 601 522 493 q 482 803 513 710 q 426 593 471 703 q 338 374 382 483 m 325 1046 q 277 1057 293 1040 q 272 1099 261 1074 q 353 1205 301 1161 q 460 1272 404 1249 q 556 1296 515 1296 q 632 1268 590 1296 q 708 1197 674 1240 q 750 1106 742 1153 q 737 1057 757 1071 q 685 1049 717 1043 q 631 1085 661 1068 q 572 1113 600 1101 q 528 1124 544 1124 q 478 1113 511 1124 q 404 1085 444 1103 q 325 1046 364 1068 m 285 1301 q 272 1356 272 1329 q 322 1455 272 1413 q 449 1497 372 1497 q 522 1488 488 1497 q 591 1469 557 1479 q 660 1460 625 1460 q 721 1470 689 1460 q 792 1510 753 1481 q 813 1436 813 1472 q 769 1349 813 1385 q 632 1313 726 1313 q 538 1322 581 1313 q 460 1341 496 1332 q 390 1350 424 1350 q 338 1340 364 1350 q 285 1301 313 1329 z "},"Ȁ":{"ha":931,"x_min":19,"x_max":903,"o":"m 129 -6 q 53 15 86 -6 q 19 85 19 36 q 52 240 19 161 q 133 397 85 319 q 228 547 181 474 q 309 688 276 621 q 342 811 342 754 q 319 857 342 857 q 285 833 304 857 q 257 761 265 808 l 242 764 q 279 898 242 843 q 375 981 317 953 q 494 1008 433 1008 q 627 968 565 1008 q 713 840 689 928 q 727 763 722 806 q 733 688 732 719 q 735 657 735 657 q 740 467 738 544 q 747 336 742 389 q 763 247 753 283 q 788 191 772 213 q 829 169 804 169 q 870 183 853 169 q 893 210 888 197 l 903 203 q 878 92 903 139 q 813 19 853 44 q 728 -6 772 -6 q 644 20 685 -6 q 572 100 603 46 q 532 240 542 154 q 448 245 489 243 q 374 247 407 247 q 331 247 351 247 q 292 244 311 246 q 272 158 279 201 q 264 72 264 114 q 222 17 264 40 q 129 -6 181 -6 m 338 374 q 411 387 372 383 q 494 390 450 390 l 525 390 q 517 601 522 493 q 482 803 513 710 q 426 593 471 703 q 338 374 382 483 m 436 1046 q 399 1051 417 1046 q 253 1130 297 1082 q 208 1219 208 1178 q 239 1285 208 1258 q 325 1311 269 1311 q 386 1303 353 1311 q 403 1233 390 1274 q 434 1156 417 1193 q 467 1094 451 1118 q 476 1071 476 1083 q 465 1053 476 1060 q 436 1046 454 1046 m 693 1046 q 660 1051 676 1046 q 517 1135 563 1085 q 472 1226 472 1185 q 501 1287 472 1263 q 582 1311 531 1311 q 647 1303 613 1311 q 664 1233 651 1274 q 694 1156 676 1193 q 726 1094 711 1118 q 735 1074 735 1085 q 723 1053 735 1061 q 693 1046 711 1046 z "},"Ä":{"ha":931,"x_min":19,"x_max":903,"o":"m 129 -6 q 53 15 86 -6 q 19 85 19 36 q 52 240 19 161 q 133 397 85 319 q 228 547 181 474 q 309 688 276 621 q 342 811 342 754 q 319 857 342 857 q 285 833 304 857 q 257 761 265 808 l 242 764 q 279 898 242 843 q 375 981 317 953 q 494 1008 433 1008 q 627 968 565 1008 q 713 840 689 928 q 727 763 722 806 q 733 688 732 719 q 735 657 735 657 q 740 467 738 544 q 747 336 742 389 q 763 247 753 283 q 788 191 772 213 q 829 169 804 169 q 870 183 853 169 q 893 210 888 197 l 903 203 q 878 92 903 139 q 813 19 853 44 q 728 -6 772 -6 q 644 20 685 -6 q 572 100 603 46 q 532 240 542 154 q 448 245 489 243 q 374 247 407 247 q 331 247 351 247 q 292 244 311 246 q 272 158 279 201 q 264 72 264 114 q 222 17 264 40 q 129 -6 181 -6 m 338 374 q 411 387 372 383 q 494 390 450 390 l 525 390 q 517 601 522 493 q 482 803 513 710 q 426 593 471 703 q 338 374 382 483 m 635 1056 q 558 1083 586 1056 q 535 1153 531 1110 q 573 1238 538 1206 q 661 1271 608 1271 q 738 1243 710 1271 q 764 1171 767 1215 q 726 1088 763 1119 q 635 1056 690 1056 m 372 1056 q 296 1083 324 1056 q 271 1153 268 1110 q 308 1238 274 1206 q 399 1271 343 1271 q 475 1243 447 1271 q 500 1171 503 1215 q 461 1088 497 1119 q 372 1056 425 1056 z "},"Ǟ":{"ha":931,"x_min":19,"x_max":903,"o":"m 129 -6 q 53 15 86 -6 q 19 85 19 36 q 52 240 19 161 q 133 397 85 319 q 228 547 181 474 q 309 688 276 621 q 342 811 342 754 q 319 857 342 857 q 285 833 304 857 q 257 761 265 808 l 242 764 q 279 898 242 843 q 375 981 317 953 q 494 1008 433 1008 q 627 968 565 1008 q 713 840 689 928 q 727 763 722 806 q 733 688 732 719 q 735 657 735 657 q 740 467 738 544 q 747 336 742 389 q 763 247 753 283 q 788 191 772 213 q 829 169 804 169 q 870 183 853 169 q 893 210 888 197 l 903 203 q 878 92 903 139 q 813 19 853 44 q 728 -6 772 -6 q 644 20 685 -6 q 572 100 603 46 q 532 240 542 154 q 448 245 489 243 q 374 247 407 247 q 331 247 351 247 q 292 244 311 246 q 272 158 279 201 q 264 72 264 114 q 222 17 264 40 q 129 -6 181 -6 m 338 374 q 411 387 372 383 q 494 390 450 390 l 525 390 q 517 601 522 493 q 482 803 513 710 q 426 593 471 703 q 338 374 382 483 m 635 1056 q 558 1083 586 1056 q 535 1153 531 1110 q 573 1238 538 1206 q 661 1271 608 1271 q 738 1243 710 1271 q 764 1171 767 1215 q 726 1088 763 1119 q 635 1056 690 1056 m 372 1056 q 296 1083 324 1056 q 271 1153 268 1110 q 308 1238 274 1206 q 399 1271 343 1271 q 475 1243 447 1271 q 500 1171 503 1215 q 461 1088 497 1119 q 372 1056 425 1056 m 299 1300 q 288 1329 290 1315 q 285 1356 285 1343 q 325 1429 285 1400 q 454 1458 365 1458 q 515 1458 469 1458 q 611 1457 561 1457 q 706 1459 663 1457 q 772 1469 750 1461 q 796 1399 796 1435 q 757 1335 796 1360 q 611 1310 718 1310 q 549 1310 592 1310 q 465 1311 506 1311 q 368 1309 410 1311 q 299 1300 326 1307 z "},"Ȧ":{"ha":931,"x_min":19,"x_max":903,"o":"m 129 -6 q 53 15 86 -6 q 19 85 19 36 q 52 240 19 161 q 133 397 85 319 q 228 547 181 474 q 309 688 276 621 q 342 811 342 754 q 319 857 342 857 q 285 833 304 857 q 257 761 265 808 l 242 764 q 279 898 242 843 q 375 981 317 953 q 494 1008 433 1008 q 627 968 565 1008 q 713 840 689 928 q 727 763 722 806 q 733 688 732 719 q 735 657 735 657 q 740 467 738 544 q 747 336 742 389 q 763 247 753 283 q 788 191 772 213 q 829 169 804 169 q 870 183 853 169 q 893 210 888 197 l 903 203 q 878 92 903 139 q 813 19 853 44 q 728 -6 772 -6 q 644 20 685 -6 q 572 100 603 46 q 532 240 542 154 q 448 245 489 243 q 374 247 407 247 q 331 247 351 247 q 292 244 311 246 q 272 158 279 201 q 264 72 264 114 q 222 17 264 40 q 129 -6 181 -6 m 338 374 q 411 387 372 383 q 494 390 450 390 l 525 390 q 517 601 522 493 q 482 803 513 710 q 426 593 471 703 q 338 374 382 483 m 503 1056 q 428 1083 456 1056 q 401 1156 400 1111 q 442 1239 406 1207 q 531 1271 478 1271 q 608 1243 579 1271 q 633 1171 636 1215 q 593 1088 629 1119 q 503 1056 557 1056 z "},"Ạ":{"ha":931,"x_min":19,"x_max":903,"o":"m 129 -6 q 53 15 86 -6 q 19 85 19 36 q 52 240 19 161 q 133 397 85 319 q 228 547 181 474 q 309 688 276 621 q 342 811 342 754 q 319 857 342 857 q 285 833 304 857 q 257 761 265 808 l 242 764 q 279 898 242 843 q 375 981 317 953 q 494 1008 433 1008 q 627 968 565 1008 q 713 840 689 928 q 727 763 722 806 q 733 688 732 719 q 735 657 735 657 q 740 467 738 544 q 747 336 742 389 q 763 247 753 283 q 788 191 772 213 q 829 169 804 169 q 870 183 853 169 q 893 210 888 197 l 903 203 q 878 92 903 139 q 813 19 853 44 q 728 -6 772 -6 q 644 20 685 -6 q 572 100 603 46 q 532 240 542 154 q 448 245 489 243 q 374 247 407 247 q 331 247 351 247 q 292 244 311 246 q 272 158 279 201 q 264 72 264 114 q 222 17 264 40 q 129 -6 181 -6 m 338 374 q 411 387 372 383 q 494 390 450 390 l 525 390 q 517 601 522 493 q 482 803 513 710 q 426 593 471 703 q 338 374 382 483 m 390 -319 q 312 -285 343 -319 q 283 -199 281 -250 q 327 -101 288 -142 q 418 -60 367 -60 q 498 -94 467 -60 q 526 -181 529 -129 q 483 -279 522 -239 q 390 -319 443 -319 z "},"Ǡ":{"ha":931,"x_min":19,"x_max":903,"o":"m 129 -6 q 53 15 86 -6 q 19 85 19 36 q 52 240 19 161 q 133 397 85 319 q 228 547 181 474 q 309 688 276 621 q 342 811 342 754 q 319 857 342 857 q 285 833 304 857 q 257 761 265 808 l 242 764 q 279 898 242 843 q 375 981 317 953 q 494 1008 433 1008 q 627 968 565 1008 q 713 840 689 928 q 727 763 722 806 q 733 688 732 719 q 735 657 735 657 q 740 467 738 544 q 747 336 742 389 q 763 247 753 283 q 788 191 772 213 q 829 169 804 169 q 870 183 853 169 q 893 210 888 197 l 903 203 q 878 92 903 139 q 813 19 853 44 q 728 -6 772 -6 q 644 20 685 -6 q 572 100 603 46 q 532 240 542 154 q 448 245 489 243 q 374 247 407 247 q 331 247 351 247 q 292 244 311 246 q 272 158 279 201 q 264 72 264 114 q 222 17 264 40 q 129 -6 181 -6 m 338 374 q 411 387 372 383 q 494 390 450 390 l 525 390 q 517 601 522 493 q 482 803 513 710 q 426 593 471 703 q 338 374 382 483 m 503 1056 q 428 1083 456 1056 q 401 1156 400 1111 q 442 1239 406 1207 q 531 1271 478 1271 q 608 1243 579 1271 q 633 1171 636 1215 q 593 1088 629 1119 q 503 1056 557 1056 m 299 1300 q 288 1329 290 1315 q 285 1356 285 1343 q 325 1429 285 1400 q 454 1458 365 1458 q 515 1458 469 1458 q 611 1457 561 1457 q 706 1459 663 1457 q 772 1469 750 1461 q 796 1399 796 1435 q 757 1335 796 1360 q 611 1310 718 1310 q 549 1310 592 1310 q 465 1311 506 1311 q 368 1309 410 1311 q 299 1300 326 1307 z "},"À":{"ha":931,"x_min":19,"x_max":903,"o":"m 129 -6 q 53 15 86 -6 q 19 85 19 36 q 52 240 19 161 q 133 397 85 319 q 228 547 181 474 q 309 688 276 621 q 342 811 342 754 q 319 857 342 857 q 285 833 304 857 q 257 761 265 808 l 242 764 q 279 898 242 843 q 375 981 317 953 q 494 1008 433 1008 q 627 968 565 1008 q 713 840 689 928 q 727 763 722 806 q 733 688 732 719 q 735 657 735 657 q 740 467 738 544 q 747 336 742 389 q 763 247 753 283 q 788 191 772 213 q 829 169 804 169 q 870 183 853 169 q 893 210 888 197 l 903 203 q 878 92 903 139 q 813 19 853 44 q 728 -6 772 -6 q 644 20 685 -6 q 572 100 603 46 q 532 240 542 154 q 448 245 489 243 q 374 247 407 247 q 331 247 351 247 q 292 244 311 246 q 272 158 279 201 q 264 72 264 114 q 222 17 264 40 q 129 -6 181 -6 m 338 374 q 411 387 372 383 q 494 390 450 390 l 525 390 q 517 601 522 493 q 482 803 513 710 q 426 593 471 703 q 338 374 382 483 m 569 1053 q 558 1053 564 1053 q 542 1054 553 1053 q 423 1091 474 1063 q 344 1156 372 1119 q 317 1228 317 1193 q 353 1292 317 1265 q 469 1317 389 1318 q 486 1238 465 1282 q 540 1154 507 1193 q 603 1096 572 1115 q 604 1083 604 1092 q 597 1062 604 1071 q 569 1053 589 1053 z "},"Ả":{"ha":931,"x_min":19,"x_max":903,"o":"m 129 -6 q 53 15 86 -6 q 19 85 19 36 q 52 240 19 161 q 133 397 85 319 q 228 547 181 474 q 309 688 276 621 q 342 811 342 754 q 319 857 342 857 q 285 833 304 857 q 257 761 265 808 l 242 764 q 279 898 242 843 q 375 981 317 953 q 494 1008 433 1008 q 627 968 565 1008 q 713 840 689 928 q 727 763 722 806 q 733 688 732 719 q 735 657 735 657 q 740 467 738 544 q 747 336 742 389 q 763 247 753 283 q 788 191 772 213 q 829 169 804 169 q 870 183 853 169 q 893 210 888 197 l 903 203 q 878 92 903 139 q 813 19 853 44 q 728 -6 772 -6 q 644 20 685 -6 q 572 100 603 46 q 532 240 542 154 q 448 245 489 243 q 374 247 407 247 q 331 247 351 247 q 292 244 311 246 q 272 158 279 201 q 264 72 264 114 q 222 17 264 40 q 129 -6 181 -6 m 338 374 q 411 387 372 383 q 494 390 450 390 l 525 390 q 517 601 522 493 q 482 803 513 710 q 426 593 471 703 q 338 374 382 483 m 507 1069 q 458 1078 479 1069 q 438 1106 438 1088 q 465 1145 438 1129 q 531 1174 493 1161 q 596 1197 568 1186 q 624 1221 624 1208 q 581 1238 624 1238 q 508 1224 550 1238 q 426 1174 465 1210 q 371 1253 371 1211 q 400 1311 371 1285 q 478 1353 429 1338 q 582 1369 526 1369 q 707 1340 656 1369 q 758 1257 758 1310 q 731 1190 758 1217 q 669 1146 704 1164 q 606 1114 633 1128 q 578 1083 578 1100 q 544 1073 563 1076 q 507 1069 525 1069 z "},"Ȃ":{"ha":931,"x_min":19,"x_max":903,"o":"m 129 -6 q 53 15 86 -6 q 19 85 19 36 q 52 240 19 161 q 133 397 85 319 q 228 547 181 474 q 309 688 276 621 q 342 811 342 754 q 319 857 342 857 q 285 833 304 857 q 257 761 265 808 l 242 764 q 279 898 242 843 q 375 981 317 953 q 494 1008 433 1008 q 627 968 565 1008 q 713 840 689 928 q 727 763 722 806 q 733 688 732 719 q 735 657 735 657 q 740 467 738 544 q 747 336 742 389 q 763 247 753 283 q 788 191 772 213 q 829 169 804 169 q 870 183 853 169 q 893 210 888 197 l 903 203 q 878 92 903 139 q 813 19 853 44 q 728 -6 772 -6 q 644 20 685 -6 q 572 100 603 46 q 532 240 542 154 q 448 245 489 243 q 374 247 407 247 q 331 247 351 247 q 292 244 311 246 q 272 158 279 201 q 264 72 264 114 q 222 17 264 40 q 129 -6 181 -6 m 338 374 q 411 387 372 383 q 494 390 450 390 l 525 390 q 517 601 522 493 q 482 803 513 710 q 426 593 471 703 q 338 374 382 483 m 653 1060 q 646 1067 640 1057 q 625 1107 651 1093 q 556 1125 599 1121 q 470 1124 514 1129 q 397 1103 426 1118 q 367 1067 367 1089 q 358 1061 367 1060 q 300 1113 310 1076 q 315 1191 290 1150 q 398 1261 340 1232 q 542 1290 456 1290 q 674 1260 628 1290 q 730 1189 719 1231 q 720 1110 740 1147 q 653 1060 700 1074 z "},"Ɑ":{"ha":999,"x_min":49,"x_max":1035,"o":"m 738 -11 q 649 31 685 -11 q 613 158 613 74 q 615 199 613 178 q 622 246 617 221 l 625 258 q 463 63 553 131 q 282 -6 372 -6 q 150 44 201 -6 q 74 176 99 93 q 49 356 49 258 q 67 534 49 443 q 122 710 86 625 q 211 861 158 794 q 333 967 264 928 q 483 1006 401 1006 q 644 952 578 1006 q 738 800 711 899 l 765 932 q 811 987 771 964 q 899 1010 851 1010 q 978 988 940 1010 q 1035 914 1017 967 q 982 769 1008 856 q 932 583 956 683 q 892 385 908 483 q 868 207 875 288 q 864 115 864 153 q 868 50 864 75 q 803 4 836 19 q 738 -11 769 -11 m 392 171 q 472 208 431 171 q 554 309 514 244 q 630 457 594 374 q 690 632 665 540 q 540 842 656 842 q 438 797 483 842 q 361 680 393 751 q 313 526 329 608 q 296 369 296 444 q 319 228 296 286 q 392 171 342 171 z "},"Ā":{"ha":931,"x_min":19,"x_max":903,"o":"m 129 -6 q 53 15 86 -6 q 19 85 19 36 q 52 240 19 161 q 133 397 85 319 q 228 547 181 474 q 309 688 276 621 q 342 811 342 754 q 319 857 342 857 q 285 833 304 857 q 257 761 265 808 l 242 764 q 279 898 242 843 q 375 981 317 953 q 494 1008 433 1008 q 627 968 565 1008 q 713 840 689 928 q 727 763 722 806 q 733 688 732 719 q 735 657 735 657 q 740 467 738 544 q 747 336 742 389 q 763 247 753 283 q 788 191 772 213 q 829 169 804 169 q 870 183 853 169 q 893 210 888 197 l 903 203 q 878 92 903 139 q 813 19 853 44 q 728 -6 772 -6 q 644 20 685 -6 q 572 100 603 46 q 532 240 542 154 q 448 245 489 243 q 374 247 407 247 q 331 247 351 247 q 292 244 311 246 q 272 158 279 201 q 264 72 264 114 q 222 17 264 40 q 129 -6 181 -6 m 338 374 q 411 387 372 383 q 494 390 450 390 l 525 390 q 517 601 522 493 q 482 803 513 710 q 426 593 471 703 q 338 374 382 483 m 274 1064 q 263 1093 265 1079 q 260 1119 260 1107 q 300 1193 260 1164 q 429 1222 340 1222 q 490 1222 444 1222 q 586 1221 536 1221 q 681 1223 638 1221 q 747 1233 725 1225 q 771 1163 771 1199 q 732 1099 771 1124 q 586 1074 693 1074 q 524 1074 567 1074 q 440 1075 481 1075 q 343 1073 385 1075 q 274 1064 301 1071 z "},"Ą":{"ha":931,"x_min":19,"x_max":903,"o":"m 129 -6 q 53 15 86 -6 q 19 85 19 36 q 52 240 19 161 q 133 397 85 319 q 228 547 181 474 q 309 688 276 621 q 342 811 342 754 q 319 857 342 857 q 285 833 304 857 q 257 761 265 808 l 242 764 q 279 898 242 843 q 375 981 317 953 q 494 1008 433 1008 q 627 968 565 1008 q 713 840 689 928 q 727 763 722 806 q 733 688 732 719 q 735 657 735 657 q 740 467 738 544 q 747 336 742 389 q 763 247 753 283 q 788 191 772 213 q 829 169 804 169 q 870 183 853 169 q 893 210 888 197 l 903 203 q 878 92 903 139 q 813 19 853 44 q 728 -6 772 -6 q 644 20 685 -6 q 572 100 603 46 q 532 240 542 154 q 448 245 489 243 q 374 247 407 247 q 331 247 351 247 q 292 244 311 246 q 272 158 279 201 q 264 72 264 114 q 222 17 264 40 q 129 -6 181 -6 m 338 374 q 411 387 372 383 q 494 390 450 390 l 525 390 q 517 601 522 493 q 482 803 513 710 q 426 593 471 703 q 338 374 382 483 m 714 -299 q 601 -267 644 -299 q 547 -187 557 -236 q 567 -85 538 -139 q 672 14 596 -31 l 801 14 q 733 -42 763 -11 q 703 -117 703 -72 q 724 -161 703 -149 q 769 -170 744 -174 q 809 -148 794 -167 q 813 -99 824 -129 l 815 -97 q 859 -120 844 -99 q 873 -171 874 -142 q 855 -230 872 -200 q 803 -279 838 -260 q 714 -299 768 -299 z "},"Å":{"ha":931,"x_min":19,"x_max":903,"o":"m 129 -6 q 53 15 86 -6 q 19 85 19 36 q 52 240 19 161 q 133 397 85 319 q 228 547 181 474 q 309 688 276 621 q 342 811 342 754 q 319 857 342 857 q 285 833 304 857 q 257 761 265 808 l 242 764 q 279 898 242 843 q 375 981 317 953 q 494 1008 433 1008 q 627 968 565 1008 q 713 840 689 928 q 727 763 722 806 q 733 688 732 719 q 735 657 735 657 q 740 467 738 544 q 747 336 742 389 q 763 247 753 283 q 788 191 772 213 q 829 169 804 169 q 870 183 853 169 q 893 210 888 197 l 903 203 q 878 92 903 139 q 813 19 853 44 q 728 -6 772 -6 q 644 20 685 -6 q 572 100 603 46 q 532 240 542 154 q 448 245 489 243 q 374 247 407 247 q 331 247 351 247 q 292 244 311 246 q 272 158 279 201 q 264 72 264 114 q 222 17 264 40 q 129 -6 181 -6 m 338 374 q 411 387 372 383 q 494 390 450 390 l 525 390 q 517 601 522 493 q 482 803 513 710 q 426 593 471 703 q 338 374 382 483 m 499 1043 q 358 1084 410 1043 q 317 1190 307 1125 q 390 1294 328 1254 q 543 1333 453 1333 q 685 1294 635 1333 q 724 1190 735 1254 q 651 1084 714 1125 q 499 1043 589 1043 m 514 1129 q 558 1146 542 1129 q 578 1190 575 1163 q 567 1233 581 1218 q 528 1247 553 1247 q 484 1232 501 1247 q 464 1190 467 1217 q 514 1129 461 1129 z "},"Ḁ":{"ha":931,"x_min":19,"x_max":903,"o":"m 129 -6 q 53 15 86 -6 q 19 85 19 36 q 52 240 19 161 q 133 397 85 319 q 228 547 181 474 q 309 688 276 621 q 342 811 342 754 q 319 857 342 857 q 285 833 304 857 q 257 761 265 808 l 242 764 q 279 898 242 843 q 375 981 317 953 q 494 1008 433 1008 q 627 968 565 1008 q 713 840 689 928 q 727 763 722 806 q 733 688 732 719 q 735 657 735 657 q 740 467 738 544 q 747 336 742 389 q 763 247 753 283 q 788 191 772 213 q 829 169 804 169 q 870 183 853 169 q 893 210 888 197 l 903 203 q 878 92 903 139 q 813 19 853 44 q 728 -6 772 -6 q 644 20 685 -6 q 572 100 603 46 q 532 240 542 154 q 448 245 489 243 q 374 247 407 247 q 331 247 351 247 q 292 244 311 246 q 272 158 279 201 q 264 72 264 114 q 222 17 264 40 q 129 -6 181 -6 m 338 374 q 411 387 372 383 q 494 390 450 390 l 525 390 q 517 601 522 493 q 482 803 513 710 q 426 593 471 703 q 338 374 382 483 m 403 -389 q 303 -365 346 -389 q 238 -302 260 -342 q 221 -214 215 -262 q 260 -128 228 -167 q 342 -66 292 -89 q 447 -43 392 -43 q 547 -66 504 -43 q 613 -128 590 -89 q 628 -214 635 -167 q 590 -302 622 -262 q 508 -365 557 -342 q 403 -389 458 -389 m 418 -290 q 461 -268 442 -290 q 483 -214 481 -246 q 470 -162 486 -185 q 432 -140 454 -140 q 388 -162 408 -140 q 365 -214 368 -185 q 380 -268 364 -246 q 418 -290 396 -290 z "},"Ⱥ":{"ha":931,"x_min":19,"x_max":903,"o":"m 357 -197 q 316 -176 333 -197 q 299 -117 299 -156 q 302 -84 299 -104 q 319 -17 306 -64 q 352 92 331 19 q 400 247 374 164 l 372 247 q 331 247 350 247 q 292 244 311 246 q 272 158 279 201 q 264 72 264 114 q 222 17 264 40 q 129 -6 181 -6 q 53 15 86 -6 q 19 85 19 36 q 52 240 19 161 q 133 397 85 319 q 228 547 181 474 q 309 688 276 621 q 342 811 342 754 q 319 857 342 857 q 285 833 304 857 q 257 761 265 808 l 242 764 q 279 898 242 843 q 375 981 317 953 q 494 1008 433 1008 q 569 997 533 1008 q 636 961 606 985 q 658 1026 649 1000 q 669 1063 667 1053 q 700 1112 678 1096 q 746 1128 722 1128 q 797 1108 774 1128 q 818 1053 819 1089 q 783 960 808 1026 q 721 800 757 894 q 735 654 732 736 q 739 488 738 572 q 747 331 740 403 q 773 214 754 258 q 829 169 792 169 q 870 183 853 169 q 893 210 888 197 l 903 203 q 878 92 903 139 q 813 19 853 44 q 728 -6 772 -6 q 644 20 685 -6 q 572 100 603 46 q 532 240 542 154 l 529 240 q 465 31 496 136 q 411 -174 435 -74 q 357 -197 386 -197 m 338 374 q 390 384 363 381 q 446 389 417 388 q 481 499 464 444 q 517 604 499 553 q 505 707 513 657 q 482 803 497 757 q 426 593 471 703 q 338 374 382 483 z "},"Ã":{"ha":931,"x_min":19,"x_max":903,"o":"m 129 -6 q 53 15 86 -6 q 19 85 19 36 q 52 240 19 161 q 133 397 85 319 q 228 547 181 474 q 309 688 276 621 q 342 811 342 754 q 319 857 342 857 q 285 833 304 857 q 257 761 265 808 l 242 764 q 279 898 242 843 q 375 981 317 953 q 494 1008 433 1008 q 627 968 565 1008 q 713 840 689 928 q 727 763 722 806 q 733 688 732 719 q 735 657 735 657 q 740 467 738 544 q 747 336 742 389 q 763 247 753 283 q 788 191 772 213 q 829 169 804 169 q 870 183 853 169 q 893 210 888 197 l 903 203 q 878 92 903 139 q 813 19 853 44 q 728 -6 772 -6 q 644 20 685 -6 q 572 100 603 46 q 532 240 542 154 q 448 245 489 243 q 374 247 407 247 q 331 247 351 247 q 292 244 311 246 q 272 158 279 201 q 264 72 264 114 q 222 17 264 40 q 129 -6 181 -6 m 338 374 q 411 387 372 383 q 494 390 450 390 l 525 390 q 517 601 522 493 q 482 803 513 710 q 426 593 471 703 q 338 374 382 483 m 258 1056 q 246 1110 246 1083 q 296 1209 246 1167 q 422 1251 346 1251 q 496 1242 461 1251 q 565 1224 531 1233 q 633 1214 599 1214 q 694 1224 663 1214 q 765 1264 726 1235 q 786 1190 786 1226 q 743 1103 786 1139 q 606 1067 700 1067 q 512 1076 554 1067 q 433 1095 469 1086 q 364 1104 397 1104 q 312 1094 338 1104 q 258 1056 286 1083 z "},"Æ":{"ha":1321,"x_min":38,"x_max":1324,"o":"m 881 -10 q 688 63 769 -10 q 583 288 607 135 q 417 68 511 142 q 240 -6 322 -6 q 127 42 172 -6 q 60 168 82 89 q 38 342 38 247 q 55 522 38 429 q 106 700 72 614 q 188 854 140 786 q 294 963 235 922 q 425 1003 354 1003 q 560 951 504 1003 q 642 811 615 900 l 664 961 q 698 1013 668 993 q 763 1032 728 1032 q 828 1011 797 1032 q 872 943 858 990 l 868 929 q 979 990 924 971 q 1086 1010 1035 1010 q 1207 980 1153 1010 q 1292 892 1261 950 q 1324 750 1324 833 q 1298 609 1324 675 q 1227 493 1272 543 q 1124 415 1182 443 q 1000 386 1065 386 q 897 406 949 386 q 794 465 844 425 l 794 454 q 853 249 794 314 q 994 183 911 183 q 1139 225 1064 183 q 1278 349 1214 267 l 1292 339 q 1200 157 1263 236 q 1055 34 1138 78 q 881 -10 972 -10 m 349 203 q 431 245 386 203 q 519 361 475 288 q 599 526 564 435 l 614 628 q 567 782 599 732 q 490 832 535 832 q 421 800 453 832 q 363 716 389 768 q 319 600 338 664 q 290 471 300 536 q 281 350 281 406 q 296 244 281 286 q 349 203 311 203 m 926 532 q 1019 565 982 532 q 1074 643 1056 597 q 1093 725 1093 689 q 1067 799 1093 772 q 1003 826 1040 826 q 928 800 968 826 q 856 717 889 774 q 806 571 824 661 q 870 541 840 550 q 926 532 900 532 z "},"Ǣ":{"ha":1321,"x_min":38,"x_max":1324,"o":"m 881 -10 q 688 63 769 -10 q 583 288 607 135 q 417 68 511 142 q 240 -6 322 -6 q 127 42 172 -6 q 60 168 82 89 q 38 342 38 247 q 55 522 38 429 q 106 700 72 614 q 188 854 140 786 q 294 963 235 922 q 425 1003 354 1003 q 560 951 504 1003 q 642 811 615 900 l 664 961 q 698 1013 668 993 q 763 1032 728 1032 q 828 1011 797 1032 q 872 943 858 990 l 868 929 q 979 990 924 971 q 1086 1010 1035 1010 q 1207 980 1153 1010 q 1292 892 1261 950 q 1324 750 1324 833 q 1298 609 1324 675 q 1227 493 1272 543 q 1124 415 1182 443 q 1000 386 1065 386 q 897 406 949 386 q 794 465 844 425 l 794 454 q 853 249 794 314 q 994 183 911 183 q 1139 225 1064 183 q 1278 349 1214 267 l 1292 339 q 1200 157 1263 236 q 1055 34 1138 78 q 881 -10 972 -10 m 349 203 q 431 245 386 203 q 519 361 475 288 q 599 526 564 435 l 614 628 q 567 782 599 732 q 490 832 535 832 q 421 800 453 832 q 363 716 389 768 q 319 600 338 664 q 290 471 300 536 q 281 350 281 406 q 296 244 281 286 q 349 203 311 203 m 926 532 q 1019 565 982 532 q 1074 643 1056 597 q 1093 725 1093 689 q 1067 799 1093 772 q 1003 826 1040 826 q 928 800 968 826 q 856 717 889 774 q 806 571 824 661 q 870 541 840 550 q 926 532 900 532 m 546 1078 q 535 1107 538 1093 q 532 1133 532 1121 q 572 1207 532 1178 q 701 1236 613 1236 q 763 1235 717 1236 q 858 1235 808 1235 q 953 1237 910 1235 q 1019 1247 997 1239 q 1043 1176 1043 1213 q 1004 1113 1043 1138 q 858 1088 965 1088 q 796 1088 839 1088 q 713 1089 753 1089 q 615 1087 657 1089 q 546 1078 574 1085 z "},"Ḃ":{"ha":914,"x_min":71,"x_max":871,"o":"m 371 -10 q 164 38 244 -10 q 83 192 83 85 q 84 212 83 203 q 86 226 85 221 q 110 322 92 265 q 151 444 128 379 q 197 571 175 508 q 235 685 219 633 q 250 769 250 738 q 226 806 250 806 q 161 766 200 806 q 79 656 122 726 l 71 660 q 107 818 71 751 q 203 928 143 885 q 336 993 263 972 q 485 1014 410 1014 q 660 984 578 1014 q 794 899 742 954 q 846 763 846 843 q 669 538 846 618 q 822 458 774 514 q 871 335 871 403 q 835 215 871 275 q 735 103 800 154 q 577 22 669 53 q 371 -10 485 -10 m 425 579 q 537 599 489 578 q 612 655 585 621 q 639 725 639 689 q 589 809 639 772 q 432 846 539 846 q 440 793 438 819 q 442 742 442 767 q 437 661 442 701 q 425 579 432 621 m 410 160 q 515 184 469 160 q 588 247 561 208 q 614 325 614 285 q 561 428 614 381 q 396 486 508 475 q 373 394 390 443 q 340 301 356 346 q 325 224 325 257 q 343 177 325 194 q 410 160 361 160 m 508 1056 q 433 1083 461 1056 q 407 1156 406 1111 q 447 1239 411 1207 q 536 1271 483 1271 q 613 1243 585 1271 q 639 1171 642 1215 q 599 1088 635 1119 q 508 1056 563 1056 z "},"Ḅ":{"ha":914,"x_min":71,"x_max":871,"o":"m 371 -10 q 164 38 244 -10 q 83 192 83 85 q 84 212 83 203 q 86 226 85 221 q 110 322 92 265 q 151 444 128 379 q 197 571 175 508 q 235 685 219 633 q 250 769 250 738 q 226 806 250 806 q 161 766 200 806 q 79 656 122 726 l 71 660 q 107 818 71 751 q 203 928 143 885 q 336 993 263 972 q 485 1014 410 1014 q 660 984 578 1014 q 794 899 742 954 q 846 763 846 843 q 669 538 846 618 q 822 458 774 514 q 871 335 871 403 q 835 215 871 275 q 735 103 800 154 q 577 22 669 53 q 371 -10 485 -10 m 425 579 q 537 599 489 578 q 612 655 585 621 q 639 725 639 689 q 589 809 639 772 q 432 846 539 846 q 440 793 438 819 q 442 742 442 767 q 437 661 442 701 q 425 579 432 621 m 410 160 q 515 184 469 160 q 588 247 561 208 q 614 325 614 285 q 561 428 614 381 q 396 486 508 475 q 373 394 390 443 q 340 301 356 346 q 325 224 325 257 q 343 177 325 194 q 410 160 361 160 m 368 -319 q 290 -285 321 -319 q 261 -199 258 -250 q 305 -101 265 -142 q 396 -60 344 -60 q 476 -94 444 -60 q 504 -181 507 -129 q 460 -279 500 -239 q 368 -319 421 -319 z "},"Ꞵ":{"ha":901,"x_min":29,"x_max":864,"o":"m 151 -260 q 67 -226 104 -260 q 29 -115 29 -192 q 41 -14 29 -74 q 69 113 53 46 q 103 242 86 179 q 133 349 121 304 q 215 632 186 528 q 243 772 243 736 q 219 806 243 806 q 154 766 193 806 q 72 656 115 726 l 64 660 q 100 818 64 751 q 196 928 136 885 q 329 993 256 972 q 478 1014 403 1014 q 653 984 571 1014 q 787 899 735 954 q 839 763 839 843 q 663 538 839 618 q 815 456 767 514 q 864 321 864 399 q 840 207 864 265 q 768 99 815 149 q 651 20 721 50 q 490 -10 582 -10 q 394 -1 444 -10 q 288 28 344 8 q 271 -69 278 -25 q 264 -147 264 -114 q 268 -211 264 -175 q 213 -247 244 -235 q 151 -260 182 -260 m 418 579 q 530 599 482 578 q 605 655 578 621 q 632 725 632 689 q 582 809 632 772 q 425 846 532 846 q 433 793 431 819 q 435 742 435 767 q 430 661 435 701 q 418 579 425 621 m 425 156 q 554 189 501 156 q 607 301 607 222 q 554 425 607 375 q 389 486 501 475 q 375 411 386 461 q 349 298 364 361 q 318 168 333 235 q 425 156 372 156 z "},"Ɓ":{"ha":1003,"x_min":47,"x_max":958,"o":"m 458 -10 q 251 38 332 -10 q 171 192 171 85 q 172 213 171 203 q 174 228 172 222 q 205 346 181 272 q 263 510 229 419 q 297 606 281 557 q 326 699 314 656 q 338 769 338 742 q 311 806 338 806 q 258 775 285 806 q 232 707 232 744 q 260 647 232 674 q 213 612 239 624 q 158 600 186 600 q 81 632 115 600 q 47 732 47 664 q 85 856 47 803 q 188 944 124 908 q 333 997 253 979 q 497 1014 414 1014 q 657 997 579 1014 q 797 948 735 981 q 897 868 860 915 q 933 758 933 821 q 888 635 933 693 q 757 538 843 578 q 910 458 861 514 q 958 335 958 403 q 923 215 958 275 q 822 103 888 154 q 665 22 757 53 q 458 -10 572 -10 m 513 579 q 624 599 576 578 q 699 655 672 621 q 726 725 726 689 q 676 809 726 772 q 519 846 626 846 q 527 793 525 819 q 529 742 529 767 q 524 661 529 701 q 513 579 519 621 m 497 160 q 603 184 557 160 q 675 247 649 208 q 701 325 701 285 q 649 428 701 381 q 483 486 596 475 q 469 422 479 456 q 449 358 458 388 q 424 284 435 318 q 413 224 413 250 q 431 177 413 194 q 497 160 449 160 z "},"Ḇ":{"ha":914,"x_min":71,"x_max":871,"o":"m 371 -10 q 164 38 244 -10 q 83 192 83 85 q 84 212 83 203 q 86 226 85 221 q 110 322 92 265 q 151 444 128 379 q 197 571 175 508 q 235 685 219 633 q 250 769 250 738 q 226 806 250 806 q 161 766 200 806 q 79 656 122 726 l 71 660 q 107 818 71 751 q 203 928 143 885 q 336 993 263 972 q 485 1014 410 1014 q 660 984 578 1014 q 794 899 742 954 q 846 763 846 843 q 669 538 846 618 q 822 458 774 514 q 871 335 871 403 q 835 215 871 275 q 735 103 800 154 q 577 22 669 53 q 371 -10 485 -10 m 425 579 q 537 599 489 578 q 612 655 585 621 q 639 725 639 689 q 589 809 639 772 q 432 846 539 846 q 440 793 438 819 q 442 742 442 767 q 437 661 442 701 q 425 579 432 621 m 410 160 q 515 184 469 160 q 588 247 561 208 q 614 325 614 285 q 561 428 614 381 q 396 486 508 475 q 373 394 390 443 q 340 301 356 346 q 325 224 325 257 q 343 177 325 194 q 410 160 361 160 m 128 -271 q 114 -174 104 -219 q 163 -102 124 -129 q 261 -76 201 -75 q 380 -82 318 -78 q 499 -88 442 -86 q 603 -86 557 -90 q 674 -65 649 -82 q 699 -161 703 -115 q 658 -235 696 -207 q 546 -264 621 -264 q 285 -257 388 -264 q 128 -271 182 -250 z "},"Ƀ":{"ha":958,"x_min":19,"x_max":915,"o":"m 415 -10 q 208 38 289 -10 q 128 192 128 85 q 128 212 128 203 q 131 226 129 221 l 135 253 q 123 253 129 253 q 110 254 117 254 q 42 279 64 257 q 19 328 19 301 q 51 389 19 364 q 113 383 83 386 q 172 379 143 381 q 226 526 197 450 q 274 667 254 601 q 294 769 294 732 q 271 806 294 806 q 206 766 244 806 q 124 656 167 726 l 115 660 q 151 818 115 751 q 247 928 188 885 q 381 993 307 972 q 529 1014 454 1014 q 704 984 622 1014 q 838 899 786 954 q 890 763 890 843 q 714 538 890 618 q 867 458 818 514 q 915 335 915 403 q 880 215 915 275 q 779 103 844 154 q 622 22 714 53 q 415 -10 529 -10 m 469 579 q 581 599 533 578 q 656 655 629 621 q 683 725 683 689 q 633 809 683 772 q 476 846 583 846 q 484 793 482 819 q 486 742 486 767 q 481 661 486 701 q 469 579 476 621 m 454 160 q 560 184 514 160 q 632 247 606 208 q 658 325 658 285 q 606 428 658 381 q 440 486 553 475 q 429 432 438 460 q 411 376 421 404 q 535 389 479 381 q 560 326 560 361 q 531 270 560 296 q 433 244 503 244 l 371 244 q 369 235 369 239 q 369 231 369 231 q 388 178 369 196 q 454 160 406 160 z "},"Ć":{"ha":832,"x_min":51,"x_max":819,"o":"m 385 -8 q 234 27 297 -8 q 130 124 171 63 q 70 265 89 186 q 54 428 51 343 q 110 689 60 579 q 236 869 160 799 q 401 974 313 940 q 571 1008 489 1008 q 697 985 640 1008 q 786 919 753 963 q 819 813 819 875 q 791 719 819 764 q 705 645 763 674 q 557 617 647 617 q 579 694 572 661 q 586 751 586 728 q 564 817 586 800 q 508 835 542 835 q 432 806 468 835 q 367 727 396 776 q 322 618 339 678 q 303 497 306 558 q 347 264 297 343 q 476 185 397 185 q 612 235 538 185 q 758 386 686 285 l 776 378 q 697 167 758 253 q 553 36 636 81 q 385 -8 471 -8 m 504 1057 q 478 1066 486 1057 q 469 1088 469 1075 q 471 1100 469 1096 q 534 1158 501 1119 q 588 1242 567 1197 q 604 1321 608 1286 q 721 1296 685 1322 q 757 1232 757 1269 q 728 1160 757 1197 q 649 1095 700 1124 q 525 1058 597 1067 q 515 1057 519 1057 q 504 1057 510 1057 z "},"Č":{"ha":832,"x_min":51,"x_max":822,"o":"m 385 -8 q 234 27 297 -8 q 130 124 171 63 q 70 265 89 186 q 54 428 51 343 q 110 689 60 579 q 236 869 160 799 q 401 974 313 940 q 571 1008 489 1008 q 697 985 640 1008 q 786 919 753 963 q 819 813 819 875 q 791 719 819 764 q 705 645 763 674 q 557 617 647 617 q 579 694 572 661 q 586 751 586 728 q 564 817 586 800 q 508 835 542 835 q 432 806 468 835 q 367 727 396 776 q 322 618 339 678 q 303 497 306 558 q 347 264 297 343 q 476 185 397 185 q 612 235 538 185 q 758 386 686 285 l 776 378 q 697 167 758 253 q 553 36 636 81 q 385 -8 471 -8 m 539 1063 q 466 1088 503 1063 q 400 1155 429 1114 q 358 1240 371 1196 q 372 1291 350 1274 q 421 1303 393 1308 q 506 1242 469 1265 q 567 1218 542 1218 q 647 1242 593 1218 q 765 1299 701 1267 q 794 1299 779 1304 q 816 1281 810 1294 q 810 1244 822 1267 q 757 1178 790 1211 q 684 1120 724 1146 q 606 1078 644 1094 q 539 1063 568 1063 z "},"Ç":{"ha":832,"x_min":51,"x_max":819,"o":"m 385 -8 q 234 27 297 -8 q 130 124 171 63 q 70 265 89 186 q 54 428 51 343 q 110 689 60 579 q 236 869 160 799 q 401 974 313 940 q 571 1008 489 1008 q 697 985 640 1008 q 786 919 753 963 q 819 813 819 875 q 791 719 819 764 q 705 645 763 674 q 557 617 647 617 q 579 694 572 661 q 586 751 586 728 q 564 817 586 800 q 508 835 542 835 q 432 806 468 835 q 367 727 396 776 q 322 618 339 678 q 303 497 306 558 q 347 264 297 343 q 476 185 397 185 q 612 235 538 185 q 758 386 686 285 l 776 378 q 697 167 758 253 q 553 36 636 81 q 385 -8 471 -8 m 244 -167 l 250 -164 q 314 -193 279 -196 q 372 -162 349 -190 q 390 -92 394 -135 q 339 0 386 -49 l 399 0 q 494 -117 468 -62 q 513 -216 519 -172 q 478 -289 506 -260 q 411 -328 450 -318 q 335 -325 372 -337 q 272 -274 297 -312 q 244 -167 246 -236 z "},"Ḉ":{"ha":832,"x_min":51,"x_max":819,"o":"m 385 -8 q 234 27 297 -8 q 130 124 171 63 q 70 265 89 186 q 54 428 51 343 q 110 689 60 579 q 236 869 160 799 q 401 974 313 940 q 571 1008 489 1008 q 697 985 640 1008 q 786 919 753 963 q 819 813 819 875 q 791 719 819 764 q 705 645 763 674 q 557 617 647 617 q 579 694 572 661 q 586 751 586 728 q 564 817 586 800 q 508 835 542 835 q 432 806 468 835 q 367 727 396 776 q 322 618 339 678 q 303 497 306 558 q 347 264 297 343 q 476 185 397 185 q 612 235 538 185 q 758 386 686 285 l 776 378 q 697 167 758 253 q 553 36 636 81 q 385 -8 471 -8 m 244 -167 l 250 -164 q 314 -193 279 -196 q 372 -162 349 -190 q 390 -92 394 -135 q 339 0 386 -49 l 399 0 q 494 -117 468 -62 q 513 -216 519 -172 q 478 -289 506 -260 q 411 -328 450 -318 q 335 -325 372 -337 q 272 -274 297 -312 q 244 -167 246 -236 m 504 1057 q 478 1066 486 1057 q 469 1088 469 1075 q 471 1100 469 1096 q 534 1158 501 1119 q 588 1242 567 1197 q 604 1321 608 1286 q 721 1296 685 1322 q 757 1232 757 1269 q 728 1160 757 1197 q 649 1095 700 1124 q 525 1058 597 1067 q 515 1057 519 1057 q 504 1057 510 1057 z "},"Ĉ":{"ha":832,"x_min":51,"x_max":819,"o":"m 385 -8 q 234 27 297 -8 q 130 124 171 63 q 70 265 89 186 q 54 428 51 343 q 110 689 60 579 q 236 869 160 799 q 401 974 313 940 q 571 1008 489 1008 q 697 985 640 1008 q 786 919 753 963 q 819 813 819 875 q 791 719 819 764 q 705 645 763 674 q 557 617 647 617 q 579 694 572 661 q 586 751 586 728 q 564 817 586 800 q 508 835 542 835 q 432 806 468 835 q 367 727 396 776 q 322 618 339 678 q 303 497 306 558 q 347 264 297 343 q 476 185 397 185 q 612 235 538 185 q 758 386 686 285 l 776 378 q 697 167 758 253 q 553 36 636 81 q 385 -8 471 -8 m 363 1046 q 315 1057 331 1040 q 310 1099 299 1074 q 390 1205 339 1161 q 497 1272 442 1249 q 593 1296 553 1296 q 669 1268 628 1296 q 745 1197 711 1240 q 788 1106 779 1153 q 774 1057 794 1071 q 722 1049 754 1043 q 668 1085 699 1068 q 610 1113 638 1101 q 565 1124 582 1124 q 515 1113 549 1124 q 442 1085 482 1103 q 363 1046 401 1068 z "},"Ċ":{"ha":832,"x_min":51,"x_max":819,"o":"m 385 -8 q 234 27 297 -8 q 130 124 171 63 q 70 265 89 186 q 54 428 51 343 q 110 689 60 579 q 236 869 160 799 q 401 974 313 940 q 571 1008 489 1008 q 697 985 640 1008 q 786 919 753 963 q 819 813 819 875 q 791 719 819 764 q 705 645 763 674 q 557 617 647 617 q 579 694 572 661 q 586 751 586 728 q 564 817 586 800 q 508 835 542 835 q 432 806 468 835 q 367 727 396 776 q 322 618 339 678 q 303 497 306 558 q 347 264 297 343 q 476 185 397 185 q 612 235 538 185 q 758 386 686 285 l 776 378 q 697 167 758 253 q 553 36 636 81 q 385 -8 471 -8 m 540 1056 q 465 1083 493 1056 q 439 1156 438 1111 q 479 1239 443 1207 q 568 1271 515 1271 q 645 1243 617 1271 q 671 1171 674 1215 q 631 1088 667 1119 q 540 1056 594 1056 z "},"Ƈ":{"ha":835,"x_min":50,"x_max":1057,"o":"m 375 -8 q 191 54 264 -8 q 84 220 118 117 q 54 446 50 324 q 108 697 58 590 q 234 872 158 803 q 397 975 310 942 q 564 1008 485 1008 q 590 1008 579 1008 q 611 1006 601 1007 q 585 1110 585 1060 q 624 1216 585 1174 q 723 1281 663 1258 q 847 1303 783 1303 q 963 1280 917 1303 q 1033 1222 1010 1257 q 1057 1146 1057 1186 q 1032 1068 1057 1106 q 958 1007 1007 1031 q 836 983 910 983 q 861 1117 861 1067 q 819 1188 861 1188 q 779 1158 796 1188 q 763 1072 763 1129 q 769 994 763 1026 q 797 905 776 953 q 818 808 818 857 q 789 715 818 758 q 701 644 760 671 q 556 617 643 617 q 578 694 571 661 q 585 751 585 728 q 563 817 585 800 q 514 835 542 835 q 410 783 457 835 q 333 649 363 732 q 300 472 304 567 q 346 261 296 338 q 474 185 396 185 q 610 235 536 185 q 757 386 685 285 l 775 378 q 696 167 757 253 q 550 36 635 81 q 375 -8 465 -8 z "},"Ȼ":{"ha":833,"x_min":51,"x_max":824,"o":"m 158 -147 q 122 -129 136 -147 q 108 -76 108 -111 q 125 1 108 -44 l 158 88 q 77 240 103 150 q 54 428 51 329 q 110 689 60 579 q 236 869 160 799 q 401 974 313 940 q 571 1008 489 1008 l 583 1008 q 598 1035 590 1022 q 613 1061 606 1047 q 650 1102 628 1089 q 693 1115 672 1115 q 733 1101 717 1115 q 749 1061 749 1088 q 749 1054 749 1058 q 747 1046 749 1050 l 710 979 q 793 910 763 954 q 821 810 824 867 q 790 715 819 760 q 702 644 760 671 q 557 617 644 617 q 578 688 572 657 q 586 743 585 719 q 471 506 528 628 q 356 251 414 385 q 475 185 401 185 q 612 235 538 185 q 758 386 686 285 l 776 378 q 697 167 758 253 q 553 36 636 81 q 385 -8 471 -8 q 316 -1 349 -8 q 254 18 283 6 q 222 -60 239 -21 q 189 -139 206 -99 q 158 -147 172 -147 m 303 435 q 492 833 393 638 q 400 774 442 825 q 332 649 358 722 q 303 497 306 575 q 302 465 301 481 q 303 435 303 450 z "},"Ď":{"ha":956,"x_min":61,"x_max":932,"o":"m 404 -10 q 294 3 350 -10 q 192 42 239 15 q 117 113 146 69 q 89 218 89 157 q 89 231 89 225 q 90 247 89 238 q 109 340 94 285 q 143 458 124 396 q 181 582 163 521 q 213 694 200 643 q 225 775 225 744 q 207 808 225 808 q 153 774 189 808 q 69 658 117 739 l 61 661 q 112 853 61 774 q 256 976 163 933 q 478 1018 350 1018 q 683 983 597 1018 q 824 886 769 947 q 906 747 879 825 q 932 582 932 668 q 895 373 932 478 q 790 181 858 268 q 623 42 721 94 q 404 -10 525 -10 m 428 174 q 528 206 483 174 q 607 293 574 239 q 658 413 640 347 q 676 546 676 479 q 649 694 676 625 q 563 807 622 764 q 407 850 503 850 q 417 796 414 824 q 421 739 421 768 q 409 608 421 675 q 383 479 397 542 q 356 363 368 417 q 344 267 344 308 q 363 199 344 224 q 428 174 381 174 m 528 1063 q 455 1088 492 1063 q 389 1155 418 1114 q 347 1240 360 1196 q 360 1291 339 1274 q 410 1303 382 1308 q 494 1242 458 1265 q 556 1218 531 1218 q 636 1242 582 1218 q 754 1299 690 1267 q 783 1299 768 1304 q 805 1281 799 1294 q 799 1244 811 1267 q 746 1178 779 1211 q 673 1120 713 1146 q 595 1078 633 1094 q 528 1063 557 1063 z "},"Ḑ":{"ha":956,"x_min":61,"x_max":932,"o":"m 404 -10 q 294 3 350 -10 q 192 42 239 15 q 117 113 146 69 q 89 218 89 157 q 89 231 89 225 q 90 247 89 238 q 109 340 94 285 q 143 458 124 396 q 181 582 163 521 q 213 694 200 643 q 225 775 225 744 q 207 808 225 808 q 153 774 189 808 q 69 658 117 739 l 61 661 q 112 853 61 774 q 256 976 163 933 q 478 1018 350 1018 q 683 983 597 1018 q 824 886 769 947 q 906 747 879 825 q 932 582 932 668 q 895 373 932 478 q 790 181 858 268 q 623 42 721 94 q 404 -10 525 -10 m 428 174 q 528 206 483 174 q 607 293 574 239 q 658 413 640 347 q 676 546 676 479 q 649 694 676 625 q 563 807 622 764 q 407 850 503 850 q 417 796 414 824 q 421 739 421 768 q 409 608 421 675 q 383 479 397 542 q 356 363 368 417 q 344 267 344 308 q 363 199 344 224 q 428 174 381 174 m 265 -375 q 242 -347 246 -375 q 282 -286 271 -319 q 293 -222 293 -253 q 286 -169 293 -193 q 271 -135 279 -144 l 268 -131 q 330 -100 300 -110 q 385 -90 360 -90 q 438 -104 417 -90 q 463 -146 460 -118 q 464 -161 464 -151 q 427 -257 464 -203 q 294 -365 390 -311 q 279 -372 286 -369 q 265 -375 272 -375 z "},"Ḓ":{"ha":956,"x_min":61,"x_max":932,"o":"m 404 -10 q 294 3 350 -10 q 192 42 239 15 q 117 113 146 69 q 89 218 89 157 q 89 231 89 225 q 90 247 89 238 q 109 340 94 285 q 143 458 124 396 q 181 582 163 521 q 213 694 200 643 q 225 775 225 744 q 207 808 225 808 q 153 774 189 808 q 69 658 117 739 l 61 661 q 112 853 61 774 q 256 976 163 933 q 478 1018 350 1018 q 683 983 597 1018 q 824 886 769 947 q 906 747 879 825 q 932 582 932 668 q 895 373 932 478 q 790 181 858 268 q 623 42 721 94 q 404 -10 525 -10 m 428 174 q 528 206 483 174 q 607 293 574 239 q 658 413 640 347 q 676 546 676 479 q 649 694 676 625 q 563 807 622 764 q 407 850 503 850 q 417 796 414 824 q 421 739 421 768 q 409 608 421 675 q 383 479 397 542 q 356 363 368 417 q 344 267 344 308 q 363 199 344 224 q 428 174 381 174 m 235 -319 q 187 -308 203 -325 q 182 -267 171 -292 q 263 -160 211 -204 q 369 -93 314 -117 q 465 -69 425 -69 q 542 -97 500 -69 q 617 -169 583 -125 q 660 -260 651 -212 q 647 -308 667 -294 q 594 -317 626 -322 q 540 -281 571 -297 q 482 -253 510 -264 q 438 -242 454 -242 q 388 -252 421 -242 q 314 -280 354 -262 q 235 -319 274 -297 z "},"Đ":{"ha":994,"x_min":35,"x_max":971,"o":"m 443 -10 q 333 3 389 -10 q 231 42 278 15 q 156 113 185 69 q 128 218 128 157 q 128 231 128 225 q 129 246 128 238 q 145 331 132 282 q 175 436 158 381 q 151 437 163 436 q 129 438 139 438 q 58 459 82 439 q 35 506 35 479 q 79 575 35 547 q 214 563 157 567 q 249 685 235 628 q 264 775 264 743 q 246 808 264 808 q 192 774 228 808 q 108 658 156 739 l 100 661 q 151 853 100 774 q 295 976 201 933 q 517 1018 389 1018 q 722 983 636 1018 q 863 886 808 947 q 944 747 918 825 q 971 582 971 668 q 934 373 971 478 q 828 181 897 268 q 662 42 760 94 q 443 -10 564 -10 m 467 174 q 567 206 522 174 q 646 293 613 239 q 697 413 679 347 q 715 546 715 479 q 688 694 715 625 q 601 807 661 764 q 446 850 542 850 q 456 796 453 824 q 460 739 460 768 q 454 652 460 696 q 440 565 449 608 q 490 569 464 567 q 544 575 515 572 q 569 548 560 565 q 578 511 578 531 q 557 460 578 483 q 488 433 536 436 q 448 432 467 432 q 410 432 429 432 q 392 342 400 385 q 383 267 383 300 q 401 199 383 224 q 467 174 419 174 z "},"Ḋ":{"ha":956,"x_min":61,"x_max":932,"o":"m 404 -10 q 294 3 350 -10 q 192 42 239 15 q 117 113 146 69 q 89 218 89 157 q 89 231 89 225 q 90 247 89 238 q 109 340 94 285 q 143 458 124 396 q 181 582 163 521 q 213 694 200 643 q 225 775 225 744 q 207 808 225 808 q 153 774 189 808 q 69 658 117 739 l 61 661 q 112 853 61 774 q 256 976 163 933 q 478 1018 350 1018 q 683 983 597 1018 q 824 886 769 947 q 906 747 879 825 q 932 582 932 668 q 895 373 932 478 q 790 181 858 268 q 623 42 721 94 q 404 -10 525 -10 m 428 174 q 528 206 483 174 q 607 293 574 239 q 658 413 640 347 q 676 546 676 479 q 649 694 676 625 q 563 807 622 764 q 407 850 503 850 q 417 796 414 824 q 421 739 421 768 q 409 608 421 675 q 383 479 397 542 q 356 363 368 417 q 344 267 344 308 q 363 199 344 224 q 428 174 381 174 m 529 1056 q 454 1083 482 1056 q 428 1156 426 1111 q 468 1239 432 1207 q 557 1271 504 1271 q 634 1243 606 1271 q 660 1171 663 1215 q 619 1088 656 1119 q 529 1056 583 1056 z "},"Ḍ":{"ha":956,"x_min":61,"x_max":932,"o":"m 404 -10 q 294 3 350 -10 q 192 42 239 15 q 117 113 146 69 q 89 218 89 157 q 89 231 89 225 q 90 247 89 238 q 109 340 94 285 q 143 458 124 396 q 181 582 163 521 q 213 694 200 643 q 225 775 225 744 q 207 808 225 808 q 153 774 189 808 q 69 658 117 739 l 61 661 q 112 853 61 774 q 256 976 163 933 q 478 1018 350 1018 q 683 983 597 1018 q 824 886 769 947 q 906 747 879 825 q 932 582 932 668 q 895 373 932 478 q 790 181 858 268 q 623 42 721 94 q 404 -10 525 -10 m 428 174 q 528 206 483 174 q 607 293 574 239 q 658 413 640 347 q 676 546 676 479 q 649 694 676 625 q 563 807 622 764 q 407 850 503 850 q 417 796 414 824 q 421 739 421 768 q 409 608 421 675 q 383 479 397 542 q 356 363 368 417 q 344 267 344 308 q 363 199 344 224 q 428 174 381 174 m 347 -319 q 269 -285 300 -319 q 240 -199 238 -250 q 284 -101 244 -142 q 375 -60 324 -60 q 455 -94 424 -60 q 483 -181 486 -129 q 440 -279 479 -239 q 347 -319 400 -319 z "},"Ɗ":{"ha":1078,"x_min":56,"x_max":1042,"o":"m 504 -10 q 405 3 457 -10 q 308 44 353 15 q 236 117 264 72 q 208 226 208 163 q 208 240 208 233 q 210 257 208 247 q 227 342 214 290 q 259 452 240 393 q 294 570 278 511 q 323 680 311 629 q 335 763 335 731 q 311 804 335 804 q 268 776 289 804 q 247 711 247 749 q 267 651 247 679 q 230 617 258 631 q 169 603 201 603 q 92 631 128 603 q 56 726 56 658 q 96 848 56 793 q 205 941 136 903 q 360 1000 274 979 q 542 1021 447 1021 q 767 983 672 1021 q 922 881 861 946 q 1013 735 983 817 q 1042 565 1042 654 q 1004 360 1042 463 q 897 174 967 258 q 727 40 826 90 q 504 -10 628 -10 m 519 174 q 632 207 582 174 q 718 296 682 240 q 774 419 754 351 q 793 554 793 486 q 766 699 793 632 q 680 808 739 767 q 526 850 621 850 q 537 796 533 824 q 540 740 540 768 q 524 585 540 664 q 488 435 507 506 q 463 332 474 379 q 453 250 453 285 q 467 194 453 215 q 519 174 482 174 z "},"Ḏ":{"ha":956,"x_min":61,"x_max":932,"o":"m 404 -10 q 294 3 350 -10 q 192 42 239 15 q 117 113 146 69 q 89 218 89 157 q 89 231 89 225 q 90 247 89 238 q 109 340 94 285 q 143 458 124 396 q 181 582 163 521 q 213 694 200 643 q 225 775 225 744 q 207 808 225 808 q 153 774 189 808 q 69 658 117 739 l 61 661 q 112 853 61 774 q 256 976 163 933 q 478 1018 350 1018 q 683 983 597 1018 q 824 886 769 947 q 906 747 879 825 q 932 582 932 668 q 895 373 932 478 q 790 181 858 268 q 623 42 721 94 q 404 -10 525 -10 m 428 174 q 528 206 483 174 q 607 293 574 239 q 658 413 640 347 q 676 546 676 479 q 649 694 676 625 q 563 807 622 764 q 407 850 503 850 q 417 796 414 824 q 421 739 421 768 q 409 608 421 675 q 383 479 397 542 q 356 363 368 417 q 344 267 344 308 q 363 199 344 224 q 428 174 381 174 m 107 -271 q 93 -174 83 -219 q 142 -102 103 -129 q 240 -76 181 -75 q 359 -82 297 -78 q 478 -88 421 -86 q 582 -86 536 -90 q 653 -65 628 -82 q 678 -161 682 -115 q 638 -235 675 -207 q 525 -264 600 -264 q 264 -257 367 -264 q 107 -271 161 -250 z "},"Ɖ":{"ha":994,"x_min":35,"x_max":971,"o":"m 443 -10 q 333 3 389 -10 q 231 42 278 15 q 156 113 185 69 q 128 218 128 157 q 128 231 128 225 q 129 246 128 238 q 145 331 132 282 q 175 436 158 381 q 151 437 163 436 q 129 438 139 438 q 58 459 82 439 q 35 506 35 479 q 79 575 35 547 q 214 563 157 567 q 249 685 235 628 q 264 775 264 743 q 246 808 264 808 q 192 774 228 808 q 108 658 156 739 l 100 661 q 151 853 100 774 q 295 976 201 933 q 517 1018 389 1018 q 722 983 636 1018 q 863 886 808 947 q 944 747 918 825 q 971 582 971 668 q 934 373 971 478 q 828 181 897 268 q 662 42 760 94 q 443 -10 564 -10 m 467 174 q 567 206 522 174 q 646 293 613 239 q 697 413 679 347 q 715 546 715 479 q 688 694 715 625 q 601 807 661 764 q 446 850 542 850 q 456 796 453 824 q 460 739 460 768 q 454 652 460 696 q 440 565 449 608 q 490 569 464 567 q 544 575 515 572 q 569 548 560 565 q 578 511 578 531 q 557 460 578 483 q 488 433 536 436 q 448 432 467 432 q 410 432 429 432 q 392 342 400 385 q 383 267 383 300 q 401 199 383 224 q 467 174 419 174 z "},"Ð":{"ha":994,"x_min":35,"x_max":971,"o":"m 443 -10 q 333 3 389 -10 q 231 42 278 15 q 156 113 185 69 q 128 218 128 157 q 128 231 128 225 q 129 246 128 238 q 145 331 132 282 q 175 436 158 381 q 151 437 163 436 q 129 438 139 438 q 58 459 82 439 q 35 506 35 479 q 79 575 35 547 q 214 563 157 567 q 249 685 235 628 q 264 775 264 743 q 246 808 264 808 q 192 774 228 808 q 108 658 156 739 l 100 661 q 151 853 100 774 q 295 976 201 933 q 517 1018 389 1018 q 722 983 636 1018 q 863 886 808 947 q 944 747 918 825 q 971 582 971 668 q 934 373 971 478 q 828 181 897 268 q 662 42 760 94 q 443 -10 564 -10 m 467 174 q 567 206 522 174 q 646 293 613 239 q 697 413 679 347 q 715 546 715 479 q 688 694 715 625 q 601 807 661 764 q 446 850 542 850 q 456 796 453 824 q 460 739 460 768 q 454 652 460 696 q 440 565 449 608 q 490 569 464 567 q 544 575 515 572 q 569 548 560 565 q 578 511 578 531 q 557 460 578 483 q 488 433 536 436 q 448 432 467 432 q 410 432 429 432 q 392 342 400 385 q 383 267 383 300 q 401 199 383 224 q 467 174 419 174 z "},"É":{"ha":746,"x_min":18,"x_max":739,"o":"m 292 -10 q 138 24 199 -10 q 47 113 76 58 q 18 232 18 168 q 40 344 18 289 q 106 446 63 400 q 213 518 150 492 q 127 605 156 554 q 99 711 99 656 q 146 851 99 783 q 283 964 193 919 q 500 1008 374 1008 q 640 987 588 1008 q 715 931 692 965 q 739 858 739 897 q 711 770 739 814 q 631 699 683 726 q 504 671 579 671 q 526 779 526 736 q 508 842 526 822 q 464 861 490 861 q 405 840 436 861 q 353 782 374 819 q 332 694 332 744 q 340 635 332 668 q 367 571 349 603 q 423 599 397 590 q 469 608 449 608 q 532 578 513 608 q 551 511 551 549 q 524 426 551 467 q 444 386 497 386 q 331 432 396 386 q 254 304 254 378 q 290 218 254 247 q 381 189 325 189 q 539 238 451 189 q 694 386 626 288 l 706 379 q 666 209 703 282 q 570 88 629 136 q 439 15 511 39 q 292 -10 367 -10 m 446 1057 q 419 1066 428 1057 q 411 1088 411 1075 q 413 1100 411 1096 q 476 1158 443 1119 q 529 1242 508 1197 q 546 1321 550 1286 q 663 1296 626 1322 q 699 1232 699 1269 q 670 1160 699 1197 q 590 1095 642 1124 q 467 1058 539 1067 q 456 1057 461 1057 q 446 1057 451 1057 z "},"Ě":{"ha":746,"x_min":18,"x_max":764,"o":"m 292 -10 q 138 24 199 -10 q 47 113 76 58 q 18 232 18 168 q 40 344 18 289 q 106 446 63 400 q 213 518 150 492 q 127 605 156 554 q 99 711 99 656 q 146 851 99 783 q 283 964 193 919 q 500 1008 374 1008 q 640 987 588 1008 q 715 931 692 965 q 739 858 739 897 q 711 770 739 814 q 631 699 683 726 q 504 671 579 671 q 526 779 526 736 q 508 842 526 822 q 464 861 490 861 q 405 840 436 861 q 353 782 374 819 q 332 694 332 744 q 340 635 332 668 q 367 571 349 603 q 423 599 397 590 q 469 608 449 608 q 532 578 513 608 q 551 511 551 549 q 524 426 551 467 q 444 386 497 386 q 331 432 396 386 q 254 304 254 378 q 290 218 254 247 q 381 189 325 189 q 539 238 451 189 q 694 386 626 288 l 706 379 q 666 209 703 282 q 570 88 629 136 q 439 15 511 39 q 292 -10 367 -10 m 481 1063 q 408 1088 444 1063 q 342 1155 371 1114 q 300 1240 313 1196 q 313 1291 292 1274 q 363 1303 335 1308 q 447 1242 411 1265 q 508 1218 483 1218 q 589 1242 535 1218 q 707 1299 643 1267 q 736 1299 721 1304 q 758 1281 751 1294 q 751 1244 764 1267 q 699 1178 732 1211 q 626 1120 665 1146 q 548 1078 586 1094 q 481 1063 510 1063 z "},"Ȩ":{"ha":746,"x_min":18,"x_max":739,"o":"m 292 -10 q 138 24 199 -10 q 47 113 76 58 q 18 232 18 168 q 40 344 18 289 q 106 446 63 400 q 213 518 150 492 q 127 605 156 554 q 99 711 99 656 q 146 851 99 783 q 283 964 193 919 q 500 1008 374 1008 q 640 987 588 1008 q 715 931 692 965 q 739 858 739 897 q 711 770 739 814 q 631 699 683 726 q 504 671 579 671 q 526 779 526 736 q 508 842 526 822 q 464 861 490 861 q 405 840 436 861 q 353 782 374 819 q 332 694 332 744 q 340 635 332 668 q 367 571 349 603 q 423 599 397 590 q 469 608 449 608 q 532 578 513 608 q 551 511 551 549 q 524 426 551 467 q 444 386 497 386 q 331 432 396 386 q 254 304 254 378 q 290 218 254 247 q 381 189 325 189 q 539 238 451 189 q 694 386 626 288 l 706 379 q 666 209 703 282 q 570 88 629 136 q 439 15 511 39 q 292 -10 367 -10 m 146 -167 l 151 -164 q 215 -193 181 -196 q 273 -162 250 -190 q 292 -92 296 -135 q 240 0 288 -49 l 300 0 q 395 -117 369 -62 q 414 -216 421 -172 q 379 -289 407 -260 q 313 -328 351 -318 q 236 -325 274 -337 q 173 -274 199 -312 q 146 -167 147 -236 z "},"Ḝ":{"ha":746,"x_min":18,"x_max":739,"o":"m 292 -10 q 138 24 199 -10 q 47 113 76 58 q 18 232 18 168 q 40 344 18 289 q 106 446 63 400 q 213 518 150 492 q 127 605 156 554 q 99 711 99 656 q 146 851 99 783 q 283 964 193 919 q 500 1008 374 1008 q 640 987 588 1008 q 715 931 692 965 q 739 858 739 897 q 711 770 739 814 q 631 699 683 726 q 504 671 579 671 q 526 779 526 736 q 508 842 526 822 q 464 861 490 861 q 405 840 436 861 q 353 782 374 819 q 332 694 332 744 q 340 635 332 668 q 367 571 349 603 q 423 599 397 590 q 469 608 449 608 q 532 578 513 608 q 551 511 551 549 q 524 426 551 467 q 444 386 497 386 q 331 432 396 386 q 254 304 254 378 q 290 218 254 247 q 381 189 325 189 q 539 238 451 189 q 694 386 626 288 l 706 379 q 666 209 703 282 q 570 88 629 136 q 439 15 511 39 q 292 -10 367 -10 m 146 -167 l 151 -164 q 215 -193 181 -196 q 273 -162 250 -190 q 292 -92 296 -135 q 240 0 288 -49 l 300 0 q 395 -117 369 -62 q 414 -216 421 -172 q 379 -289 407 -260 q 313 -328 351 -318 q 236 -325 274 -337 q 173 -274 199 -312 q 146 -167 147 -236 m 486 1056 q 355 1085 401 1056 q 298 1157 308 1115 q 308 1235 288 1199 q 375 1286 328 1272 q 382 1279 388 1289 q 403 1239 376 1253 q 472 1222 429 1225 q 558 1226 514 1219 q 631 1247 601 1232 q 661 1285 661 1263 q 669 1290 661 1293 q 728 1238 718 1275 q 713 1158 738 1200 q 630 1085 688 1115 q 486 1056 572 1056 z "},"Ê":{"ha":746,"x_min":18,"x_max":739,"o":"m 292 -10 q 138 24 199 -10 q 47 113 76 58 q 18 232 18 168 q 40 344 18 289 q 106 446 63 400 q 213 518 150 492 q 127 605 156 554 q 99 711 99 656 q 146 851 99 783 q 283 964 193 919 q 500 1008 374 1008 q 640 987 588 1008 q 715 931 692 965 q 739 858 739 897 q 711 770 739 814 q 631 699 683 726 q 504 671 579 671 q 526 779 526 736 q 508 842 526 822 q 464 861 490 861 q 405 840 436 861 q 353 782 374 819 q 332 694 332 744 q 340 635 332 668 q 367 571 349 603 q 423 599 397 590 q 469 608 449 608 q 532 578 513 608 q 551 511 551 549 q 524 426 551 467 q 444 386 497 386 q 331 432 396 386 q 254 304 254 378 q 290 218 254 247 q 381 189 325 189 q 539 238 451 189 q 694 386 626 288 l 706 379 q 666 209 703 282 q 570 88 629 136 q 439 15 511 39 q 292 -10 367 -10 m 304 1046 q 256 1057 272 1040 q 251 1099 240 1074 q 332 1205 281 1161 q 439 1272 383 1249 q 535 1296 494 1296 q 611 1268 569 1296 q 687 1197 653 1240 q 729 1106 721 1153 q 716 1057 736 1071 q 664 1049 696 1043 q 610 1085 640 1068 q 551 1113 579 1101 q 507 1124 524 1124 q 457 1113 490 1124 q 383 1085 424 1103 q 304 1046 343 1068 z "},"Ế":{"ha":746,"x_min":18,"x_max":978,"o":"m 292 -10 q 138 24 199 -10 q 47 113 76 58 q 18 232 18 168 q 40 344 18 289 q 106 446 63 400 q 213 518 150 492 q 127 605 156 554 q 99 711 99 656 q 146 851 99 783 q 283 964 193 919 q 500 1008 374 1008 q 640 987 588 1008 q 715 931 692 965 q 739 858 739 897 q 711 770 739 814 q 631 699 683 726 q 504 671 579 671 q 526 779 526 736 q 508 842 526 822 q 464 861 490 861 q 405 840 436 861 q 353 782 374 819 q 332 694 332 744 q 340 635 332 668 q 367 571 349 603 q 423 599 397 590 q 469 608 449 608 q 532 578 513 608 q 551 511 551 549 q 524 426 551 467 q 444 386 497 386 q 331 432 396 386 q 254 304 254 378 q 290 218 254 247 q 381 189 325 189 q 539 238 451 189 q 694 386 626 288 l 706 379 q 666 209 703 282 q 570 88 629 136 q 439 15 511 39 q 292 -10 367 -10 m 304 1046 q 256 1057 272 1040 q 251 1099 240 1074 q 332 1205 281 1161 q 439 1272 383 1249 q 535 1296 494 1296 q 611 1268 569 1296 q 687 1197 653 1240 q 729 1106 721 1153 q 716 1057 736 1071 q 664 1049 696 1043 q 610 1085 640 1068 q 551 1113 579 1101 q 507 1124 524 1124 q 457 1113 490 1124 q 383 1085 424 1103 q 304 1046 343 1068 m 725 1228 q 699 1237 707 1228 q 690 1258 690 1246 q 692 1271 690 1267 q 755 1329 722 1290 q 808 1413 788 1368 q 825 1492 829 1457 q 942 1467 906 1493 q 978 1403 978 1440 q 949 1331 978 1368 q 869 1266 921 1294 q 746 1229 818 1238 q 735 1228 740 1228 q 725 1228 731 1228 z "},"Ḙ":{"ha":746,"x_min":18,"x_max":739,"o":"m 292 -10 q 138 24 199 -10 q 47 113 76 58 q 18 232 18 168 q 40 344 18 289 q 106 446 63 400 q 213 518 150 492 q 127 605 156 554 q 99 711 99 656 q 146 851 99 783 q 283 964 193 919 q 500 1008 374 1008 q 640 987 588 1008 q 715 931 692 965 q 739 858 739 897 q 711 770 739 814 q 631 699 683 726 q 504 671 579 671 q 526 779 526 736 q 508 842 526 822 q 464 861 490 861 q 405 840 436 861 q 353 782 374 819 q 332 694 332 744 q 340 635 332 668 q 367 571 349 603 q 423 599 397 590 q 469 608 449 608 q 532 578 513 608 q 551 511 551 549 q 524 426 551 467 q 444 386 497 386 q 331 432 396 386 q 254 304 254 378 q 290 218 254 247 q 381 189 325 189 q 539 238 451 189 q 694 386 626 288 l 706 379 q 666 209 703 282 q 570 88 629 136 q 439 15 511 39 q 292 -10 367 -10 m 132 -319 q 84 -308 100 -325 q 79 -267 68 -292 q 160 -160 108 -204 q 267 -93 211 -117 q 363 -69 322 -69 q 439 -97 397 -69 q 515 -169 481 -125 q 557 -260 549 -212 q 544 -308 564 -294 q 492 -317 524 -322 q 438 -281 468 -297 q 379 -253 407 -264 q 335 -242 351 -242 q 285 -252 318 -242 q 211 -280 251 -262 q 132 -319 171 -297 z "},"Ệ":{"ha":746,"x_min":18,"x_max":739,"o":"m 292 -10 q 138 24 199 -10 q 47 113 76 58 q 18 232 18 168 q 40 344 18 289 q 106 446 63 400 q 213 518 150 492 q 127 605 156 554 q 99 711 99 656 q 146 851 99 783 q 283 964 193 919 q 500 1008 374 1008 q 640 987 588 1008 q 715 931 692 965 q 739 858 739 897 q 711 770 739 814 q 631 699 683 726 q 504 671 579 671 q 526 779 526 736 q 508 842 526 822 q 464 861 490 861 q 405 840 436 861 q 353 782 374 819 q 332 694 332 744 q 340 635 332 668 q 367 571 349 603 q 423 599 397 590 q 469 608 449 608 q 532 578 513 608 q 551 511 551 549 q 524 426 551 467 q 444 386 497 386 q 331 432 396 386 q 254 304 254 378 q 290 218 254 247 q 381 189 325 189 q 539 238 451 189 q 694 386 626 288 l 706 379 q 666 209 703 282 q 570 88 629 136 q 439 15 511 39 q 292 -10 367 -10 m 244 -319 q 166 -285 197 -319 q 138 -199 135 -250 q 181 -101 142 -142 q 272 -60 221 -60 q 352 -94 321 -60 q 381 -181 383 -129 q 337 -279 376 -239 q 244 -319 297 -319 m 304 1046 q 256 1057 272 1040 q 251 1099 240 1074 q 332 1205 281 1161 q 439 1272 383 1249 q 535 1296 494 1296 q 611 1268 569 1296 q 687 1197 653 1240 q 729 1106 721 1153 q 716 1057 736 1071 q 664 1049 696 1043 q 610 1085 640 1068 q 551 1113 579 1101 q 507 1124 524 1124 q 457 1113 490 1124 q 383 1085 424 1103 q 304 1046 343 1068 z "},"Ề":{"ha":746,"x_min":18,"x_max":888,"o":"m 292 -10 q 138 24 199 -10 q 47 113 76 58 q 18 232 18 168 q 40 344 18 289 q 106 446 63 400 q 213 518 150 492 q 127 605 156 554 q 99 711 99 656 q 146 851 99 783 q 283 964 193 919 q 500 1008 374 1008 q 640 987 588 1008 q 715 931 692 965 q 739 858 739 897 q 711 770 739 814 q 631 699 683 726 q 504 671 579 671 q 526 779 526 736 q 508 842 526 822 q 464 861 490 861 q 405 840 436 861 q 353 782 374 819 q 332 694 332 744 q 340 635 332 668 q 367 571 349 603 q 423 599 397 590 q 469 608 449 608 q 532 578 513 608 q 551 511 551 549 q 524 426 551 467 q 444 386 497 386 q 331 432 396 386 q 254 304 254 378 q 290 218 254 247 q 381 189 325 189 q 539 238 451 189 q 694 386 626 288 l 706 379 q 666 209 703 282 q 570 88 629 136 q 439 15 511 39 q 292 -10 367 -10 m 304 1046 q 256 1057 272 1040 q 251 1099 240 1074 q 332 1205 281 1161 q 439 1272 383 1249 q 535 1296 494 1296 q 611 1268 569 1296 q 687 1197 653 1240 q 729 1106 721 1153 q 716 1057 736 1071 q 664 1049 696 1043 q 610 1085 640 1068 q 551 1113 579 1101 q 507 1124 524 1124 q 457 1113 490 1124 q 383 1085 424 1103 q 304 1046 343 1068 m 853 1224 q 842 1224 847 1224 q 825 1225 836 1224 q 706 1262 757 1233 q 628 1327 656 1290 q 600 1399 600 1364 q 636 1463 600 1436 q 753 1488 672 1489 q 769 1408 749 1453 q 823 1325 790 1364 q 886 1267 856 1286 q 888 1254 888 1263 q 880 1233 888 1242 q 853 1224 872 1224 z "},"Ể":{"ha":746,"x_min":18,"x_max":1060,"o":"m 292 -10 q 138 24 199 -10 q 47 113 76 58 q 18 232 18 168 q 40 344 18 289 q 106 446 63 400 q 213 518 150 492 q 127 605 156 554 q 99 711 99 656 q 146 851 99 783 q 283 964 193 919 q 500 1008 374 1008 q 640 987 588 1008 q 715 931 692 965 q 739 858 739 897 q 711 770 739 814 q 631 699 683 726 q 504 671 579 671 q 526 779 526 736 q 508 842 526 822 q 464 861 490 861 q 405 840 436 861 q 353 782 374 819 q 332 694 332 744 q 340 635 332 668 q 367 571 349 603 q 423 599 397 590 q 469 608 449 608 q 532 578 513 608 q 551 511 551 549 q 524 426 551 467 q 444 386 497 386 q 331 432 396 386 q 254 304 254 378 q 290 218 254 247 q 381 189 325 189 q 539 238 451 189 q 694 386 626 288 l 706 379 q 666 209 703 282 q 570 88 629 136 q 439 15 511 39 q 292 -10 367 -10 m 304 1046 q 256 1057 272 1040 q 251 1099 240 1074 q 332 1205 281 1161 q 439 1272 383 1249 q 535 1296 494 1296 q 611 1268 569 1296 q 687 1197 653 1240 q 729 1106 721 1153 q 716 1057 736 1071 q 664 1049 696 1043 q 610 1085 640 1068 q 551 1113 579 1101 q 507 1124 524 1124 q 457 1113 490 1124 q 383 1085 424 1103 q 304 1046 343 1068 m 808 1143 q 760 1152 781 1143 q 739 1179 739 1161 q 767 1219 739 1203 q 832 1247 794 1235 q 897 1271 869 1260 q 925 1294 925 1282 q 882 1311 925 1311 q 809 1297 851 1311 q 728 1247 767 1283 q 672 1326 672 1285 q 701 1385 672 1358 q 779 1427 731 1411 q 883 1443 828 1443 q 1008 1413 957 1443 q 1060 1331 1060 1383 q 1033 1264 1060 1290 q 970 1219 1006 1238 q 907 1188 935 1201 q 879 1157 879 1174 q 845 1147 864 1150 q 808 1143 826 1143 z "},"Ễ":{"ha":746,"x_min":18,"x_max":792,"o":"m 292 -10 q 138 24 199 -10 q 47 113 76 58 q 18 232 18 168 q 40 344 18 289 q 106 446 63 400 q 213 518 150 492 q 127 605 156 554 q 99 711 99 656 q 146 851 99 783 q 283 964 193 919 q 500 1008 374 1008 q 640 987 588 1008 q 715 931 692 965 q 739 858 739 897 q 711 770 739 814 q 631 699 683 726 q 504 671 579 671 q 526 779 526 736 q 508 842 526 822 q 464 861 490 861 q 405 840 436 861 q 353 782 374 819 q 332 694 332 744 q 340 635 332 668 q 367 571 349 603 q 423 599 397 590 q 469 608 449 608 q 532 578 513 608 q 551 511 551 549 q 524 426 551 467 q 444 386 497 386 q 331 432 396 386 q 254 304 254 378 q 290 218 254 247 q 381 189 325 189 q 539 238 451 189 q 694 386 626 288 l 706 379 q 666 209 703 282 q 570 88 629 136 q 439 15 511 39 q 292 -10 367 -10 m 304 1046 q 256 1057 272 1040 q 251 1099 240 1074 q 332 1205 281 1161 q 439 1272 383 1249 q 535 1296 494 1296 q 611 1268 569 1296 q 687 1197 653 1240 q 729 1106 721 1153 q 716 1057 736 1071 q 664 1049 696 1043 q 610 1085 640 1068 q 551 1113 579 1101 q 507 1124 524 1124 q 457 1113 490 1124 q 383 1085 424 1103 q 304 1046 343 1068 m 264 1301 q 251 1356 251 1329 q 301 1455 251 1413 q 428 1497 351 1497 q 501 1488 467 1497 q 570 1469 536 1479 q 639 1460 604 1460 q 700 1470 668 1460 q 771 1510 732 1481 q 792 1436 792 1472 q 749 1349 792 1385 q 611 1313 706 1313 q 517 1322 560 1313 q 439 1341 475 1332 q 369 1350 403 1350 q 317 1340 343 1350 q 264 1301 292 1329 z "},"Ȅ":{"ha":746,"x_min":18,"x_max":739,"o":"m 292 -10 q 138 24 199 -10 q 47 113 76 58 q 18 232 18 168 q 40 344 18 289 q 106 446 63 400 q 213 518 150 492 q 127 605 156 554 q 99 711 99 656 q 146 851 99 783 q 283 964 193 919 q 500 1008 374 1008 q 640 987 588 1008 q 715 931 692 965 q 739 858 739 897 q 711 770 739 814 q 631 699 683 726 q 504 671 579 671 q 526 779 526 736 q 508 842 526 822 q 464 861 490 861 q 405 840 436 861 q 353 782 374 819 q 332 694 332 744 q 340 635 332 668 q 367 571 349 603 q 423 599 397 590 q 469 608 449 608 q 532 578 513 608 q 551 511 551 549 q 524 426 551 467 q 444 386 497 386 q 331 432 396 386 q 254 304 254 378 q 290 218 254 247 q 381 189 325 189 q 539 238 451 189 q 694 386 626 288 l 706 379 q 666 209 703 282 q 570 88 629 136 q 439 15 511 39 q 292 -10 367 -10 m 415 1046 q 378 1051 396 1046 q 232 1130 276 1082 q 188 1219 188 1178 q 218 1285 188 1258 q 304 1311 249 1311 q 365 1303 332 1311 q 383 1233 369 1274 q 413 1156 396 1193 q 446 1094 431 1118 q 456 1071 456 1083 q 444 1053 456 1060 q 415 1046 433 1046 m 672 1046 q 639 1051 656 1046 q 497 1135 542 1085 q 451 1226 451 1185 q 481 1287 451 1263 q 561 1311 510 1311 q 626 1303 592 1311 q 643 1233 631 1274 q 673 1156 656 1193 q 706 1094 690 1118 q 714 1074 714 1085 q 702 1053 714 1061 q 672 1046 690 1046 z "},"Ë":{"ha":746,"x_min":18,"x_max":746,"o":"m 292 -10 q 138 24 199 -10 q 47 113 76 58 q 18 232 18 168 q 40 344 18 289 q 106 446 63 400 q 213 518 150 492 q 127 605 156 554 q 99 711 99 656 q 146 851 99 783 q 283 964 193 919 q 500 1008 374 1008 q 640 987 588 1008 q 715 931 692 965 q 739 858 739 897 q 711 770 739 814 q 631 699 683 726 q 504 671 579 671 q 526 779 526 736 q 508 842 526 822 q 464 861 490 861 q 405 840 436 861 q 353 782 374 819 q 332 694 332 744 q 340 635 332 668 q 367 571 349 603 q 423 599 397 590 q 469 608 449 608 q 532 578 513 608 q 551 511 551 549 q 524 426 551 467 q 444 386 497 386 q 331 432 396 386 q 254 304 254 378 q 290 218 254 247 q 381 189 325 189 q 539 238 451 189 q 694 386 626 288 l 706 379 q 666 209 703 282 q 570 88 629 136 q 439 15 511 39 q 292 -10 367 -10 m 614 1056 q 538 1083 565 1056 q 514 1153 510 1110 q 552 1238 517 1206 q 640 1271 588 1271 q 717 1243 689 1271 q 743 1171 746 1215 q 706 1088 742 1119 q 614 1056 669 1056 m 351 1056 q 275 1083 303 1056 q 250 1153 247 1110 q 288 1238 253 1206 q 378 1271 322 1271 q 454 1243 426 1271 q 479 1171 482 1215 q 440 1088 476 1119 q 351 1056 404 1056 z "},"Ė":{"ha":746,"x_min":18,"x_max":739,"o":"m 292 -10 q 138 24 199 -10 q 47 113 76 58 q 18 232 18 168 q 40 344 18 289 q 106 446 63 400 q 213 518 150 492 q 127 605 156 554 q 99 711 99 656 q 146 851 99 783 q 283 964 193 919 q 500 1008 374 1008 q 640 987 588 1008 q 715 931 692 965 q 739 858 739 897 q 711 770 739 814 q 631 699 683 726 q 504 671 579 671 q 526 779 526 736 q 508 842 526 822 q 464 861 490 861 q 405 840 436 861 q 353 782 374 819 q 332 694 332 744 q 340 635 332 668 q 367 571 349 603 q 423 599 397 590 q 469 608 449 608 q 532 578 513 608 q 551 511 551 549 q 524 426 551 467 q 444 386 497 386 q 331 432 396 386 q 254 304 254 378 q 290 218 254 247 q 381 189 325 189 q 539 238 451 189 q 694 386 626 288 l 706 379 q 666 209 703 282 q 570 88 629 136 q 439 15 511 39 q 292 -10 367 -10 m 482 1056 q 407 1083 435 1056 q 381 1156 379 1111 q 421 1239 385 1207 q 510 1271 457 1271 q 587 1243 558 1271 q 613 1171 615 1215 q 572 1088 608 1119 q 482 1056 536 1056 z "},"Ẹ":{"ha":746,"x_min":18,"x_max":739,"o":"m 292 -10 q 138 24 199 -10 q 47 113 76 58 q 18 232 18 168 q 40 344 18 289 q 106 446 63 400 q 213 518 150 492 q 127 605 156 554 q 99 711 99 656 q 146 851 99 783 q 283 964 193 919 q 500 1008 374 1008 q 640 987 588 1008 q 715 931 692 965 q 739 858 739 897 q 711 770 739 814 q 631 699 683 726 q 504 671 579 671 q 526 779 526 736 q 508 842 526 822 q 464 861 490 861 q 405 840 436 861 q 353 782 374 819 q 332 694 332 744 q 340 635 332 668 q 367 571 349 603 q 423 599 397 590 q 469 608 449 608 q 532 578 513 608 q 551 511 551 549 q 524 426 551 467 q 444 386 497 386 q 331 432 396 386 q 254 304 254 378 q 290 218 254 247 q 381 189 325 189 q 539 238 451 189 q 694 386 626 288 l 706 379 q 666 209 703 282 q 570 88 629 136 q 439 15 511 39 q 292 -10 367 -10 m 244 -319 q 166 -285 197 -319 q 138 -199 135 -250 q 181 -101 142 -142 q 272 -60 221 -60 q 352 -94 321 -60 q 381 -181 383 -129 q 337 -279 376 -239 q 244 -319 297 -319 z "},"È":{"ha":746,"x_min":18,"x_max":739,"o":"m 292 -10 q 138 24 199 -10 q 47 113 76 58 q 18 232 18 168 q 40 344 18 289 q 106 446 63 400 q 213 518 150 492 q 127 605 156 554 q 99 711 99 656 q 146 851 99 783 q 283 964 193 919 q 500 1008 374 1008 q 640 987 588 1008 q 715 931 692 965 q 739 858 739 897 q 711 770 739 814 q 631 699 683 726 q 504 671 579 671 q 526 779 526 736 q 508 842 526 822 q 464 861 490 861 q 405 840 436 861 q 353 782 374 819 q 332 694 332 744 q 340 635 332 668 q 367 571 349 603 q 423 599 397 590 q 469 608 449 608 q 532 578 513 608 q 551 511 551 549 q 524 426 551 467 q 444 386 497 386 q 331 432 396 386 q 254 304 254 378 q 290 218 254 247 q 381 189 325 189 q 539 238 451 189 q 694 386 626 288 l 706 379 q 666 209 703 282 q 570 88 629 136 q 439 15 511 39 q 292 -10 367 -10 m 549 1053 q 538 1053 543 1053 q 521 1054 532 1053 q 402 1091 453 1063 q 324 1156 351 1119 q 296 1228 296 1193 q 332 1292 296 1265 q 449 1317 368 1318 q 465 1238 444 1282 q 519 1154 486 1193 q 582 1096 551 1115 q 583 1083 583 1092 q 576 1062 583 1071 q 549 1053 568 1053 z "},"Ẻ":{"ha":746,"x_min":18,"x_max":739,"o":"m 292 -10 q 138 24 199 -10 q 47 113 76 58 q 18 232 18 168 q 40 344 18 289 q 106 446 63 400 q 213 518 150 492 q 127 605 156 554 q 99 711 99 656 q 146 851 99 783 q 283 964 193 919 q 500 1008 374 1008 q 640 987 588 1008 q 715 931 692 965 q 739 858 739 897 q 711 770 739 814 q 631 699 683 726 q 504 671 579 671 q 526 779 526 736 q 508 842 526 822 q 464 861 490 861 q 405 840 436 861 q 353 782 374 819 q 332 694 332 744 q 340 635 332 668 q 367 571 349 603 q 423 599 397 590 q 469 608 449 608 q 532 578 513 608 q 551 511 551 549 q 524 426 551 467 q 444 386 497 386 q 331 432 396 386 q 254 304 254 378 q 290 218 254 247 q 381 189 325 189 q 539 238 451 189 q 694 386 626 288 l 706 379 q 666 209 703 282 q 570 88 629 136 q 439 15 511 39 q 292 -10 367 -10 m 486 1069 q 438 1078 458 1069 q 417 1106 417 1088 q 444 1145 417 1129 q 510 1174 472 1161 q 575 1197 547 1186 q 603 1221 603 1208 q 560 1238 603 1238 q 487 1224 529 1238 q 406 1174 444 1210 q 350 1253 350 1211 q 379 1311 350 1285 q 457 1353 408 1338 q 561 1369 506 1369 q 686 1340 635 1369 q 738 1257 738 1310 q 710 1190 738 1217 q 648 1146 683 1164 q 585 1114 613 1128 q 557 1083 557 1100 q 523 1073 542 1076 q 486 1069 504 1069 z "},"Ȇ":{"ha":746,"x_min":18,"x_max":739,"o":"m 292 -10 q 138 24 199 -10 q 47 113 76 58 q 18 232 18 168 q 40 344 18 289 q 106 446 63 400 q 213 518 150 492 q 127 605 156 554 q 99 711 99 656 q 146 851 99 783 q 283 964 193 919 q 500 1008 374 1008 q 640 987 588 1008 q 715 931 692 965 q 739 858 739 897 q 711 770 739 814 q 631 699 683 726 q 504 671 579 671 q 526 779 526 736 q 508 842 526 822 q 464 861 490 861 q 405 840 436 861 q 353 782 374 819 q 332 694 332 744 q 340 635 332 668 q 367 571 349 603 q 423 599 397 590 q 469 608 449 608 q 532 578 513 608 q 551 511 551 549 q 524 426 551 467 q 444 386 497 386 q 331 432 396 386 q 254 304 254 378 q 290 218 254 247 q 381 189 325 189 q 539 238 451 189 q 694 386 626 288 l 706 379 q 666 209 703 282 q 570 88 629 136 q 439 15 511 39 q 292 -10 367 -10 m 632 1060 q 625 1067 619 1057 q 604 1107 631 1093 q 535 1125 578 1121 q 449 1124 493 1129 q 376 1103 406 1118 q 346 1067 346 1089 q 338 1061 346 1060 q 279 1113 289 1076 q 294 1191 269 1150 q 377 1261 319 1232 q 521 1290 435 1290 q 653 1260 607 1290 q 709 1189 699 1231 q 699 1110 719 1147 q 632 1060 679 1074 z "},"Ē":{"ha":746,"x_min":18,"x_max":750,"o":"m 292 -10 q 138 24 199 -10 q 47 113 76 58 q 18 232 18 168 q 40 344 18 289 q 106 446 63 400 q 213 518 150 492 q 127 605 156 554 q 99 711 99 656 q 146 851 99 783 q 283 964 193 919 q 500 1008 374 1008 q 640 987 588 1008 q 715 931 692 965 q 739 858 739 897 q 711 770 739 814 q 631 699 683 726 q 504 671 579 671 q 526 779 526 736 q 508 842 526 822 q 464 861 490 861 q 405 840 436 861 q 353 782 374 819 q 332 694 332 744 q 340 635 332 668 q 367 571 349 603 q 423 599 397 590 q 469 608 449 608 q 532 578 513 608 q 551 511 551 549 q 524 426 551 467 q 444 386 497 386 q 331 432 396 386 q 254 304 254 378 q 290 218 254 247 q 381 189 325 189 q 539 238 451 189 q 694 386 626 288 l 706 379 q 666 209 703 282 q 570 88 629 136 q 439 15 511 39 q 292 -10 367 -10 m 253 1064 q 242 1093 244 1079 q 239 1119 239 1107 q 279 1193 239 1164 q 408 1222 319 1222 q 469 1222 424 1222 q 565 1221 515 1221 q 660 1223 617 1221 q 726 1233 704 1225 q 750 1163 750 1199 q 711 1099 750 1124 q 565 1074 672 1074 q 503 1074 546 1074 q 419 1075 460 1075 q 322 1073 364 1075 q 253 1064 281 1071 z "},"Ḗ":{"ha":746,"x_min":18,"x_max":739,"o":"m 292 -10 q 138 24 199 -10 q 47 113 76 58 q 18 232 18 168 q 40 344 18 289 q 106 446 63 400 q 213 518 150 492 q 127 605 156 554 q 99 711 99 656 q 146 851 99 783 q 283 964 193 919 q 500 1008 374 1008 q 640 987 588 1008 q 715 931 692 965 q 739 858 739 897 q 711 770 739 814 q 631 699 683 726 q 504 671 579 671 q 526 779 526 736 q 508 842 526 822 q 464 861 490 861 q 405 840 436 861 q 353 782 374 819 q 332 694 332 744 q 340 635 332 668 q 367 571 349 603 q 423 599 397 590 q 469 608 449 608 q 532 578 513 608 q 551 511 551 549 q 524 426 551 467 q 444 386 497 386 q 331 432 396 386 q 254 304 254 378 q 290 218 254 247 q 381 189 325 189 q 539 238 451 189 q 694 386 626 288 l 706 379 q 666 209 703 282 q 570 88 629 136 q 439 15 511 39 q 292 -10 367 -10 m 376 1279 q 350 1288 358 1279 q 342 1310 342 1297 q 343 1322 342 1318 q 406 1381 374 1342 q 460 1464 439 1419 q 476 1543 481 1508 q 593 1518 557 1544 q 629 1454 629 1492 q 601 1383 629 1419 q 521 1317 572 1346 q 397 1281 469 1289 q 387 1279 392 1279 q 376 1279 382 1279 m 167 1064 q 156 1093 158 1079 q 153 1119 153 1107 q 193 1193 153 1164 q 322 1222 233 1222 q 383 1222 338 1222 q 479 1221 429 1221 q 574 1223 531 1221 q 640 1233 618 1225 q 664 1163 664 1199 q 625 1099 664 1124 q 479 1074 586 1074 q 417 1074 460 1074 q 333 1075 374 1075 q 236 1073 278 1075 q 167 1064 194 1071 z "},"Ḕ":{"ha":746,"x_min":18,"x_max":739,"o":"m 292 -10 q 138 24 199 -10 q 47 113 76 58 q 18 232 18 168 q 40 344 18 289 q 106 446 63 400 q 213 518 150 492 q 127 605 156 554 q 99 711 99 656 q 146 851 99 783 q 283 964 193 919 q 500 1008 374 1008 q 640 987 588 1008 q 715 931 692 965 q 739 858 739 897 q 711 770 739 814 q 631 699 683 726 q 504 671 579 671 q 526 779 526 736 q 508 842 526 822 q 464 861 490 861 q 405 840 436 861 q 353 782 374 819 q 332 694 332 744 q 340 635 332 668 q 367 571 349 603 q 423 599 397 590 q 469 608 449 608 q 532 578 513 608 q 551 511 551 549 q 524 426 551 467 q 444 386 497 386 q 331 432 396 386 q 254 304 254 378 q 290 218 254 247 q 381 189 325 189 q 539 238 451 189 q 694 386 626 288 l 706 379 q 666 209 703 282 q 570 88 629 136 q 439 15 511 39 q 292 -10 367 -10 m 499 1275 q 488 1275 493 1275 q 471 1276 482 1275 q 352 1313 403 1285 q 274 1378 301 1342 q 246 1450 246 1415 q 282 1514 246 1488 q 399 1539 318 1540 q 415 1460 394 1504 q 469 1376 436 1415 q 532 1318 501 1338 q 533 1306 533 1314 q 526 1284 533 1293 q 499 1275 518 1275 m 167 1064 q 156 1093 158 1079 q 153 1119 153 1107 q 193 1193 153 1164 q 322 1222 233 1222 q 383 1222 338 1222 q 479 1221 429 1221 q 574 1223 531 1221 q 640 1233 618 1225 q 664 1163 664 1199 q 625 1099 664 1124 q 479 1074 586 1074 q 417 1074 460 1074 q 333 1075 374 1075 q 236 1073 278 1075 q 167 1064 194 1071 z "},"Ę":{"ha":746,"x_min":18,"x_max":739,"o":"m 292 -10 q 138 24 199 -10 q 47 113 76 58 q 18 232 18 168 q 40 344 18 289 q 106 446 63 400 q 213 518 150 492 q 127 605 156 554 q 99 711 99 656 q 146 851 99 783 q 283 964 193 919 q 500 1008 374 1008 q 640 987 588 1008 q 715 931 692 965 q 739 858 739 897 q 711 770 739 814 q 631 699 683 726 q 504 671 579 671 q 526 779 526 736 q 508 842 526 822 q 464 861 490 861 q 405 840 436 861 q 353 782 374 819 q 332 694 332 744 q 340 635 332 668 q 367 571 349 603 q 423 599 397 590 q 469 608 449 608 q 532 578 513 608 q 551 511 551 549 q 524 426 551 467 q 444 386 497 386 q 331 432 396 386 q 254 304 254 378 q 290 218 254 247 q 381 189 325 189 q 539 238 451 189 q 694 386 626 288 l 706 379 q 666 209 703 282 q 570 88 629 136 q 439 15 511 39 q 292 -10 367 -10 m 351 -299 q 238 -267 282 -299 q 185 -187 194 -236 q 204 -85 175 -139 q 310 14 233 -31 l 439 14 q 370 -42 400 -11 q 340 -117 340 -72 q 361 -161 340 -149 q 407 -170 382 -174 q 447 -148 432 -167 q 450 -99 461 -129 l 453 -97 q 497 -120 482 -99 q 510 -171 511 -142 q 492 -230 510 -200 q 440 -279 475 -260 q 351 -299 406 -299 z "},"Ɛ":{"ha":733,"x_min":19,"x_max":707,"o":"m 293 -10 q 139 24 200 -10 q 49 113 78 58 q 19 231 19 168 q 42 343 19 288 q 109 445 65 399 q 214 518 153 492 q 127 608 156 554 q 99 722 99 661 q 131 844 99 792 q 214 933 163 897 q 327 988 265 969 q 450 1007 389 1007 q 571 985 515 1007 q 660 920 626 964 q 694 808 694 876 q 691 766 694 789 q 681 719 688 743 l 667 719 q 585 817 633 788 q 488 847 536 847 q 377 805 425 847 q 329 693 329 763 q 338 637 329 667 q 365 575 347 607 q 424 603 397 594 q 471 613 450 613 q 535 583 515 613 q 556 514 556 553 q 527 427 556 468 q 444 386 499 386 q 394 397 422 386 q 331 431 365 407 q 278 374 294 406 q 263 313 263 343 q 299 224 263 263 q 397 186 336 186 q 485 205 435 186 q 590 268 535 224 q 696 386 644 313 l 707 379 q 667 209 704 282 q 572 88 631 136 q 440 15 513 39 q 293 -10 368 -10 z "},"Ǝ":{"ha":728,"x_min":-8,"x_max":728,"o":"m 317 -10 q 180 15 244 -10 q 70 88 115 39 q 8 209 25 136 q 15 379 -8 282 l 31 386 q 136 231 76 275 q 253 186 196 186 q 335 208 297 186 q 399 263 374 229 q 426 333 424 296 q 393 424 431 383 q 331 395 358 404 q 281 386 303 386 q 209 427 226 386 q 206 514 192 468 q 245 583 217 553 q 317 613 274 613 q 361 603 338 613 q 411 575 385 594 q 460 656 442 611 q 482 742 478 701 q 467 826 486 792 q 400 861 447 861 q 344 841 365 861 q 313 790 322 821 q 300 726 303 760 q 299 698 299 713 q 299 671 299 683 q 190 693 232 671 q 130 750 149 715 q 111 821 111 785 q 142 913 111 869 q 236 982 174 956 q 390 1008 299 1008 q 578 972 503 1008 q 690 877 653 935 q 728 758 728 819 q 680 625 728 688 q 549 518 632 563 q 645 424 618 485 q 672 306 672 363 q 629 151 672 224 q 506 35 586 79 q 317 -10 426 -10 z "},"Ʃ":{"ha":774,"x_min":-26,"x_max":772,"o":"m 107 -6 q 8 32 43 -6 q -26 118 -26 69 q -12 178 -26 149 q 31 233 1 208 l 371 490 l 151 729 q 110 794 124 760 q 96 860 96 828 q 141 959 96 917 q 279 1001 186 1001 l 606 1001 q 735 967 697 1001 q 772 881 772 932 q 754 802 772 843 q 696 724 736 761 q 656 772 690 747 q 567 797 622 797 l 319 796 l 547 556 q 551 529 551 546 q 540 474 551 503 q 510 431 529 444 l 213 210 l 481 206 q 617 228 567 204 q 699 285 668 253 q 717 182 717 235 q 699 92 717 135 q 639 22 681 49 q 528 -6 597 -6 l 107 -6 z "},"Ɇ":{"ha":746,"x_min":18,"x_max":739,"o":"m 97 -197 q 56 -179 74 -197 q 39 -126 39 -161 q 42 -96 39 -112 q 54 -60 46 -79 l 100 51 q 38 133 58 85 q 18 232 18 181 q 40 344 18 289 q 106 446 63 400 q 213 518 150 492 q 127 605 156 554 q 99 711 99 656 q 142 844 99 779 q 272 955 186 910 q 483 1007 357 1000 l 507 1065 q 544 1110 521 1096 q 589 1125 567 1125 q 637 1107 617 1125 q 656 1053 657 1089 q 626 994 646 1035 q 712 939 685 976 q 739 858 739 901 q 711 770 739 814 q 631 699 683 726 q 504 671 579 671 q 519 724 514 700 q 526 767 525 749 l 460 613 l 467 613 q 533 583 513 613 q 554 514 554 553 q 526 427 554 468 q 444 386 499 386 q 374 406 411 386 l 307 238 q 352 201 324 215 q 417 186 381 186 q 546 231 474 186 q 694 386 618 275 l 706 379 q 666 209 703 282 q 570 88 629 136 q 440 15 511 39 q 294 -10 368 -10 q 214 -1 251 -10 q 183 -88 199 -44 q 151 -174 167 -132 q 97 -197 126 -197 m 338 644 q 381 753 361 701 q 419 849 401 804 q 358 790 385 831 q 332 693 332 750 q 333 671 332 683 q 338 644 335 658 z "},"Ẽ":{"ha":746,"x_min":18,"x_max":765,"o":"m 292 -10 q 138 24 199 -10 q 47 113 76 58 q 18 232 18 168 q 40 344 18 289 q 106 446 63 400 q 213 518 150 492 q 127 605 156 554 q 99 711 99 656 q 146 851 99 783 q 283 964 193 919 q 500 1008 374 1008 q 640 987 588 1008 q 715 931 692 965 q 739 858 739 897 q 711 770 739 814 q 631 699 683 726 q 504 671 579 671 q 526 779 526 736 q 508 842 526 822 q 464 861 490 861 q 405 840 436 861 q 353 782 374 819 q 332 694 332 744 q 340 635 332 668 q 367 571 349 603 q 423 599 397 590 q 469 608 449 608 q 532 578 513 608 q 551 511 551 549 q 524 426 551 467 q 444 386 497 386 q 331 432 396 386 q 254 304 254 378 q 290 218 254 247 q 381 189 325 189 q 539 238 451 189 q 694 386 626 288 l 706 379 q 666 209 703 282 q 570 88 629 136 q 439 15 511 39 q 292 -10 367 -10 m 238 1056 q 225 1110 225 1083 q 275 1209 225 1167 q 401 1251 325 1251 q 475 1242 440 1251 q 544 1224 510 1233 q 613 1214 578 1214 q 674 1224 642 1214 q 744 1264 706 1235 q 765 1190 765 1226 q 722 1103 765 1139 q 585 1067 679 1067 q 491 1076 533 1067 q 413 1095 449 1086 q 343 1104 376 1104 q 291 1094 317 1104 q 238 1056 265 1083 z "},"Ḛ":{"ha":746,"x_min":-3,"x_max":739,"o":"m 292 -10 q 138 24 199 -10 q 47 113 76 58 q 18 232 18 168 q 40 344 18 289 q 106 446 63 400 q 213 518 150 492 q 127 605 156 554 q 99 711 99 656 q 146 851 99 783 q 283 964 193 919 q 500 1008 374 1008 q 640 987 588 1008 q 715 931 692 965 q 739 858 739 897 q 711 770 739 814 q 631 699 683 726 q 504 671 579 671 q 526 779 526 736 q 508 842 526 822 q 464 861 490 861 q 405 840 436 861 q 353 782 374 819 q 332 694 332 744 q 340 635 332 668 q 367 571 349 603 q 423 599 397 590 q 469 608 449 608 q 532 578 513 608 q 551 511 551 549 q 524 426 551 467 q 444 386 497 386 q 331 432 396 386 q 254 304 254 378 q 290 218 254 247 q 381 189 325 189 q 539 238 451 189 q 694 386 626 288 l 706 379 q 666 209 703 282 q 570 88 629 136 q 439 15 511 39 q 292 -10 367 -10 m 21 -278 q 43 -126 -3 -179 q 174 -72 89 -72 q 269 -83 226 -72 q 353 -101 313 -93 q 435 -101 393 -108 q 528 -58 478 -93 q 548 -156 556 -108 q 499 -235 540 -204 q 381 -265 457 -265 q 263 -253 313 -265 q 175 -233 214 -242 q 99 -231 136 -224 q 21 -278 63 -239 z "},"Ə":{"ha":856,"x_min":35,"x_max":835,"o":"m 300 -10 q 167 19 228 -10 q 71 104 107 47 q 35 246 35 161 q 79 418 35 340 q 197 542 124 496 q 356 588 271 588 q 467 565 411 588 q 576 493 524 543 q 578 503 578 497 q 581 532 581 522 q 581 542 581 542 q 522 744 581 674 q 379 814 463 814 q 243 766 314 814 q 114 614 172 718 l 96 622 q 171 834 110 749 q 319 964 232 919 q 500 1008 407 1008 q 679 956 604 1008 q 794 813 754 904 q 835 606 835 722 q 834 572 835 588 q 832 544 833 556 q 767 303 819 407 q 635 130 714 200 q 469 25 557 60 q 300 -10 382 -10 m 364 158 q 472 214 414 158 q 560 388 529 269 q 486 440 521 424 q 422 456 451 456 q 341 424 375 456 q 290 347 307 392 q 272 264 272 303 q 299 187 272 215 q 364 158 325 158 z "},"Ʒ":{"ha":774,"x_min":-39,"x_max":793,"o":"m 267 -10 q 77 26 163 -10 q -39 133 -8 63 l -29 153 q 62 112 17 125 q 150 99 107 99 q 274 124 217 99 q 373 192 331 150 q 440 281 415 233 q 464 374 464 329 q 443 436 464 414 q 378 476 422 458 q 326 447 353 463 q 271 417 299 432 q 220 459 244 422 q 197 539 196 496 q 369 666 288 592 q 511 819 451 740 q 458 834 485 826 q 407 842 431 842 q 324 811 364 842 q 285 711 285 781 q 285 699 285 706 q 286 686 285 693 q 138 731 185 685 q 92 835 92 776 q 114 915 92 876 q 178 979 136 954 q 281 1004 221 1004 q 382 985 336 1004 q 473 943 428 965 q 574 910 518 921 q 603 969 590 940 q 624 1022 617 997 q 701 994 661 1018 q 767 935 740 971 q 790 856 793 899 q 675 708 749 785 q 493 553 601 631 q 678 467 624 533 q 726 319 733 400 q 686 203 721 261 q 592 97 651 144 q 449 19 532 49 q 267 -10 367 -10 z "},"Ƹ":{"ha":757,"x_min":8,"x_max":774,"o":"m 367 -10 q 167 31 247 -10 q 48 135 88 71 q 8 269 8 199 q 42 396 8 335 q 140 502 75 457 q 303 561 206 547 q 166 714 218 638 q 92 860 114 790 q 134 936 100 901 q 213 994 168 971 q 294 1022 257 1018 q 301 964 294 996 q 317 899 307 932 q 469 975 390 944 q 619 1006 549 1006 q 736 968 699 1006 q 774 882 774 931 q 744 794 774 838 q 663 721 715 750 q 536 693 610 692 q 556 765 556 732 q 529 826 556 806 q 458 846 503 846 q 408 840 436 846 q 350 824 381 835 q 448 674 388 747 q 585 549 508 600 q 544 470 575 506 q 486 428 513 435 q 439 458 461 443 q 396 488 417 474 q 303 422 336 465 q 269 321 269 378 q 299 215 269 267 q 385 131 329 164 q 515 97 440 97 q 605 110 557 97 q 704 151 653 122 l 710 132 q 567 26 661 61 q 367 -10 474 -10 z "},"Ḟ":{"ha":761,"x_min":31,"x_max":801,"o":"m 197 -6 q 107 36 147 -6 q 67 174 67 78 q 85 326 67 251 q 126 478 103 401 q 165 638 149 556 q 175 813 181 721 q 101 793 138 807 q 31 753 65 779 q 46 895 31 840 q 106 975 61 950 q 238 1000 150 1000 q 343 993 285 1000 q 463 979 401 986 q 581 972 525 972 q 678 983 635 972 q 744 1021 721 993 q 787 972 772 1003 q 801 904 801 940 q 784 831 801 867 q 731 773 767 796 q 636 750 694 750 q 503 769 575 750 q 354 803 431 789 q 365 742 361 772 q 368 679 368 711 q 365 610 368 644 q 357 540 363 576 q 428 568 386 556 q 513 589 469 581 q 592 597 557 597 q 631 593 614 597 q 644 522 644 564 q 611 386 644 456 l 601 382 q 483 425 550 410 q 342 446 415 440 q 315 285 328 367 q 303 117 303 203 q 303 79 303 99 q 306 40 304 60 q 197 -6 260 -6 m 472 1056 q 397 1083 425 1056 q 371 1156 369 1111 q 411 1239 375 1207 q 500 1271 447 1271 q 577 1243 549 1271 q 603 1171 606 1215 q 563 1088 599 1119 q 472 1056 526 1056 z "},"Ƒ":{"ha":874,"x_min":-103,"x_max":914,"o":"m 114 -193 q -6 -171 43 -193 q -78 -114 -54 -149 q -103 -43 -103 -79 q -51 52 -103 10 q 107 94 0 94 q 98 41 101 68 q 94 -7 94 14 q 99 -36 94 -25 q 115 -47 103 -47 q 162 -1 140 -47 q 201 123 183 46 q 234 294 219 200 q 260 482 249 388 q 278 657 271 576 q 285 751 282 708 q 288 813 288 794 q 214 793 250 807 q 143 753 178 779 q 158 895 143 840 q 218 975 174 950 q 350 1000 263 1000 q 456 993 397 1000 q 576 979 514 986 q 693 972 638 972 q 790 983 747 972 q 857 1021 833 993 q 899 972 885 1003 q 914 904 914 940 q 897 831 914 867 q 843 773 879 796 q 749 750 807 750 q 620 769 689 750 q 486 801 551 788 l 486 753 q 484 648 486 701 q 479 540 482 594 q 599 584 536 572 q 706 596 663 596 q 727 596 717 596 q 743 593 738 596 q 757 524 757 564 q 724 386 757 456 l 714 382 q 597 425 663 410 q 468 446 531 440 q 409 91 446 233 q 303 -122 372 -51 q 114 -193 233 -193 z "},"Ǵ":{"ha":863,"x_min":54,"x_max":818,"o":"m 590 -211 q 572 -210 581 -211 q 553 -208 563 -210 q 540 -90 544 -149 q 535 22 536 -31 q 397 -8 468 -8 q 230 40 308 -8 q 103 189 151 89 q 54 440 54 289 q 100 694 54 588 q 219 871 146 801 q 379 974 293 940 q 546 1007 465 1007 q 678 983 618 1007 q 773 915 738 958 q 808 810 808 871 q 781 715 808 760 q 696 644 753 671 q 551 617 639 617 q 571 689 565 657 q 576 744 576 721 q 554 816 576 797 q 503 835 532 835 q 400 783 446 835 q 328 649 354 732 q 301 472 301 567 q 354 261 301 338 q 486 185 407 185 q 550 197 517 185 l 550 199 q 569 365 550 303 q 617 453 588 426 q 679 479 647 479 q 745 456 714 479 q 797 395 776 432 q 818 315 818 358 q 797 237 818 276 q 724 165 775 197 q 719 143 721 154 q 718 121 718 132 q 734 36 718 83 q 785 -96 750 -11 q 747 -154 776 -128 q 676 -196 717 -181 q 590 -211 635 -211 m 515 1057 q 489 1066 497 1057 q 481 1088 481 1075 q 482 1100 481 1096 q 545 1158 513 1119 q 599 1242 578 1197 q 615 1321 619 1286 q 732 1296 696 1322 q 768 1232 768 1269 q 740 1160 768 1197 q 660 1095 711 1124 q 536 1058 608 1067 q 526 1057 531 1057 q 515 1057 521 1057 z "},"Ğ":{"ha":863,"x_min":54,"x_max":818,"o":"m 590 -211 q 572 -210 581 -211 q 553 -208 563 -210 q 540 -90 544 -149 q 535 22 536 -31 q 397 -8 468 -8 q 230 40 308 -8 q 103 189 151 89 q 54 440 54 289 q 100 694 54 588 q 219 871 146 801 q 379 974 293 940 q 546 1007 465 1007 q 678 983 618 1007 q 773 915 738 958 q 808 810 808 871 q 781 715 808 760 q 696 644 753 671 q 551 617 639 617 q 571 689 565 657 q 576 744 576 721 q 554 816 576 797 q 503 835 532 835 q 400 783 446 835 q 328 649 354 732 q 301 472 301 567 q 354 261 301 338 q 486 185 407 185 q 550 197 517 185 l 550 199 q 569 365 550 303 q 617 453 588 426 q 679 479 647 479 q 745 456 714 479 q 797 395 776 432 q 818 315 818 358 q 797 237 818 276 q 724 165 775 197 q 719 143 721 154 q 718 121 718 132 q 734 36 718 83 q 785 -96 750 -11 q 747 -154 776 -128 q 676 -196 717 -181 q 590 -211 635 -211 m 556 1056 q 424 1085 471 1056 q 367 1157 378 1115 q 377 1235 357 1199 q 444 1286 397 1272 q 451 1279 457 1289 q 472 1239 446 1253 q 541 1222 499 1225 q 627 1226 583 1219 q 701 1247 671 1232 q 731 1285 731 1263 q 739 1290 731 1293 q 797 1238 788 1275 q 782 1158 807 1200 q 699 1085 757 1115 q 556 1056 642 1056 z "},"Ǧ":{"ha":863,"x_min":54,"x_max":833,"o":"m 590 -211 q 572 -210 581 -211 q 553 -208 563 -210 q 540 -90 544 -149 q 535 22 536 -31 q 397 -8 468 -8 q 230 40 308 -8 q 103 189 151 89 q 54 440 54 289 q 100 694 54 588 q 219 871 146 801 q 379 974 293 940 q 546 1007 465 1007 q 678 983 618 1007 q 773 915 738 958 q 808 810 808 871 q 781 715 808 760 q 696 644 753 671 q 551 617 639 617 q 571 689 565 657 q 576 744 576 721 q 554 816 576 797 q 503 835 532 835 q 400 783 446 835 q 328 649 354 732 q 301 472 301 567 q 354 261 301 338 q 486 185 407 185 q 550 197 517 185 l 550 199 q 569 365 550 303 q 617 453 588 426 q 679 479 647 479 q 745 456 714 479 q 797 395 776 432 q 818 315 818 358 q 797 237 818 276 q 724 165 775 197 q 719 143 721 154 q 718 121 718 132 q 734 36 718 83 q 785 -96 750 -11 q 747 -154 776 -128 q 676 -196 717 -181 q 590 -211 635 -211 m 550 1063 q 477 1088 514 1063 q 411 1155 440 1114 q 369 1240 382 1196 q 383 1291 361 1274 q 432 1303 404 1308 q 517 1242 481 1265 q 578 1218 553 1218 q 658 1242 604 1218 q 776 1299 713 1267 q 806 1299 790 1304 q 827 1281 821 1294 q 821 1244 833 1267 q 768 1178 801 1211 q 695 1120 735 1146 q 617 1078 656 1094 q 550 1063 579 1063 z "},"Ĝ":{"ha":863,"x_min":54,"x_max":818,"o":"m 590 -211 q 572 -210 581 -211 q 553 -208 563 -210 q 540 -90 544 -149 q 535 22 536 -31 q 397 -8 468 -8 q 230 40 308 -8 q 103 189 151 89 q 54 440 54 289 q 100 694 54 588 q 219 871 146 801 q 379 974 293 940 q 546 1007 465 1007 q 678 983 618 1007 q 773 915 738 958 q 808 810 808 871 q 781 715 808 760 q 696 644 753 671 q 551 617 639 617 q 571 689 565 657 q 576 744 576 721 q 554 816 576 797 q 503 835 532 835 q 400 783 446 835 q 328 649 354 732 q 301 472 301 567 q 354 261 301 338 q 486 185 407 185 q 550 197 517 185 l 550 199 q 569 365 550 303 q 617 453 588 426 q 679 479 647 479 q 745 456 714 479 q 797 395 776 432 q 818 315 818 358 q 797 237 818 276 q 724 165 775 197 q 719 143 721 154 q 718 121 718 132 q 734 36 718 83 q 785 -96 750 -11 q 747 -154 776 -128 q 676 -196 717 -181 q 590 -211 635 -211 m 374 1046 q 326 1057 342 1040 q 321 1099 310 1074 q 401 1205 350 1161 q 508 1272 453 1249 q 604 1296 564 1296 q 681 1268 639 1296 q 756 1197 722 1240 q 799 1106 790 1153 q 785 1057 806 1071 q 733 1049 765 1043 q 679 1085 710 1068 q 621 1113 649 1101 q 576 1124 593 1124 q 526 1113 560 1124 q 453 1085 493 1103 q 374 1046 413 1068 z "},"Ģ":{"ha":863,"x_min":54,"x_max":818,"o":"m 590 -211 q 572 -210 581 -211 q 553 -208 563 -210 q 540 -90 544 -149 q 535 22 536 -31 q 397 -8 468 -8 q 230 40 308 -8 q 103 189 151 89 q 54 440 54 289 q 100 694 54 588 q 219 871 146 801 q 379 974 293 940 q 546 1007 465 1007 q 678 983 618 1007 q 773 915 738 958 q 808 810 808 871 q 781 715 808 760 q 696 644 753 671 q 551 617 639 617 q 571 689 565 657 q 576 744 576 721 q 554 816 576 797 q 503 835 532 835 q 400 783 446 835 q 328 649 354 732 q 301 472 301 567 q 354 261 301 338 q 486 185 407 185 q 550 197 517 185 l 550 199 q 569 365 550 303 q 617 453 588 426 q 679 479 647 479 q 745 456 714 479 q 797 395 776 432 q 818 315 818 358 q 797 237 818 276 q 724 165 775 197 q 719 143 721 154 q 718 121 718 132 q 734 36 718 83 q 785 -96 750 -11 q 747 -154 776 -128 q 676 -196 717 -181 q 590 -211 635 -211 m 250 -375 q 226 -347 231 -375 q 267 -286 256 -319 q 278 -222 278 -253 q 271 -169 278 -193 q 256 -135 264 -144 l 253 -131 q 315 -100 285 -110 q 369 -90 344 -90 q 423 -104 401 -90 q 447 -146 444 -118 q 449 -161 449 -151 q 412 -257 449 -203 q 279 -365 375 -311 q 264 -372 271 -369 q 250 -375 257 -375 z "},"Ġ":{"ha":863,"x_min":54,"x_max":818,"o":"m 590 -211 q 572 -210 581 -211 q 553 -208 563 -210 q 540 -90 544 -149 q 535 22 536 -31 q 397 -8 468 -8 q 230 40 308 -8 q 103 189 151 89 q 54 440 54 289 q 100 694 54 588 q 219 871 146 801 q 379 974 293 940 q 546 1007 465 1007 q 678 983 618 1007 q 773 915 738 958 q 808 810 808 871 q 781 715 808 760 q 696 644 753 671 q 551 617 639 617 q 571 689 565 657 q 576 744 576 721 q 554 816 576 797 q 503 835 532 835 q 400 783 446 835 q 328 649 354 732 q 301 472 301 567 q 354 261 301 338 q 486 185 407 185 q 550 197 517 185 l 550 199 q 569 365 550 303 q 617 453 588 426 q 679 479 647 479 q 745 456 714 479 q 797 395 776 432 q 818 315 818 358 q 797 237 818 276 q 724 165 775 197 q 719 143 721 154 q 718 121 718 132 q 734 36 718 83 q 785 -96 750 -11 q 747 -154 776 -128 q 676 -196 717 -181 q 590 -211 635 -211 m 551 1056 q 476 1083 504 1056 q 450 1156 449 1111 q 490 1239 454 1207 q 579 1271 526 1271 q 656 1243 628 1271 q 682 1171 685 1215 q 642 1088 678 1119 q 551 1056 606 1056 z "},"Ɠ":{"ha":857,"x_min":54,"x_max":1051,"o":"m 590 -211 q 572 -210 581 -211 q 553 -208 563 -210 q 540 -90 544 -149 q 535 22 536 -31 q 397 -8 468 -8 q 230 40 308 -8 q 103 189 151 89 q 54 440 54 289 q 100 694 54 588 q 219 871 146 801 q 379 974 293 940 q 547 1007 465 1007 q 604 1003 578 1007 q 583 1059 590 1032 q 576 1108 576 1086 q 616 1215 576 1172 q 717 1281 656 1258 q 844 1303 779 1303 q 960 1281 914 1303 q 1028 1223 1006 1258 q 1051 1149 1051 1188 q 1026 1070 1051 1108 q 952 1008 1001 1032 q 828 983 903 983 q 853 1117 853 1067 q 811 1188 853 1188 q 766 1156 785 1188 q 747 1067 747 1124 q 749 1040 747 1054 q 753 1007 750 1025 q 786 897 764 951 q 808 796 808 842 q 781 711 808 753 q 696 643 753 669 q 551 617 639 617 q 571 689 565 657 q 576 744 576 721 q 554 816 576 797 q 503 835 532 835 q 400 783 446 835 q 328 649 354 732 q 301 472 301 567 q 354 261 301 338 q 486 185 407 185 q 550 197 517 185 l 550 199 q 569 365 550 303 q 617 453 588 426 q 679 479 647 479 q 745 456 714 479 q 797 395 776 432 q 818 315 818 358 q 797 237 818 276 q 724 165 775 197 q 719 143 721 154 q 718 121 718 132 q 734 36 718 83 q 785 -96 750 -11 q 747 -154 776 -128 q 676 -196 717 -181 q 590 -211 635 -211 z "},"Ɂ":{"ha":653,"x_min":51,"x_max":660,"o":"m 260 -8 q 172 12 213 -8 q 131 75 131 32 q 163 299 131 207 q 247 459 196 390 q 349 586 297 528 q 412 668 382 625 q 442 767 442 711 q 419 835 442 813 q 367 858 397 858 q 288 818 326 858 q 250 697 250 778 q 252 662 250 681 q 260 622 254 643 q 103 667 154 621 q 51 776 51 714 q 88 884 51 831 q 191 973 124 938 q 353 1008 258 1008 q 501 981 431 1008 q 615 894 571 953 q 660 746 660 836 q 643 649 660 690 q 599 576 626 608 q 543 513 572 543 q 472 433 507 475 q 408 334 436 390 q 364 201 379 278 q 353 18 349 125 q 313 -1 339 6 q 260 -8 288 -8 z "},"Ḡ":{"ha":863,"x_min":54,"x_max":819,"o":"m 590 -211 q 572 -210 581 -211 q 553 -208 563 -210 q 540 -90 544 -149 q 535 22 536 -31 q 397 -8 468 -8 q 230 40 308 -8 q 103 189 151 89 q 54 440 54 289 q 100 694 54 588 q 219 871 146 801 q 379 974 293 940 q 546 1007 465 1007 q 678 983 618 1007 q 773 915 738 958 q 808 810 808 871 q 781 715 808 760 q 696 644 753 671 q 551 617 639 617 q 571 689 565 657 q 576 744 576 721 q 554 816 576 797 q 503 835 532 835 q 400 783 446 835 q 328 649 354 732 q 301 472 301 567 q 354 261 301 338 q 486 185 407 185 q 550 197 517 185 l 550 199 q 569 365 550 303 q 617 453 588 426 q 679 479 647 479 q 745 456 714 479 q 797 395 776 432 q 818 315 818 358 q 797 237 818 276 q 724 165 775 197 q 719 143 721 154 q 718 121 718 132 q 734 36 718 83 q 785 -96 750 -11 q 747 -154 776 -128 q 676 -196 717 -181 q 590 -211 635 -211 m 322 1064 q 311 1093 314 1079 q 308 1119 308 1107 q 349 1193 308 1164 q 478 1222 389 1222 q 539 1222 493 1222 q 635 1221 585 1221 q 730 1223 686 1221 q 796 1233 774 1225 q 819 1163 819 1199 q 781 1099 819 1124 q 635 1074 742 1074 q 572 1074 615 1074 q 489 1075 529 1075 q 392 1073 433 1075 q 322 1064 350 1071 z "},"Ǥ":{"ha":913,"x_min":54,"x_max":910,"o":"m 590 -211 q 572 -210 581 -211 q 553 -208 563 -210 q 540 -90 544 -149 q 535 22 536 -31 q 397 -8 468 -8 q 230 40 308 -8 q 103 189 151 89 q 54 440 54 289 q 100 694 54 588 q 219 871 146 801 q 379 974 293 940 q 546 1007 465 1007 q 678 983 618 1007 q 773 915 738 958 q 808 810 808 871 q 781 715 808 760 q 696 644 753 671 q 551 617 639 617 q 571 689 565 657 q 576 744 576 721 q 554 816 576 797 q 503 835 532 835 q 400 783 446 835 q 328 649 354 732 q 301 472 301 567 q 354 261 301 338 q 486 185 407 185 q 550 197 517 185 l 550 199 q 550 219 550 210 q 551 236 550 228 q 517 238 533 238 q 492 239 501 239 q 419 260 442 240 q 397 307 397 281 q 408 344 397 326 q 439 376 418 363 q 508 369 476 372 q 569 364 540 367 q 617 453 588 426 q 679 479 647 479 q 756 447 719 479 q 808 369 793 415 q 842 373 825 371 q 878 376 860 375 q 910 311 910 356 q 890 261 910 285 q 821 235 869 238 q 808 235 815 235 q 794 233 801 235 q 724 165 771 194 q 719 143 721 154 q 718 121 718 132 q 734 36 718 83 q 785 -96 750 -11 q 747 -154 776 -128 q 676 -196 717 -181 q 590 -211 635 -211 z "},"Ħ":{"ha":1069,"x_min":49,"x_max":1074,"o":"m 236 -6 q 143 39 185 -6 q 101 178 101 83 q 119 315 101 242 q 160 465 138 388 q 199 624 183 543 q 111 616 147 621 q 60 603 75 611 q 51 633 54 618 q 49 661 49 649 q 84 743 49 714 q 171 772 119 772 l 213 772 q 194 913 214 876 l 194 921 q 259 982 219 963 q 338 1001 299 1001 q 422 977 385 1001 q 463 911 458 953 q 458 838 461 874 q 451 767 456 801 l 699 763 q 703 803 701 783 q 704 840 704 822 q 703 877 704 860 q 697 910 701 894 l 697 921 q 776 981 735 961 q 854 1000 818 1000 q 935 965 904 1000 q 964 863 967 929 q 958 816 963 839 q 947 767 954 793 q 1054 783 1032 771 q 1074 713 1074 744 q 1042 642 1074 671 q 949 614 1010 614 l 901 614 q 863 483 882 550 q 832 356 844 417 q 819 249 819 294 q 833 181 819 206 q 878 156 847 156 q 939 196 918 156 l 947 192 q 915 89 946 133 q 840 19 885 44 q 747 -6 794 -6 q 669 16 706 -6 q 609 84 632 38 q 586 206 586 131 q 590 269 586 236 q 601 338 594 303 q 524 342 560 340 q 456 344 488 344 q 413 344 433 344 q 375 342 393 343 q 363 214 363 274 q 366 158 363 185 q 378 106 369 131 q 316 22 356 49 q 236 -6 276 -6 m 397 461 q 483 479 438 474 q 579 485 528 485 q 608 485 593 485 q 636 483 622 485 q 653 552 644 518 q 671 619 663 586 q 550 623 611 622 q 429 625 489 624 q 413 541 422 582 q 397 461 404 500 z "},"Ḫ":{"ha":908,"x_min":28,"x_max":888,"o":"m 163 -6 q 74 38 113 -6 q 35 175 35 82 q 52 306 35 240 q 88 425 69 371 q 136 589 115 514 q 157 732 157 664 q 147 797 157 779 q 119 815 136 815 q 80 796 101 815 q 38 736 58 776 l 28 739 q 63 878 31 819 q 143 968 94 936 q 243 1000 192 1000 q 343 953 301 1000 q 385 793 385 907 q 373 668 385 733 q 346 538 361 603 q 446 565 393 557 q 558 574 499 574 l 594 574 q 626 710 613 643 q 639 836 639 778 q 637 875 639 857 q 632 910 635 893 l 632 921 q 692 981 653 958 q 772 1003 732 1003 q 853 973 818 1003 q 888 878 888 943 q 869 753 888 829 q 826 596 850 676 q 776 405 799 497 q 753 249 753 313 q 767 181 753 206 q 811 156 781 156 q 874 196 853 156 l 882 192 q 850 89 881 133 q 774 19 819 44 q 682 -6 729 -6 q 603 16 640 -6 q 544 83 567 38 q 521 203 521 129 q 531 309 521 251 q 556 426 542 367 q 431 431 492 431 q 372 429 400 431 q 319 425 344 428 q 298 316 307 369 q 289 213 289 263 q 292 158 289 185 q 304 106 296 131 q 242 23 282 51 q 163 -6 203 -6 m 375 -294 q 229 -253 275 -294 q 183 -165 183 -212 q 204 -103 183 -132 q 264 -64 225 -75 q 271 -71 276 -61 q 302 -115 265 -101 q 389 -129 339 -129 q 465 -122 428 -129 q 526 -99 501 -114 q 550 -65 550 -85 q 558 -60 550 -57 q 605 -90 590 -69 q 619 -135 619 -110 q 591 -206 619 -169 q 508 -269 563 -243 q 375 -294 454 -294 z "},"Ȟ":{"ha":908,"x_min":28,"x_max":888,"o":"m 163 -6 q 74 38 113 -6 q 35 175 35 82 q 52 306 35 240 q 88 425 69 371 q 136 589 115 514 q 157 732 157 664 q 147 797 157 779 q 119 815 136 815 q 80 796 101 815 q 38 736 58 776 l 28 739 q 63 878 31 819 q 143 968 94 936 q 243 1000 192 1000 q 343 953 301 1000 q 385 793 385 907 q 373 668 385 733 q 346 538 361 603 q 446 565 393 557 q 558 574 499 574 l 594 574 q 626 710 613 643 q 639 836 639 778 q 637 875 639 857 q 632 910 635 893 l 632 921 q 692 981 653 958 q 772 1003 732 1003 q 853 973 818 1003 q 888 878 888 943 q 869 753 888 829 q 826 596 850 676 q 776 405 799 497 q 753 249 753 313 q 767 181 753 206 q 811 156 781 156 q 874 196 853 156 l 882 192 q 850 89 881 133 q 774 19 819 44 q 682 -6 729 -6 q 603 16 640 -6 q 544 83 567 38 q 521 203 521 129 q 531 309 521 251 q 556 426 542 367 q 431 431 492 431 q 372 429 400 431 q 319 425 344 428 q 298 316 307 369 q 289 213 289 263 q 292 158 289 185 q 304 106 296 131 q 242 23 282 51 q 163 -6 203 -6 m 500 1063 q 427 1088 464 1063 q 361 1155 390 1114 q 319 1240 332 1196 q 333 1291 311 1274 q 382 1303 354 1308 q 467 1242 431 1265 q 528 1218 503 1218 q 608 1242 554 1218 q 726 1299 663 1267 q 756 1299 740 1304 q 777 1281 771 1294 q 771 1244 783 1267 q 718 1178 751 1211 q 645 1120 685 1146 q 567 1078 606 1094 q 500 1063 529 1063 z "},"Ĥ":{"ha":908,"x_min":28,"x_max":888,"o":"m 163 -6 q 74 38 113 -6 q 35 175 35 82 q 52 306 35 240 q 88 425 69 371 q 136 589 115 514 q 157 732 157 664 q 147 797 157 779 q 119 815 136 815 q 80 796 101 815 q 38 736 58 776 l 28 739 q 63 878 31 819 q 143 968 94 936 q 243 1000 192 1000 q 343 953 301 1000 q 385 793 385 907 q 373 668 385 733 q 346 538 361 603 q 446 565 393 557 q 558 574 499 574 l 594 574 q 626 710 613 643 q 639 836 639 778 q 637 875 639 857 q 632 910 635 893 l 632 921 q 692 981 653 958 q 772 1003 732 1003 q 853 973 818 1003 q 888 878 888 943 q 869 753 888 829 q 826 596 850 676 q 776 405 799 497 q 753 249 753 313 q 767 181 753 206 q 811 156 781 156 q 874 196 853 156 l 882 192 q 850 89 881 133 q 774 19 819 44 q 682 -6 729 -6 q 603 16 640 -6 q 544 83 567 38 q 521 203 521 129 q 531 309 521 251 q 556 426 542 367 q 431 431 492 431 q 372 429 400 431 q 319 425 344 428 q 298 316 307 369 q 289 213 289 263 q 292 158 289 185 q 304 106 296 131 q 242 23 282 51 q 163 -6 203 -6 m 324 1046 q 276 1057 292 1040 q 271 1099 260 1074 q 351 1205 300 1161 q 458 1272 403 1249 q 554 1296 514 1296 q 631 1268 589 1296 q 706 1197 672 1240 q 749 1106 740 1153 q 735 1057 756 1071 q 683 1049 715 1043 q 629 1085 660 1068 q 571 1113 599 1101 q 526 1124 543 1124 q 476 1113 510 1124 q 403 1085 443 1103 q 324 1046 363 1068 z "},"Ḧ":{"ha":908,"x_min":28,"x_max":888,"o":"m 163 -6 q 74 38 113 -6 q 35 175 35 82 q 52 306 35 240 q 88 425 69 371 q 136 589 115 514 q 157 732 157 664 q 147 797 157 779 q 119 815 136 815 q 80 796 101 815 q 38 736 58 776 l 28 739 q 63 878 31 819 q 143 968 94 936 q 243 1000 192 1000 q 343 953 301 1000 q 385 793 385 907 q 373 668 385 733 q 346 538 361 603 q 446 565 393 557 q 558 574 499 574 l 594 574 q 626 710 613 643 q 639 836 639 778 q 637 875 639 857 q 632 910 635 893 l 632 921 q 692 981 653 958 q 772 1003 732 1003 q 853 973 818 1003 q 888 878 888 943 q 869 753 888 829 q 826 596 850 676 q 776 405 799 497 q 753 249 753 313 q 767 181 753 206 q 811 156 781 156 q 874 196 853 156 l 882 192 q 850 89 881 133 q 774 19 819 44 q 682 -6 729 -6 q 603 16 640 -6 q 544 83 567 38 q 521 203 521 129 q 531 309 521 251 q 556 426 542 367 q 431 431 492 431 q 372 429 400 431 q 319 425 344 428 q 298 316 307 369 q 289 213 289 263 q 292 158 289 185 q 304 106 296 131 q 242 23 282 51 q 163 -6 203 -6 m 633 1056 q 557 1083 585 1056 q 533 1153 529 1110 q 572 1238 536 1206 q 660 1271 607 1271 q 737 1243 708 1271 q 763 1171 765 1215 q 725 1088 761 1119 q 633 1056 689 1056 m 371 1056 q 294 1083 322 1056 q 269 1153 267 1110 q 307 1238 272 1206 q 397 1271 342 1271 q 474 1243 446 1271 q 499 1171 501 1215 q 460 1088 496 1119 q 371 1056 424 1056 z "},"Ḣ":{"ha":908,"x_min":28,"x_max":888,"o":"m 163 -6 q 74 38 113 -6 q 35 175 35 82 q 52 306 35 240 q 88 425 69 371 q 136 589 115 514 q 157 732 157 664 q 147 797 157 779 q 119 815 136 815 q 80 796 101 815 q 38 736 58 776 l 28 739 q 63 878 31 819 q 143 968 94 936 q 243 1000 192 1000 q 343 953 301 1000 q 385 793 385 907 q 373 668 385 733 q 346 538 361 603 q 446 565 393 557 q 558 574 499 574 l 594 574 q 626 710 613 643 q 639 836 639 778 q 637 875 639 857 q 632 910 635 893 l 632 921 q 692 981 653 958 q 772 1003 732 1003 q 853 973 818 1003 q 888 878 888 943 q 869 753 888 829 q 826 596 850 676 q 776 405 799 497 q 753 249 753 313 q 767 181 753 206 q 811 156 781 156 q 874 196 853 156 l 882 192 q 850 89 881 133 q 774 19 819 44 q 682 -6 729 -6 q 603 16 640 -6 q 544 83 567 38 q 521 203 521 129 q 531 309 521 251 q 556 426 542 367 q 431 431 492 431 q 372 429 400 431 q 319 425 344 428 q 298 316 307 369 q 289 213 289 263 q 292 158 289 185 q 304 106 296 131 q 242 23 282 51 q 163 -6 203 -6 m 501 1056 q 426 1083 454 1056 q 400 1156 399 1111 q 440 1239 404 1207 q 529 1271 476 1271 q 606 1243 578 1271 q 632 1171 635 1215 q 592 1088 628 1119 q 501 1056 556 1056 z "},"Ḥ":{"ha":908,"x_min":28,"x_max":888,"o":"m 163 -6 q 74 38 113 -6 q 35 175 35 82 q 52 306 35 240 q 88 425 69 371 q 136 589 115 514 q 157 732 157 664 q 147 797 157 779 q 119 815 136 815 q 80 796 101 815 q 38 736 58 776 l 28 739 q 63 878 31 819 q 143 968 94 936 q 243 1000 192 1000 q 343 953 301 1000 q 385 793 385 907 q 373 668 385 733 q 346 538 361 603 q 446 565 393 557 q 558 574 499 574 l 594 574 q 626 710 613 643 q 639 836 639 778 q 637 875 639 857 q 632 910 635 893 l 632 921 q 692 981 653 958 q 772 1003 732 1003 q 853 973 818 1003 q 888 878 888 943 q 869 753 888 829 q 826 596 850 676 q 776 405 799 497 q 753 249 753 313 q 767 181 753 206 q 811 156 781 156 q 874 196 853 156 l 882 192 q 850 89 881 133 q 774 19 819 44 q 682 -6 729 -6 q 603 16 640 -6 q 544 83 567 38 q 521 203 521 129 q 531 309 521 251 q 556 426 542 367 q 431 431 492 431 q 372 429 400 431 q 319 425 344 428 q 298 316 307 369 q 289 213 289 263 q 292 158 289 185 q 304 106 296 131 q 242 23 282 51 q 163 -6 203 -6 m 361 -319 q 283 -285 314 -319 q 254 -199 251 -250 q 298 -101 258 -142 q 389 -60 338 -60 q 469 -94 438 -60 q 497 -181 500 -129 q 453 -279 493 -239 q 361 -319 414 -319 z "},"Ɦ":{"ha":1092,"x_min":49,"x_max":1056,"o":"m 325 -6 q 232 35 274 -6 q 190 149 190 76 q 213 318 190 239 q 263 470 235 397 q 314 610 292 543 q 336 742 336 678 q 324 806 336 786 q 297 825 313 825 q 263 803 279 825 q 247 746 247 782 q 256 701 247 725 q 282 649 264 676 q 225 613 253 624 q 172 601 197 601 q 83 645 118 601 q 49 753 49 689 q 93 882 49 826 q 206 969 138 938 q 346 1000 275 1000 q 446 979 400 1000 q 519 913 492 958 q 547 790 547 867 q 535 672 547 738 q 507 538 522 606 q 604 565 551 557 q 719 574 657 574 l 749 574 q 780 713 767 644 q 793 838 793 781 q 791 876 793 858 q 786 910 789 894 l 786 921 q 865 981 824 961 q 943 1000 907 1000 q 1024 967 993 1000 q 1053 876 1056 933 q 1037 781 1051 840 q 1001 651 1022 722 q 958 506 979 579 q 922 365 936 432 q 908 250 908 299 q 922 181 908 207 q 967 156 936 156 q 1028 196 1007 156 l 1036 192 q 1004 89 1035 133 q 928 19 974 44 q 836 -6 883 -6 q 758 16 794 -6 q 698 84 721 38 q 675 204 675 131 q 685 310 675 254 q 710 426 696 367 q 590 431 646 431 q 534 429 561 431 q 481 425 507 428 q 460 316 468 369 q 451 214 451 263 q 455 158 451 186 q 467 106 458 131 q 405 22 444 49 q 325 -6 365 -6 z "},"Ɥ":{"ha":801,"x_min":64,"x_max":819,"o":"m 547 -6 q 452 38 490 -6 q 419 174 414 81 q 444 309 422 232 q 490 469 465 386 q 392 374 447 413 q 281 322 338 336 q 178 321 225 308 q 105 377 132 333 q 82 499 78 421 q 101 610 85 557 q 133 710 117 663 q 150 797 149 757 q 145 839 153 824 q 118 854 138 854 q 92 845 104 854 q 72 825 79 836 l 64 832 q 95 924 67 886 q 165 981 124 961 q 250 1000 207 1000 q 351 962 307 1000 q 390 838 394 924 q 372 732 388 789 q 340 622 356 675 q 322 533 325 569 q 356 485 319 485 q 423 506 385 485 q 494 568 461 528 q 546 664 528 608 q 561 739 556 703 q 568 807 567 775 q 558 904 571 882 l 557 908 q 616 978 576 953 q 699 1003 656 1003 q 783 967 747 1003 q 815 849 819 931 q 789 699 811 779 q 739 534 767 618 q 690 370 711 450 q 667 222 669 290 q 693 104 664 154 q 626 19 671 44 q 547 -6 582 -6 z "},"Ĳ":{"ha":1210,"x_min":42,"x_max":1242,"o":"m 140 -7 q 72 26 101 -7 q 42 147 42 58 q 42 174 42 163 q 43 192 43 186 q 59 330 49 247 q 83 503 69 413 q 112 679 97 594 q 139 827 126 764 q 160 914 151 890 q 215 980 175 956 q 296 1004 254 1004 q 362 983 332 1004 q 403 913 392 963 q 376 815 394 885 q 338 643 358 744 q 298 419 317 542 q 268 164 279 297 q 264 109 267 140 q 260 46 261 78 q 210 10 243 28 q 140 -7 176 -7 m 733 -193 q 615 -165 671 -193 q 526 -89 560 -137 q 492 21 492 -40 l 508 29 q 639 -19 574 -19 q 710 1 676 -19 q 769 75 743 22 q 809 221 794 128 q 824 460 824 314 q 840 665 824 583 q 906 815 856 747 q 863 838 888 828 q 813 849 839 849 q 740 816 768 849 q 711 733 711 783 q 720 678 711 707 q 749 619 729 649 q 610 649 665 619 q 528 725 556 679 q 501 821 501 771 q 526 915 501 871 q 599 988 550 960 q 717 1017 647 1017 q 838 995 771 1017 q 983 924 904 974 q 1071 994 1032 981 q 1132 1008 1110 1008 q 1215 970 1189 1008 q 1242 879 1242 932 q 1228 811 1242 844 q 1188 756 1215 778 q 1115 735 1160 735 q 1085 738 1101 735 q 1050 747 1069 740 q 1036 689 1040 722 q 1032 617 1032 656 q 1040 453 1032 540 q 1049 283 1049 367 q 1021 62 1049 153 q 947 -85 993 -29 q 846 -167 901 -142 q 733 -193 790 -193 z "},"Í":{"ha":438,"x_min":42,"x_max":524,"o":"m 140 -7 q 72 26 101 -7 q 42 147 42 58 q 42 174 42 163 q 43 192 43 186 q 59 330 49 247 q 83 503 69 413 q 112 679 97 594 q 139 827 126 764 q 160 914 151 890 q 215 980 175 956 q 296 1004 254 1004 q 362 983 332 1004 q 403 913 392 963 q 376 815 394 885 q 338 643 358 744 q 298 419 317 542 q 268 164 279 297 q 264 109 267 140 q 260 46 261 78 q 210 10 243 28 q 140 -7 176 -7 m 271 1057 q 244 1066 253 1057 q 236 1088 236 1075 q 238 1100 236 1096 q 301 1158 268 1119 q 354 1242 333 1197 q 371 1321 375 1286 q 488 1296 451 1322 q 524 1232 524 1269 q 495 1160 524 1197 q 415 1095 467 1124 q 292 1058 364 1067 q 281 1057 286 1057 q 271 1057 276 1057 z "},"Ǐ":{"ha":438,"x_min":42,"x_max":589,"o":"m 140 -7 q 72 26 101 -7 q 42 147 42 58 q 42 174 42 163 q 43 192 43 186 q 59 330 49 247 q 83 503 69 413 q 112 679 97 594 q 139 827 126 764 q 160 914 151 890 q 215 980 175 956 q 296 1004 254 1004 q 362 983 332 1004 q 403 913 392 963 q 376 815 394 885 q 338 643 358 744 q 298 419 317 542 q 268 164 279 297 q 264 109 267 140 q 260 46 261 78 q 210 10 243 28 q 140 -7 176 -7 m 306 1063 q 233 1088 269 1063 q 167 1155 196 1114 q 125 1240 138 1196 q 138 1291 117 1274 q 188 1303 160 1308 q 272 1242 236 1265 q 333 1218 308 1218 q 414 1242 360 1218 q 532 1299 468 1267 q 561 1299 546 1304 q 583 1281 576 1294 q 576 1244 589 1267 q 524 1178 557 1211 q 451 1120 490 1146 q 373 1078 411 1094 q 306 1063 335 1063 z "},"Î":{"ha":438,"x_min":42,"x_max":561,"o":"m 140 -7 q 72 26 101 -7 q 42 147 42 58 q 42 174 42 163 q 43 192 43 186 q 59 330 49 247 q 83 503 69 413 q 112 679 97 594 q 139 827 126 764 q 160 914 151 890 q 215 980 175 956 q 296 1004 254 1004 q 362 983 332 1004 q 403 913 392 963 q 376 815 394 885 q 338 643 358 744 q 298 419 317 542 q 268 164 279 297 q 264 109 267 140 q 260 46 261 78 q 210 10 243 28 q 140 -7 176 -7 m 129 1046 q 81 1057 97 1040 q 76 1099 65 1074 q 157 1205 106 1161 q 264 1272 208 1249 q 360 1296 319 1296 q 436 1268 394 1296 q 512 1197 478 1240 q 554 1106 546 1153 q 541 1057 561 1071 q 489 1049 521 1043 q 435 1085 465 1068 q 376 1113 404 1101 q 332 1124 349 1124 q 282 1113 315 1124 q 208 1085 249 1103 q 129 1046 168 1068 z "},"Ȉ":{"ha":438,"x_min":13,"x_max":539,"o":"m 140 -7 q 72 26 101 -7 q 42 147 42 58 q 42 174 42 163 q 43 192 43 186 q 59 330 49 247 q 83 503 69 413 q 112 679 97 594 q 139 827 126 764 q 160 914 151 890 q 215 980 175 956 q 296 1004 254 1004 q 362 983 332 1004 q 403 913 392 963 q 376 815 394 885 q 338 643 358 744 q 298 419 317 542 q 268 164 279 297 q 264 109 267 140 q 260 46 261 78 q 210 10 243 28 q 140 -7 176 -7 m 240 1046 q 203 1051 221 1046 q 57 1130 101 1082 q 13 1219 13 1178 q 43 1285 13 1258 q 129 1311 74 1311 q 190 1303 157 1311 q 208 1233 194 1274 q 238 1156 221 1193 q 271 1094 256 1118 q 281 1071 281 1083 q 269 1053 281 1060 q 240 1046 258 1046 m 497 1046 q 464 1051 481 1046 q 322 1135 367 1085 q 276 1226 276 1185 q 306 1287 276 1263 q 386 1311 335 1311 q 451 1303 417 1311 q 468 1233 456 1274 q 498 1156 481 1193 q 531 1094 515 1118 q 539 1074 539 1085 q 527 1053 539 1061 q 497 1046 515 1046 z "},"Ï":{"ha":438,"x_min":42,"x_max":571,"o":"m 140 -7 q 72 26 101 -7 q 42 147 42 58 q 42 174 42 163 q 43 192 43 186 q 59 330 49 247 q 83 503 69 413 q 112 679 97 594 q 139 827 126 764 q 160 914 151 890 q 215 980 175 956 q 296 1004 254 1004 q 362 983 332 1004 q 403 913 392 963 q 376 815 394 885 q 338 643 358 744 q 298 419 317 542 q 268 164 279 297 q 264 109 267 140 q 260 46 261 78 q 210 10 243 28 q 140 -7 176 -7 m 439 1056 q 363 1083 390 1056 q 339 1153 335 1110 q 377 1238 342 1206 q 465 1271 413 1271 q 542 1243 514 1271 q 568 1171 571 1215 q 531 1088 567 1119 q 439 1056 494 1056 m 176 1056 q 100 1083 128 1056 q 75 1153 72 1110 q 113 1238 78 1206 q 203 1271 147 1271 q 279 1243 251 1271 q 304 1171 307 1215 q 265 1088 301 1119 q 176 1056 229 1056 z "},"Ḯ":{"ha":438,"x_min":42,"x_max":571,"o":"m 140 -7 q 72 26 101 -7 q 42 147 42 58 q 42 174 42 163 q 43 192 43 186 q 59 330 49 247 q 83 503 69 413 q 112 679 97 594 q 139 827 126 764 q 160 914 151 890 q 215 980 175 956 q 296 1004 254 1004 q 362 983 332 1004 q 403 913 392 963 q 376 815 394 885 q 338 643 358 744 q 298 419 317 542 q 268 164 279 297 q 264 109 267 140 q 260 46 261 78 q 210 10 243 28 q 140 -7 176 -7 m 439 1056 q 363 1083 390 1056 q 339 1153 335 1110 q 377 1238 342 1206 q 465 1271 413 1271 q 542 1243 514 1271 q 568 1171 571 1215 q 531 1088 567 1119 q 439 1056 494 1056 m 176 1056 q 100 1083 128 1056 q 75 1153 72 1110 q 113 1238 78 1206 q 203 1271 147 1271 q 279 1243 251 1271 q 304 1171 307 1215 q 265 1088 301 1119 q 176 1056 229 1056 m 296 1293 q 269 1302 278 1293 q 261 1324 261 1311 q 263 1336 261 1332 q 326 1394 293 1356 q 379 1478 358 1433 q 396 1557 400 1522 q 513 1532 476 1558 q 549 1468 549 1506 q 520 1397 549 1433 q 440 1331 492 1360 q 317 1294 389 1303 q 306 1293 311 1293 q 296 1293 301 1293 z "},"İ":{"ha":438,"x_min":42,"x_max":440,"o":"m 140 -7 q 72 26 101 -7 q 42 147 42 58 q 42 174 42 163 q 43 192 43 186 q 59 330 49 247 q 83 503 69 413 q 112 679 97 594 q 139 827 126 764 q 160 914 151 890 q 215 980 175 956 q 296 1004 254 1004 q 362 983 332 1004 q 403 913 392 963 q 376 815 394 885 q 338 643 358 744 q 298 419 317 542 q 268 164 279 297 q 264 109 267 140 q 260 46 261 78 q 210 10 243 28 q 140 -7 176 -7 m 307 1056 q 232 1083 260 1056 q 206 1156 204 1111 q 246 1239 210 1207 q 335 1271 282 1271 q 412 1243 383 1271 q 438 1171 440 1215 q 397 1088 433 1119 q 307 1056 361 1056 z "},"Ị":{"ha":438,"x_min":1,"x_max":403,"o":"m 140 -7 q 72 26 101 -7 q 42 147 42 58 q 42 174 42 163 q 43 192 43 186 q 59 330 49 247 q 83 503 69 413 q 112 679 97 594 q 139 827 126 764 q 160 914 151 890 q 215 980 175 956 q 296 1004 254 1004 q 362 983 332 1004 q 403 913 392 963 q 376 815 394 885 q 338 643 358 744 q 298 419 317 542 q 268 164 279 297 q 264 109 267 140 q 260 46 261 78 q 210 10 243 28 q 140 -7 176 -7 m 111 -319 q 33 -285 64 -319 q 4 -199 1 -250 q 48 -101 8 -142 q 139 -60 88 -60 q 219 -94 188 -60 q 247 -181 250 -129 q 203 -279 243 -239 q 111 -319 164 -319 z "},"Ì":{"ha":438,"x_min":42,"x_max":408,"o":"m 140 -7 q 72 26 101 -7 q 42 147 42 58 q 42 174 42 163 q 43 192 43 186 q 59 330 49 247 q 83 503 69 413 q 112 679 97 594 q 139 827 126 764 q 160 914 151 890 q 215 980 175 956 q 296 1004 254 1004 q 362 983 332 1004 q 403 913 392 963 q 376 815 394 885 q 338 643 358 744 q 298 419 317 542 q 268 164 279 297 q 264 109 267 140 q 260 46 261 78 q 210 10 243 28 q 140 -7 176 -7 m 374 1053 q 363 1053 368 1053 q 346 1054 357 1053 q 227 1091 278 1063 q 149 1156 176 1119 q 121 1228 121 1193 q 157 1292 121 1265 q 274 1317 193 1318 q 290 1238 269 1282 q 344 1154 311 1193 q 407 1096 376 1115 q 408 1083 408 1092 q 401 1062 408 1071 q 374 1053 393 1053 z "},"Ỉ":{"ha":438,"x_min":42,"x_max":563,"o":"m 140 -7 q 72 26 101 -7 q 42 147 42 58 q 42 174 42 163 q 43 192 43 186 q 59 330 49 247 q 83 503 69 413 q 112 679 97 594 q 139 827 126 764 q 160 914 151 890 q 215 980 175 956 q 296 1004 254 1004 q 362 983 332 1004 q 403 913 392 963 q 376 815 394 885 q 338 643 358 744 q 298 419 317 542 q 268 164 279 297 q 264 109 267 140 q 260 46 261 78 q 210 10 243 28 q 140 -7 176 -7 m 311 1069 q 263 1078 283 1069 q 242 1106 242 1088 q 269 1145 242 1129 q 335 1174 297 1161 q 400 1197 372 1186 q 428 1221 428 1208 q 385 1238 428 1238 q 312 1224 354 1238 q 231 1174 269 1210 q 175 1253 175 1211 q 204 1311 175 1285 q 282 1353 233 1338 q 386 1369 331 1369 q 511 1340 460 1369 q 563 1257 563 1310 q 535 1190 563 1217 q 473 1146 508 1164 q 410 1114 438 1128 q 382 1083 382 1100 q 348 1073 367 1076 q 311 1069 329 1069 z "},"Ȋ":{"ha":438,"x_min":42,"x_max":544,"o":"m 140 -7 q 72 26 101 -7 q 42 147 42 58 q 42 174 42 163 q 43 192 43 186 q 59 330 49 247 q 83 503 69 413 q 112 679 97 594 q 139 827 126 764 q 160 914 151 890 q 215 980 175 956 q 296 1004 254 1004 q 362 983 332 1004 q 403 913 392 963 q 376 815 394 885 q 338 643 358 744 q 298 419 317 542 q 268 164 279 297 q 264 109 267 140 q 260 46 261 78 q 210 10 243 28 q 140 -7 176 -7 m 457 1060 q 450 1067 444 1057 q 429 1107 456 1093 q 360 1125 403 1121 q 274 1124 318 1129 q 201 1103 231 1118 q 171 1067 171 1089 q 163 1061 171 1060 q 104 1113 114 1076 q 119 1191 94 1150 q 202 1261 144 1232 q 346 1290 260 1290 q 478 1260 432 1290 q 534 1189 524 1231 q 524 1110 544 1147 q 457 1060 504 1074 z "},"Ī":{"ha":438,"x_min":42,"x_max":575,"o":"m 140 -7 q 72 26 101 -7 q 42 147 42 58 q 42 174 42 163 q 43 192 43 186 q 59 330 49 247 q 83 503 69 413 q 112 679 97 594 q 139 827 126 764 q 160 914 151 890 q 215 980 175 956 q 296 1004 254 1004 q 362 983 332 1004 q 403 913 392 963 q 376 815 394 885 q 338 643 358 744 q 298 419 317 542 q 268 164 279 297 q 264 109 267 140 q 260 46 261 78 q 210 10 243 28 q 140 -7 176 -7 m 78 1064 q 67 1093 69 1079 q 64 1119 64 1107 q 104 1193 64 1164 q 233 1222 144 1222 q 294 1222 249 1222 q 390 1221 340 1221 q 485 1223 442 1221 q 551 1233 529 1225 q 575 1163 575 1199 q 536 1099 575 1124 q 390 1074 497 1074 q 328 1074 371 1074 q 244 1075 285 1075 q 147 1073 189 1075 q 78 1064 106 1071 z "},"Į":{"ha":438,"x_min":-49,"x_max":403,"o":"m 140 -7 q 72 26 101 -7 q 42 147 42 58 q 42 174 42 163 q 43 192 43 186 q 59 330 49 247 q 83 503 69 413 q 112 679 97 594 q 139 827 126 764 q 160 914 151 890 q 215 980 175 956 q 296 1004 254 1004 q 362 983 332 1004 q 403 913 392 963 q 376 815 394 885 q 338 643 358 744 q 298 419 317 542 q 268 164 279 297 q 264 109 267 140 q 260 46 261 78 q 210 10 243 28 q 140 -7 176 -7 m 128 -299 q 15 -267 58 -299 q -39 -187 -29 -236 q -19 -85 -49 -139 q 86 14 10 -31 l 215 14 q 147 -42 176 -11 q 117 -117 117 -72 q 138 -161 117 -149 q 183 -170 158 -174 q 223 -148 208 -167 q 226 -99 238 -129 l 229 -97 q 273 -120 258 -99 q 287 -171 288 -142 q 269 -230 286 -200 q 217 -279 251 -260 q 128 -299 182 -299 z "},"Ɩ":{"ha":478,"x_min":75,"x_max":436,"o":"m 236 -6 q 158 16 194 -6 q 98 85 121 38 q 75 208 75 132 q 99 381 75 286 q 160 599 124 476 q 173 644 165 615 q 187 706 181 674 q 193 764 193 738 q 164 819 193 819 q 128 799 147 819 q 93 738 108 778 l 83 740 q 133 885 97 828 q 213 972 168 943 q 301 1000 258 1000 q 395 958 356 1000 q 435 835 435 915 q 415 704 435 778 q 376 564 396 631 q 328 390 349 471 q 307 250 307 310 q 321 181 307 207 q 365 156 335 156 q 428 196 407 156 l 436 192 q 404 89 435 133 q 328 19 374 44 q 236 -6 283 -6 z "},"Ɨ":{"ha":590,"x_min":44,"x_max":590,"o":"m 246 -7 q 177 25 207 -7 q 147 142 147 57 q 159 290 147 194 q 188 493 171 385 q 118 488 153 492 q 47 478 83 483 q 45 501 46 490 q 44 524 44 513 q 65 619 44 574 q 210 636 139 629 q 244 817 228 738 q 268 918 260 896 q 321 981 282 957 q 401 1004 360 1004 q 467 983 438 1004 q 508 913 497 963 q 481 813 499 885 q 443 642 463 742 q 585 633 513 640 q 589 610 588 621 q 590 586 590 599 q 565 492 590 544 q 417 500 488 499 q 385 281 399 396 q 365 46 371 165 q 315 10 349 28 q 246 -7 282 -7 z "},"Ĩ":{"ha":438,"x_min":42,"x_max":590,"o":"m 140 -7 q 72 26 101 -7 q 42 147 42 58 q 42 174 42 163 q 43 192 43 186 q 59 330 49 247 q 83 503 69 413 q 112 679 97 594 q 139 827 126 764 q 160 914 151 890 q 215 980 175 956 q 296 1004 254 1004 q 362 983 332 1004 q 403 913 392 963 q 376 815 394 885 q 338 643 358 744 q 298 419 317 542 q 268 164 279 297 q 264 109 267 140 q 260 46 261 78 q 210 10 243 28 q 140 -7 176 -7 m 63 1056 q 50 1110 50 1083 q 100 1209 50 1167 q 226 1251 150 1251 q 300 1242 265 1251 q 369 1224 335 1233 q 438 1214 403 1214 q 499 1224 467 1214 q 569 1264 531 1235 q 590 1190 590 1226 q 547 1103 590 1139 q 410 1067 504 1067 q 316 1076 358 1067 q 238 1095 274 1086 q 168 1104 201 1104 q 116 1094 142 1104 q 63 1056 90 1083 z "},"Ḭ":{"ha":438,"x_min":-136,"x_max":422,"o":"m 140 -7 q 72 26 101 -7 q 42 147 42 58 q 42 174 42 163 q 43 192 43 186 q 59 330 49 247 q 83 503 69 413 q 112 679 97 594 q 139 827 126 764 q 160 914 151 890 q 215 980 175 956 q 296 1004 254 1004 q 362 983 332 1004 q 403 913 392 963 q 376 815 394 885 q 338 643 358 744 q 298 419 317 542 q 268 164 279 297 q 264 109 267 140 q 260 46 261 78 q 210 10 243 28 q 140 -7 176 -7 m -112 -278 q -90 -126 -136 -179 q 40 -72 -44 -72 q 136 -83 93 -72 q 219 -101 179 -93 q 302 -101 260 -108 q 394 -58 344 -93 q 415 -156 422 -108 q 365 -235 407 -204 q 247 -265 324 -265 q 130 -253 179 -265 q 42 -233 81 -242 q -34 -231 3 -224 q -112 -278 -71 -239 z "},"Ĵ":{"ha":739,"x_min":21,"x_max":771,"o":"m 263 -193 q 144 -165 200 -193 q 55 -89 89 -137 q 21 21 21 -40 l 38 29 q 168 -19 103 -19 q 239 1 206 -19 q 298 75 272 22 q 338 221 324 128 q 353 460 353 314 q 369 665 353 583 q 435 815 385 747 q 392 838 417 828 q 342 849 368 849 q 269 816 297 849 q 240 733 240 783 q 249 678 240 707 q 278 619 258 649 q 140 649 194 619 q 58 725 85 679 q 31 821 31 771 q 55 915 31 871 q 128 988 79 960 q 246 1017 176 1017 q 367 995 300 1017 q 513 924 433 974 q 600 994 561 981 q 661 1008 639 1008 q 744 970 718 1008 q 771 879 771 932 q 758 811 771 844 q 717 756 744 778 q 644 735 689 735 q 615 738 631 735 q 579 747 599 740 q 565 689 569 722 q 561 617 561 656 q 569 453 561 540 q 578 283 578 367 q 550 62 578 153 q 476 -85 522 -29 q 375 -167 431 -142 q 263 -193 319 -193 m 261 1046 q 213 1057 229 1040 q 208 1099 197 1074 q 289 1205 238 1161 q 396 1272 340 1249 q 492 1296 451 1296 q 568 1268 526 1296 q 644 1197 610 1240 q 686 1106 678 1153 q 673 1057 693 1071 q 621 1049 653 1043 q 567 1085 597 1068 q 508 1113 536 1101 q 464 1124 481 1124 q 414 1113 447 1124 q 340 1085 381 1103 q 261 1046 300 1068 z "},"Ʝ":{"ha":739,"x_min":31,"x_max":771,"o":"m 256 -193 q 141 -166 190 -193 q 65 -94 92 -139 q 39 1 39 -50 q 71 107 39 54 q 172 201 103 160 q 353 263 242 243 q 356 490 353 399 q 369 642 360 582 q 394 742 378 701 q 435 815 410 782 q 392 838 417 828 q 342 849 368 849 q 269 816 297 849 q 240 733 240 783 q 249 678 240 707 q 278 619 258 649 q 140 649 194 619 q 58 725 85 679 q 31 821 31 771 q 55 915 31 871 q 128 988 79 960 q 246 1017 176 1017 q 367 995 300 1017 q 513 924 433 974 q 600 994 561 981 q 661 1008 639 1008 q 744 970 718 1008 q 771 879 771 932 q 758 811 771 844 q 717 756 744 778 q 644 735 689 735 q 615 738 631 735 q 579 747 599 740 q 565 689 569 722 q 561 617 561 656 q 569 454 561 540 q 578 286 578 368 l 578 272 q 631 268 604 271 q 688 263 658 265 l 682 226 q 627 226 654 226 q 576 224 600 226 q 518 -19 567 72 q 399 -152 469 -111 q 256 -193 329 -193 m 211 -19 q 288 28 246 -19 q 346 168 329 75 q 222 83 261 131 q 182 8 182 36 q 211 -19 182 -19 z "},"Ɉ":{"ha":739,"x_min":21,"x_max":771,"o":"m 261 -193 q 144 -165 199 -193 q 55 -89 89 -137 q 21 21 21 -40 l 38 29 q 167 -19 103 -19 q 298 49 243 -19 q 353 257 353 118 q 353 352 353 308 q 354 435 353 396 l 276 439 q 206 464 229 442 q 183 513 183 486 q 215 574 183 549 q 289 567 253 569 q 360 563 325 564 q 385 717 368 663 q 435 815 403 772 q 392 838 417 828 q 344 849 368 849 q 269 816 297 849 q 240 733 240 783 q 249 678 240 707 q 278 619 258 649 q 140 649 194 619 q 58 725 85 679 q 31 821 31 771 q 55 915 31 871 q 127 988 79 960 q 244 1017 175 1017 q 367 995 300 1017 q 513 924 433 974 q 601 994 561 981 q 671 1008 640 1008 q 745 970 719 1008 q 771 879 771 932 q 758 811 771 844 q 718 756 744 778 q 649 735 692 735 q 615 738 632 735 q 579 747 599 740 q 565 689 569 722 q 561 615 561 656 q 561 588 561 601 q 563 560 561 575 q 634 565 600 563 q 699 574 668 568 q 724 511 724 546 q 695 455 724 481 q 597 429 667 429 l 571 429 q 576 357 574 393 q 578 286 578 321 q 550 64 578 156 q 476 -85 522 -28 q 374 -167 431 -142 q 261 -193 318 -193 z "},"Ḱ":{"ha":875,"x_min":35,"x_max":861,"o":"m 668 -10 q 576 15 613 -10 q 518 83 540 40 q 483 177 496 125 q 458 282 469 229 q 424 419 444 356 q 360 508 404 483 q 307 305 332 407 q 282 103 282 203 q 283 72 282 88 q 285 40 283 56 q 172 -6 236 -6 q 77 35 119 -6 q 35 165 35 75 q 57 304 35 233 q 109 447 79 375 q 161 591 139 519 q 183 732 183 663 q 172 797 183 778 q 143 815 161 815 q 101 796 124 815 q 57 736 78 776 l 47 739 q 79 869 50 810 q 158 965 108 929 q 265 1000 207 1000 q 368 956 324 1000 q 413 806 413 913 q 403 705 413 758 q 382 596 394 651 q 491 716 444 650 q 563 845 538 782 q 589 956 589 908 q 576 1007 589 986 q 698 988 644 1007 q 783 934 751 968 q 815 856 815 900 q 748 725 815 796 q 521 585 681 654 q 587 531 561 567 q 630 455 613 496 q 660 375 647 414 q 706 260 683 307 q 772 214 729 214 q 822 232 800 214 q 853 272 843 250 l 861 268 q 839 130 861 193 q 774 28 817 67 q 668 -10 731 -10 m 422 1057 q 396 1066 404 1057 q 388 1088 388 1075 q 389 1100 388 1096 q 452 1158 419 1119 q 506 1242 485 1197 q 522 1321 526 1286 q 639 1296 603 1322 q 675 1232 675 1269 q 647 1160 675 1197 q 567 1095 618 1124 q 443 1058 515 1067 q 433 1057 438 1057 q 422 1057 428 1057 z "},"Ǩ":{"ha":875,"x_min":35,"x_max":861,"o":"m 668 -10 q 576 15 613 -10 q 518 83 540 40 q 483 177 496 125 q 458 282 469 229 q 424 419 444 356 q 360 508 404 483 q 307 305 332 407 q 282 103 282 203 q 283 72 282 88 q 285 40 283 56 q 172 -6 236 -6 q 77 35 119 -6 q 35 165 35 75 q 57 304 35 233 q 109 447 79 375 q 161 591 139 519 q 183 732 183 663 q 172 797 183 778 q 143 815 161 815 q 101 796 124 815 q 57 736 78 776 l 47 739 q 79 869 50 810 q 158 965 108 929 q 265 1000 207 1000 q 368 956 324 1000 q 413 806 413 913 q 403 705 413 758 q 382 596 394 651 q 491 716 444 650 q 563 845 538 782 q 589 956 589 908 q 576 1007 589 986 q 698 988 644 1007 q 783 934 751 968 q 815 856 815 900 q 748 725 815 796 q 521 585 681 654 q 587 531 561 567 q 630 455 613 496 q 660 375 647 414 q 706 260 683 307 q 772 214 729 214 q 822 232 800 214 q 853 272 843 250 l 861 268 q 839 130 861 193 q 774 28 817 67 q 668 -10 731 -10 m 457 1063 q 384 1088 421 1063 q 318 1155 347 1114 q 276 1240 289 1196 q 290 1291 268 1274 q 339 1303 311 1308 q 424 1242 388 1265 q 485 1218 460 1218 q 565 1242 511 1218 q 683 1299 619 1267 q 713 1299 697 1304 q 734 1281 728 1294 q 728 1244 740 1267 q 675 1178 708 1211 q 602 1120 642 1146 q 524 1078 563 1094 q 457 1063 486 1063 z "},"Ķ":{"ha":875,"x_min":35,"x_max":861,"o":"m 668 -10 q 576 15 613 -10 q 518 83 540 40 q 483 177 496 125 q 458 282 469 229 q 424 419 444 356 q 360 508 404 483 q 307 305 332 407 q 282 103 282 203 q 283 72 282 88 q 285 40 283 56 q 172 -6 236 -6 q 77 35 119 -6 q 35 165 35 75 q 57 304 35 233 q 109 447 79 375 q 161 591 139 519 q 183 732 183 663 q 172 797 183 778 q 143 815 161 815 q 101 796 124 815 q 57 736 78 776 l 47 739 q 79 869 50 810 q 158 965 108 929 q 265 1000 207 1000 q 368 956 324 1000 q 413 806 413 913 q 403 705 413 758 q 382 596 394 651 q 491 716 444 650 q 563 845 538 782 q 589 956 589 908 q 576 1007 589 986 q 698 988 644 1007 q 783 934 751 968 q 815 856 815 900 q 748 725 815 796 q 521 585 681 654 q 587 531 561 567 q 630 455 613 496 q 660 375 647 414 q 706 260 683 307 q 772 214 729 214 q 822 232 800 214 q 853 272 843 250 l 861 268 q 839 130 861 193 q 774 28 817 67 q 668 -10 731 -10 m 250 -375 q 226 -347 231 -375 q 267 -286 256 -319 q 278 -222 278 -253 q 271 -169 278 -193 q 256 -135 264 -144 l 253 -131 q 315 -100 285 -110 q 369 -90 344 -90 q 423 -104 401 -90 q 447 -146 444 -118 q 449 -161 449 -151 q 412 -257 449 -203 q 279 -365 375 -311 q 264 -372 271 -369 q 250 -375 257 -375 z "},"Ḳ":{"ha":875,"x_min":35,"x_max":861,"o":"m 668 -10 q 576 15 613 -10 q 518 83 540 40 q 483 177 496 125 q 458 282 469 229 q 424 419 444 356 q 360 508 404 483 q 307 305 332 407 q 282 103 282 203 q 283 72 282 88 q 285 40 283 56 q 172 -6 236 -6 q 77 35 119 -6 q 35 165 35 75 q 57 304 35 233 q 109 447 79 375 q 161 591 139 519 q 183 732 183 663 q 172 797 183 778 q 143 815 161 815 q 101 796 124 815 q 57 736 78 776 l 47 739 q 79 869 50 810 q 158 965 108 929 q 265 1000 207 1000 q 368 956 324 1000 q 413 806 413 913 q 403 705 413 758 q 382 596 394 651 q 491 716 444 650 q 563 845 538 782 q 589 956 589 908 q 576 1007 589 986 q 698 988 644 1007 q 783 934 751 968 q 815 856 815 900 q 748 725 815 796 q 521 585 681 654 q 587 531 561 567 q 630 455 613 496 q 660 375 647 414 q 706 260 683 307 q 772 214 729 214 q 822 232 800 214 q 853 272 843 250 l 861 268 q 839 130 861 193 q 774 28 817 67 q 668 -10 731 -10 m 332 -319 q 253 -285 285 -319 q 225 -199 222 -250 q 269 -101 229 -142 q 360 -60 308 -60 q 440 -94 408 -60 q 468 -181 471 -129 q 424 -279 464 -239 q 332 -319 385 -319 z "},"Ƙ":{"ha":908,"x_min":43,"x_max":925,"o":"m 181 -6 q 85 35 128 -6 q 43 165 43 75 q 65 305 43 233 q 117 449 88 376 q 169 594 147 522 q 192 736 192 667 q 181 801 192 782 q 151 819 169 819 q 109 800 132 819 q 65 740 86 781 l 56 743 q 88 874 58 814 q 166 969 117 933 q 274 1004 215 1004 q 376 960 332 1004 q 421 810 421 917 q 413 708 421 756 q 390 603 406 661 q 425 597 408 601 q 567 897 486 789 q 760 1004 647 1004 q 854 975 817 1004 q 908 900 892 946 q 919 803 925 854 q 883 707 914 753 q 795 632 853 661 q 651 603 738 603 q 699 759 700 713 q 671 806 697 806 q 603 750 643 806 q 497 568 564 694 q 559 503 532 543 q 615 413 586 463 q 696 297 660 336 q 762 243 732 257 q 813 229 792 229 q 864 264 846 229 l 872 260 q 842 128 868 189 q 772 30 817 67 q 667 -7 728 -7 q 571 36 613 -7 q 496 150 529 79 q 431 303 463 221 q 388 415 404 371 q 363 485 372 458 q 314 293 338 389 q 290 103 290 197 q 291 72 290 88 q 293 40 292 56 q 181 -6 244 -6 z "},"Ḵ":{"ha":875,"x_min":35,"x_max":861,"o":"m 668 -10 q 576 15 613 -10 q 518 83 540 40 q 483 177 496 125 q 458 282 469 229 q 424 419 444 356 q 360 508 404 483 q 307 305 332 407 q 282 103 282 203 q 283 72 282 88 q 285 40 283 56 q 172 -6 236 -6 q 77 35 119 -6 q 35 165 35 75 q 57 304 35 233 q 109 447 79 375 q 161 591 139 519 q 183 732 183 663 q 172 797 183 778 q 143 815 161 815 q 101 796 124 815 q 57 736 78 776 l 47 739 q 79 869 50 810 q 158 965 108 929 q 265 1000 207 1000 q 368 956 324 1000 q 413 806 413 913 q 403 705 413 758 q 382 596 394 651 q 491 716 444 650 q 563 845 538 782 q 589 956 589 908 q 576 1007 589 986 q 698 988 644 1007 q 783 934 751 968 q 815 856 815 900 q 748 725 815 796 q 521 585 681 654 q 587 531 561 567 q 630 455 613 496 q 660 375 647 414 q 706 260 683 307 q 772 214 729 214 q 822 232 800 214 q 853 272 843 250 l 861 268 q 839 130 861 193 q 774 28 817 67 q 668 -10 731 -10 m 92 -271 q 78 -174 68 -219 q 126 -102 88 -129 q 225 -76 165 -75 q 344 -82 282 -78 q 463 -88 406 -86 q 567 -86 521 -90 q 638 -65 613 -82 q 663 -161 667 -115 q 622 -235 660 -207 q 510 -264 585 -264 q 249 -257 351 -264 q 92 -271 146 -250 z "},"Ĺ":{"ha":867,"x_min":-3,"x_max":828,"o":"m 664 -10 q 551 8 614 -10 q 419 48 488 26 q 282 79 350 69 q 194 16 235 35 q 121 -3 153 -3 q 53 21 81 -3 q 11 81 25 44 q -3 157 -3 118 q 12 233 -3 197 q 57 292 26 269 q 135 315 88 315 q 156 314 144 315 q 179 310 167 313 q 226 488 206 390 q 258 681 246 586 q 269 844 269 775 q 267 884 269 872 q 257 908 264 896 l 256 913 q 311 982 272 957 q 393 1007 350 1007 q 471 973 440 1007 q 501 860 501 939 q 490 735 501 810 q 457 576 478 661 q 411 407 436 490 q 361 258 386 324 q 484 226 422 244 q 606 208 546 208 q 694 225 651 208 q 774 286 736 242 q 815 235 801 268 q 828 164 828 201 q 810 83 828 122 q 757 17 793 43 q 664 -10 721 -10 m 382 1057 q 356 1066 364 1057 q 347 1088 347 1075 q 349 1100 347 1096 q 412 1158 379 1119 q 465 1242 444 1197 q 482 1321 486 1286 q 599 1296 563 1322 q 635 1232 635 1269 q 606 1160 635 1197 q 526 1095 578 1124 q 403 1058 475 1067 q 392 1057 397 1057 q 382 1057 388 1057 z "},"Ƚ":{"ha":858,"x_min":-3,"x_max":828,"o":"m 481 457 q 426 457 458 457 q 394 352 411 403 q 361 258 378 301 q 484 226 422 244 q 606 208 546 208 q 694 225 651 208 q 774 286 736 242 q 815 235 801 268 q 828 164 828 201 q 810 83 828 122 q 757 17 793 43 q 664 -10 721 -10 q 551 8 614 -10 q 419 48 488 26 q 282 79 350 69 q 194 16 235 35 q 121 -3 153 -3 q 53 21 81 -3 q 11 81 25 44 q -3 157 -3 118 q 12 233 -3 197 q 57 292 26 269 q 135 315 88 315 q 156 314 144 315 q 179 310 167 313 q 201 383 190 344 q 221 463 211 422 q 160 467 185 465 q 87 495 110 471 q 67 550 64 519 q 99 601 69 581 q 244 589 174 593 q 263 726 257 660 q 269 844 269 793 q 267 884 269 872 q 257 908 264 896 l 256 913 q 311 982 272 957 q 393 1007 350 1007 q 471 973 440 1007 q 501 860 501 939 q 490 741 501 813 q 460 589 479 669 q 582 601 525 593 q 607 543 604 578 q 581 483 610 508 q 481 457 553 457 z "},"Ľ":{"ha":867,"x_min":-3,"x_max":828,"o":"m 664 -10 q 551 8 614 -10 q 419 48 488 26 q 282 79 350 69 q 194 16 235 35 q 121 -3 153 -3 q 53 21 81 -3 q 11 81 25 44 q -3 157 -3 118 q 12 233 -3 197 q 57 292 26 269 q 135 315 88 315 q 156 314 144 315 q 179 310 167 313 q 226 488 206 390 q 258 681 246 586 q 269 844 269 775 q 267 884 269 872 q 257 908 264 896 l 256 913 q 311 982 272 957 q 393 1007 350 1007 q 471 973 440 1007 q 501 860 501 939 q 490 735 501 810 q 457 576 478 661 q 411 407 436 490 q 361 258 386 324 q 484 226 422 244 q 606 208 546 208 q 694 225 651 208 q 774 286 736 242 q 815 235 801 268 q 828 164 828 201 q 810 83 828 122 q 757 17 793 43 q 664 -10 721 -10 m 654 717 q 630 722 642 711 q 621 750 618 733 q 650 810 646 778 q 649 874 654 842 q 640 934 643 906 q 647 984 636 963 q 696 1017 658 1006 q 772 1014 740 1029 q 815 965 803 999 q 817 886 828 931 q 767 797 807 842 q 654 717 728 753 z "},"Ḽ":{"ha":867,"x_min":-3,"x_max":828,"o":"m 664 -10 q 551 8 614 -10 q 419 48 488 26 q 282 79 350 69 q 194 16 235 35 q 121 -3 153 -3 q 53 21 81 -3 q 11 81 25 44 q -3 157 -3 118 q 12 233 -3 197 q 57 292 26 269 q 135 315 88 315 q 156 314 144 315 q 179 310 167 313 q 226 488 206 390 q 258 681 246 586 q 269 844 269 775 q 267 884 269 872 q 257 908 264 896 l 256 913 q 311 982 272 957 q 393 1007 350 1007 q 471 973 440 1007 q 501 860 501 939 q 490 735 501 810 q 457 576 478 661 q 411 407 436 490 q 361 258 386 324 q 484 226 422 244 q 606 208 546 208 q 694 225 651 208 q 774 286 736 242 q 815 235 801 268 q 828 164 828 201 q 810 83 828 122 q 757 17 793 43 q 664 -10 721 -10 m 203 -319 q 155 -308 171 -325 q 150 -267 139 -292 q 231 -160 179 -204 q 338 -93 282 -117 q 433 -69 393 -69 q 510 -97 468 -69 q 585 -169 551 -125 q 628 -260 619 -212 q 615 -308 635 -294 q 563 -317 594 -322 q 508 -281 539 -297 q 450 -253 478 -264 q 406 -242 422 -242 q 356 -252 389 -242 q 282 -280 322 -262 q 203 -319 242 -297 z "},"Ļ":{"ha":867,"x_min":-3,"x_max":828,"o":"m 664 -10 q 551 8 614 -10 q 419 48 488 26 q 282 79 350 69 q 194 16 235 35 q 121 -3 153 -3 q 53 21 81 -3 q 11 81 25 44 q -3 157 -3 118 q 12 233 -3 197 q 57 292 26 269 q 135 315 88 315 q 156 314 144 315 q 179 310 167 313 q 226 488 206 390 q 258 681 246 586 q 269 844 269 775 q 267 884 269 872 q 257 908 264 896 l 256 913 q 311 982 272 957 q 393 1007 350 1007 q 471 973 440 1007 q 501 860 501 939 q 490 735 501 810 q 457 576 478 661 q 411 407 436 490 q 361 258 386 324 q 484 226 422 244 q 606 208 546 208 q 694 225 651 208 q 774 286 736 242 q 815 235 801 268 q 828 164 828 201 q 810 83 828 122 q 757 17 793 43 q 664 -10 721 -10 m 233 -375 q 210 -347 214 -375 q 250 -286 239 -319 q 261 -222 261 -253 q 254 -169 261 -193 q 239 -135 247 -144 l 236 -131 q 298 -100 268 -110 q 353 -90 328 -90 q 406 -104 385 -90 q 431 -146 428 -118 q 432 -161 432 -151 q 395 -257 432 -203 q 263 -365 358 -311 q 247 -372 254 -369 q 233 -375 240 -375 z "},"Ŀ":{"ha":867,"x_min":-3,"x_max":933,"o":"m 664 -10 q 551 8 614 -10 q 419 48 488 26 q 282 79 350 69 q 194 16 235 35 q 121 -3 153 -3 q 53 21 81 -3 q 11 81 25 44 q -3 157 -3 118 q 12 233 -3 197 q 57 292 26 269 q 135 315 88 315 q 156 314 144 315 q 179 310 167 313 q 226 488 206 390 q 258 681 246 586 q 269 844 269 775 q 267 884 269 872 q 257 908 264 896 l 256 913 q 311 982 272 957 q 393 1007 350 1007 q 471 973 440 1007 q 501 860 501 939 q 490 735 501 810 q 457 576 478 661 q 411 407 436 490 q 361 258 386 324 q 484 226 422 244 q 606 208 546 208 q 694 225 651 208 q 774 286 736 242 q 815 235 801 268 q 828 164 828 201 q 810 83 828 122 q 757 17 793 43 q 664 -10 721 -10 m 781 432 q 686 468 724 432 q 649 557 649 504 q 692 659 649 617 q 800 701 736 701 q 895 665 857 701 q 933 576 933 629 q 889 474 933 517 q 781 432 844 432 z "}}}
